STARTFONT 2.1
COMMENT
COMMENT Converted from OpenType font "notosans_regular.ttf" by "otf2bdf 3.0".
COMMENT
FONT -FreeType-Noto Sans-Medium-R-Normal--50-360-100-100-P-246-ISO10646-1
SIZE 36 100 100
FONTBOUNDINGBOX 171 87 -31 -20
STARTPROPERTIES 19
FOUNDRY "FreeType"
FAMILY_NAME "Noto Sans"
WEIGHT_NAME "Medium"
SLANT "R"
SETWIDTH_NAME "Normal"
ADD_STYLE_NAME ""
PIXEL_SIZE 50
POINT_SIZE 360
RESOLUTION_X 100
RESOLUTION_Y 100
SPACING "P"
AVERAGE_WIDTH 246
CHARSET_REGISTRY "ISO10646"
CHARSET_ENCODING "1"
FONT_ASCENT 53
FONT_DESCENT 14
COPYRIGHT "Copyright 2015-2021 Google LLC. All Rights Reserved."
_OTF_FONTFILE "notosans_regular.ttf"
_OTF_PSNAME "NotoSans-Regular"
ENDPROPERTIES
CHARS 3053
STARTCHAR 0000
ENCODING 0
SWIDTH 0 0
DWIDTH 0 0
BBX 0 0 0 0
BITMAP
ENDCHAR
STARTCHAR 000D
ENCODING 13
SWIDTH 260 0
DWIDTH 13 0
BBX 0 0 0 0
BITMAP
ENDCHAR
STARTCHAR 0020
ENCODING 32
SWIDTH 260 0
DWIDTH 13 0
BBX 0 0 0 0
BITMAP
ENDCHAR
STARTCHAR 0021
ENCODING 33
SWIDTH 260 0
DWIDTH 13 0
BBX 6 37 4 -1
BITMAP
F8
F8
F8
F8
F8
F8
F8
F8
F8
78
78
78
78
78
78
78
78
78
78
70
70
70
70
70
70
70
00
00
00
00
78
F8
FC
FC
FC
F8
70
ENDCHAR
STARTCHAR 0022
ENCODING 34
SWIDTH 400 0
DWIDTH 20 0
BBX 14 13 3 23
BITMAP
F87C
F87C
F83C
783C
783C
783C
783C
703C
703C
7038
7038
7038
7038
ENDCHAR
STARTCHAR 0023
ENCODING 35
SWIDTH 640 0
DWIDTH 32 0
BBX 30 36 1 0
BITMAP
001E03C0
001E0380
001E0380
001C0380
001C0780
003C0780
003C0780
003C0700
00380700
00380F00
00780F00
3FFFFFFC
3FFFFFFC
3FFFFFFC
00701E00
00701E00
00F01E00
00F01C00
00E01C00
00E03C00
00E03C00
01E03C00
FFFFFFF0
FFFFFFF0
FFFFFFF0
FFFFFFF0
03C07800
03C07000
03C07000
0380F000
0380F000
0780F000
0780E000
0780E000
0701E000
0701E000
ENDCHAR
STARTCHAR 0024
ENCODING 36
SWIDTH 560 0
DWIDTH 28 0
BBX 23 41 3 -3
BITMAP
003800
003800
003800
003800
007E00
07FFF0
1FFFFC
3FFFF8
7F39F8
7C3810
F83800
F03800
F03800
F83800
F83800
7C3800
7F3800
3FF800
1FFC00
0FFF80
03FFE0
007FF0
003FF8
0038FC
00387C
00383E
00383E
00383E
00383E
00383C
C038FC
FE3FF8
FFFFF0
FFFFE0
3FFF80
007800
003800
003800
003800
003800
003800
ENDCHAR
STARTCHAR 0025
ENCODING 37
SWIDTH 820 0
DWIDTH 41 0
BBX 37 37 2 -1
BITMAP
07E0001C00
1FF0003C00
3FF8003800
3C3C007800
783C00F000
781E00F000
701E01E000
701E01E000
701E03C000
F00E03C000
F00E078000
F00E070000
F00E0F0000
701E1E0000
701E1E1F00
781E3C7FC0
781E3CFFE0
783C78F1E0
3C7C79E0F0
3FF8F1E070
1FF0E1C078
07E1E1C078
0003C3C078
0003C3C078
000783C078
000783C078
000F03C078
000F03C078
001E03C078
001C01C078
003C01E070
007801E0F0
007800F0F0
00F000FFE0
00F0007FE0
01E0003F80
0000000400
ENDCHAR
STARTCHAR 0026
ENCODING 38
SWIDTH 720 0
DWIDTH 36 0
BBX 33 37 3 -1
BITMAP
00FF000000
03FFC00000
07FFE00000
0FE7F00000
1F81F00000
1F00F80000
1E00F80000
1E00F80000
1E00F80000
1F00F80000
1F00F00000
0F81F00000
0F83E00000
07CFC00000
03FF800000
01FF000000
01FC000000
07FC000000
0FFE001E00
1F9F803E00
3F0FC03E00
7C07E03C00
FC03F07C00
F801F87C00
F800FCF800
F0007EF800
F0003FF000
F0001FE000
F8000FE000
F8000FE000
FC003FF000
7E007FF800
7FCFFCFC00
3FFFF87E00
1FFFE03F00
07FF801F80
0030000000
ENDCHAR
STARTCHAR 0027
ENCODING 39
SWIDTH 220 0
DWIDTH 11 0
BBX 5 13 3 23
BITMAP
F8
F8
F8
78
78
78
78
70
70
70
70
70
70
ENDCHAR
STARTCHAR 0028
ENCODING 40
SWIDTH 300 0
DWIDTH 15 0
BBX 11 44 2 -8
BITMAP
01E0
03E0
03C0
0780
0F80
0F00
1F00
1E00
3E00
3E00
3C00
7C00
7C00
7800
7800
7800
F800
F800
F800
F800
F000
F000
F000
F000
F800
F800
F800
F800
F800
7800
7800
7C00
7C00
3C00
3C00
3E00
1E00
1F00
0F00
0F80
0780
07C0
03C0
01E0
ENDCHAR
STARTCHAR 0029
ENCODING 41
SWIDTH 300 0
DWIDTH 15 0
BBX 11 44 2 -8
BITMAP
F000
F800
7800
3C00
3E00
1E00
1F00
0F00
0F00
0F80
0780
0780
07C0
03C0
03C0
03C0
03E0
03E0
03E0
03E0
03E0
01E0
01E0
01E0
03E0
03E0
03E0
03E0
03E0
03C0
03C0
07C0
07C0
0780
0F80
0F80
0F00
1F00
1E00
3E00
3C00
7C00
7800
F000
ENDCHAR
STARTCHAR 002A
ENCODING 42
SWIDTH 540 0
DWIDTH 27 0
BBX 23 22 2 15
BITMAP
007C00
007C00
007C00
003C00
003C00
003C00
003800
603806
FC387E
FFFFFE
FFFFFE
FFFFFE
007C00
00FE00
01EF00
01EF80
03C780
07C7C0
07C3E0
0F83F0
0F81F0
0301C0
ENDCHAR
STARTCHAR 002B
ENCODING 43
SWIDTH 560 0
DWIDTH 28 0
BBX 24 24 2 6
BITMAP
003C00
003C00
003C00
003C00
003C00
003C00
003C00
003C00
003C00
003C00
003C00
FFFFFF
FFFFFF
FFFFFF
003C00
003C00
003C00
003C00
003C00
003C00
003C00
003C00
003C00
003C00
ENDCHAR
STARTCHAR 002C
ENCODING 44
SWIDTH 260 0
DWIDTH 13 0
BBX 7 12 2 -6
BITMAP
3E
3E
3E
3E
3E
3C
7C
78
78
78
F0
F0
ENDCHAR
STARTCHAR 002D
ENCODING 45
SWIDTH 320 0
DWIDTH 16 0
BBX 12 4 2 11
BITMAP
FFF0
FFF0
FFF0
FFF0
ENDCHAR
STARTCHAR 002E
ENCODING 46
SWIDTH 260 0
DWIDTH 13 0
BBX 6 7 4 -1
BITMAP
78
F8
FC
FC
FC
F8
70
ENDCHAR
STARTCHAR 002F
ENCODING 47
SWIDTH 360 0
DWIDTH 18 0
BBX 17 36 1 0
BITMAP
000780
000F80
000F00
000F00
001F00
001E00
003E00
003C00
003C00
007C00
007800
007800
00F800
00F000
01F000
01E000
01E000
03E000
03C000
03C000
07C000
078000
078000
0F0000
0F0000
1F0000
1E0000
1E0000
3E0000
3C0000
3C0000
780000
780000
F80000
F00000
F00000
ENDCHAR
STARTCHAR 0030
ENCODING 48
SWIDTH 560 0
DWIDTH 28 0
BBX 24 37 2 -1
BITMAP
00FF80
03FFC0
07FFF0
0FFFF0
1F80F8
1F007C
3E003C
3C003E
3C003E
7C001E
7C001E
78001F
78001F
78001F
78000F
F8000F
F8000F
F8000F
F8000F
F8000F
F8000F
78000F
78001F
78001F
78001F
78001F
7C001E
3C001E
3C003E
3E003C
1E007C
1F00F8
0FC3F8
07FFF0
03FFE0
01FF80
000800
ENDCHAR
STARTCHAR 0031
ENCODING 49
SWIDTH 560 0
DWIDTH 28 0
BBX 13 36 5 0
BITMAP
0078
00F8
03F8
07F8
0FF8
3F78
7E78
FCF8
F8F8
60F8
00F8
00F8
00F8
00F8
00F8
00F8
00F8
00F8
00F8
00F8
00F8
00F8
00F8
00F8
00F8
00F8
00F8
00F8
00F8
00F8
00F8
00F8
00F8
00F8
00F8
00F8
ENDCHAR
STARTCHAR 0032
ENCODING 50
SWIDTH 560 0
DWIDTH 28 0
BBX 24 36 2 0
BITMAP
01FF00
07FFE0
1FFFF0
7FFFF8
7E01F8
38007C
10007C
00003C
00003E
00003E
00003C
00003C
00003C
00007C
000078
0000F8
0000F0
0001F0
0003E0
0007C0
000F80
001F00
003E00
007C00
00F800
01F000
03E000
07C000
0F8000
1F0000
3E0000
7C0000
FFFFFF
FFFFFF
FFFFFF
FFFFFF
ENDCHAR
STARTCHAR 0033
ENCODING 51
SWIDTH 560 0
DWIDTH 28 0
BBX 24 37 2 -1
BITMAP
03FF80
0FFFE0
3FFFF0
FFFFF8
7C00FC
30007C
00003C
00003E
00003E
00003E
00003E
00003C
00007C
0000F8
0001F8
001FE0
03FF80
03FF00
03FFE0
003FF8
0000FC
00007E
00003E
00001E
00001F
00001F
00001F
00001F
00001E
00003E
00007E
E000FC
FE07FC
FFFFF0
FFFFE0
1FFF80
006000
ENDCHAR
STARTCHAR 0034
ENCODING 52
SWIDTH 560 0
DWIDTH 28 0
BBX 27 36 1 0
BITMAP
00007800
0000F800
0001F800
0003F800
0003F800
0007F800
000F7800
000F7800
001E7800
003C7800
003C7800
00787800
00F07800
01F07800
01E07800
03C07800
07C07800
07807800
0F007800
1E007800
1E007800
3C007800
78007800
F8007800
FFFFFFE0
FFFFFFE0
FFFFFFE0
FFFFFFE0
00007800
00007800
00007800
00007800
00007800
00007800
00007800
00007800
ENDCHAR
STARTCHAR 0035
ENCODING 53
SWIDTH 560 0
DWIDTH 28 0
BBX 23 37 3 -1
BITMAP
3FFFF0
3FFFF0
3FFFF0
3FFFF0
3C0000
3C0000
3C0000
3C0000
3C0000
3C0000
3C0000
7C0000
780000
780000
7BFE00
7FFF80
7FFFE0
3FFFF0
0003F8
0000FC
00007C
00007C
00003E
00003E
00003E
00003E
00003E
00003C
00003C
00007C
0000F8
C001F8
FE1FF0
FFFFE0
FFFFC0
3FFF00
00C000
ENDCHAR
STARTCHAR 0036
ENCODING 54
SWIDTH 560 0
DWIDTH 28 0
BBX 23 37 3 -1
BITMAP
001FF8
00FFF8
03FFF8
07FE38
0FE000
1F8000
1F0000
3E0000
3C0000
7C0000
780000
780000
780000
F80000
F0FF80
F1FFE0
F3FFF0
F781F8
FE007C
FC007C
F8003E
F8003E
F0001E
F0001E
F0001E
F0001E
F8001E
78001E
78003E
7C003C
3E007C
3F00FC
1FC3F8
0FFFF0
07FFE0
01FF80
001800
ENDCHAR
STARTCHAR 0037
ENCODING 55
SWIDTH 560 0
DWIDTH 28 0
BBX 24 36 2 0
BITMAP
FFFFFF
FFFFFF
FFFFFF
FFFFFF
00001F
00001E
00003E
00003C
00007C
00007C
000078
0000F8
0000F0
0001F0
0001E0
0003E0
0003C0
0007C0
0007C0
000F80
000F80
001F00
001F00
001E00
003E00
003C00
007C00
007800
00F800
00F800
01F000
01F000
03E000
03E000
07C000
07C000
ENDCHAR
STARTCHAR 0038
ENCODING 56
SWIDTH 560 0
DWIDTH 28 0
BBX 24 37 2 -1
BITMAP
00FF80
07FFE0
0FFFF8
1FE7F8
3F007C
3E003E
3C003E
3C001E
3C001E
3C001E
3C003E
3E003C
1F007C
1F80F8
0FE3F0
07FFE0
03FF80
00FF80
03FFE0
0FEFF0
1F81F8
3E00FC
3C003E
7C001E
78001F
78000F
F8000F
F8000F
78000F
78001F
7C001E
7E003E
3F80FC
1FFFF8
0FFFF0
03FFC0
001800
ENDCHAR
STARTCHAR 0039
ENCODING 57
SWIDTH 560 0
DWIDTH 28 0
BBX 24 37 2 -1
BITMAP
00FF00
07FFC0
0FFFE0
1FFFF0
3F00F8
3E007C
7C003C
7C003E
78001E
78001E
78001F
F8001F
F8000F
78001F
78001F
78001F
7C003F
3E007F
3F01FF
1FFFFF
0FFF9F
03FF1F
00701E
00001E
00001E
00003E
00003C
00003C
00007C
0000F8
0001F0
0003F0
101FE0
1FFFC0
1FFF00
1FFC00
018000
ENDCHAR
STARTCHAR 003A
ENCODING 58
SWIDTH 260 0
DWIDTH 13 0
BBX 6 28 4 0
BITMAP
F8
FC
FC
FC
FC
F8
00
00
00
00
00
00
00
00
00
00
00
00
00
00
00
78
F8
FC
FC
FC
F8
70
ENDCHAR
STARTCHAR 003B
ENCODING 59
SWIDTH 260 0
DWIDTH 13 0
BBX 8 33 2 -5
BITMAP
3E
3F
7F
3F
3E
3E
00
00
00
00
00
00
00
00
00
00
00
00
00
00
00
3E
3E
3E
3C
7C
7C
78
78
F8
F0
F0
E0
ENDCHAR
STARTCHAR 003C
ENCODING 60
SWIDTH 560 0
DWIDTH 28 0
BBX 24 24 2 6
BITMAP
000003
00000F
00003F
0000FF
0003FC
000FF0
003FC0
00FF00
03F800
0FE000
3F8000
FE0000
F80000
FF0000
3FC000
0FF800
03FE00
007F80
001FF0
0007FC
0000FF
00003F
00000F
000003
ENDCHAR
STARTCHAR 003D
ENCODING 61
SWIDTH 560 0
DWIDTH 28 0
BBX 23 13 3 11
BITMAP
FFFFFE
FFFFFE
FFFFFE
000000
000000
000000
000000
000000
000000
000000
FFFFFE
FFFFFE
FFFFFE
ENDCHAR
STARTCHAR 003E
ENCODING 62
SWIDTH 560 0
DWIDTH 28 0
BBX 24 24 2 6
BITMAP
C00000
F00000
FC0000
FF0000
1FC000
07F000
01FC00
007F00
001FC0
0007F0
0001FC
00007F
00001F
00007F
0003FE
000FF0
003FC0
01FF00
07F800
3FE000
FF8000
FE0000
F00000
C00000
ENDCHAR
STARTCHAR 003F
ENCODING 63
SWIDTH 420 0
DWIDTH 21 0
BBX 19 37 1 -1
BITMAP
0FFC00
7FFF00
FFFF80
FFFFC0
7007E0
4003E0
0001E0
0001E0
0001E0
0001E0
0001E0
0001E0
0003E0
0007C0
000F80
001F00
003E00
007C00
00F800
01F000
01E000
03C000
03C000
03C000
03C000
03C000
000000
000000
000000
000000
03C000
07E000
07E000
07E000
07E000
07C000
018000
ENDCHAR
STARTCHAR 0040
ENCODING 64
SWIDTH 880 0
DWIDTH 44 0
BBX 39 40 3 -4
BITMAP
00001F0000
0007FFF000
001FFFFC00
007FFFFF00
00FE001F80
01F00007C0
03E00003E0
07800000F0
0F000000F8
1E00000078
1E007FC03C
3C01FFF03C
3807FFF01C
780FC1F01E
780F00F01E
701E00F01E
F01E00F01E
F03C00F00E
F03C00F00E
F03C00F01E
F03C00F01E
F03C00F01E
F03C00F01E
F03C01F01C
F03C01F03C
F01E03F03C
F01F03F078
F00FFF3FF0
780FFE3FE0
7803FC1FC0
7800400200
3C00000000
3E00000000
1F00000000
0F80000000
07E0000800
03F800F800
01FFFFF800
007FFFF800
000FFFC000
ENDCHAR
STARTCHAR 0041
ENCODING 65
SWIDTH 620 0
DWIDTH 31 0
BBX 32 36 0 0
BITMAP
0003C000
0007E000
0007E000
0007E000
000FF000
000FF000
001EF000
001E7800
001E7800
003E7C00
003C3C00
003C3C00
00783E00
00781E00
00F81F00
00F00F00
00F00F00
01F00F80
01E00780
03E007C0
03C007C0
03FFFFC0
07FFFFE0
07FFFFE0
0FFFFFE0
0F8001F0
0F0000F0
1F0000F8
1E0000F8
1E000078
3E00007C
3C00003C
7C00003E
7C00003E
7800001E
F800001F
ENDCHAR
STARTCHAR 0042
ENCODING 66
SWIDTH 640 0
DWIDTH 32 0
BBX 25 36 5 0
BITMAP
FFF80000
FFFFC000
FFFFF800
FFFFFC00
F003FC00
F0007E00
F0003E00
F0001E00
F0001F00
F0001F00
F0001F00
F0001E00
F0003E00
F0003C00
F0007C00
FFFFF800
FFFFE000
FFFFC000
FFFFF800
F003FC00
F0007E00
F0001F00
F0001F00
F0000F80
F0000F80
F0000F80
F0000F80
F0000F80
F0001F80
F0001F00
F0003F00
F000FE00
FFFFFC00
FFFFF800
FFFFF000
FFFF8000
ENDCHAR
STARTCHAR 0043
ENCODING 67
SWIDTH 620 0
DWIDTH 31 0
BBX 27 37 3 -1
BITMAP
000FFE00
007FFFC0
01FFFFE0
03FFFFC0
07F803C0
0FC00000
1F800000
1F000000
3E000000
3E000000
7C000000
7C000000
7C000000
F8000000
F8000000
F8000000
F8000000
F8000000
F8000000
F8000000
F8000000
F8000000
F8000000
78000000
7C000000
7C000000
7C000000
3E000000
3F000000
1F800000
1FC00000
0FF000C0
07FFBFC0
03FFFFC0
00FFFFC0
003FFF00
0001C000
ENDCHAR
STARTCHAR 0044
ENCODING 68
SWIDTH 720 0
DWIDTH 36 0
BBX 28 36 5 0
BITMAP
FFFC0000
FFFFC000
FFFFF800
FFFFFC00
F003FE00
F0007F00
F0001F80
F0000FC0
F00007C0
F00003E0
F00003E0
F00001F0
F00001F0
F00001F0
F00001F0
F00000F0
F00000F0
F00000F0
F00000F0
F00000F0
F00000F0
F00001F0
F00001F0
F00001F0
F00001F0
F00003E0
F00003E0
F00007C0
F0000FC0
F0001F80
F0007F00
F001FE00
FFFFFC00
FFFFF800
FFFFE000
FFFE0000
ENDCHAR
STARTCHAR 0045
ENCODING 69
SWIDTH 540 0
DWIDTH 27 0
BBX 20 36 5 0
BITMAP
FFFFF0
FFFFF0
FFFFF0
FFFFF0
F00000
F00000
F00000
F00000
F00000
F00000
F00000
F00000
F00000
F00000
F00000
FFFFE0
FFFFE0
FFFFE0
FFFFE0
F00000
F00000
F00000
F00000
F00000
F00000
F00000
F00000
F00000
F00000
F00000
F00000
F00000
FFFFF0
FFFFF0
FFFFF0
FFFFF0
ENDCHAR
STARTCHAR 0046
ENCODING 70
SWIDTH 500 0
DWIDTH 25 0
BBX 20 36 5 0
BITMAP
FFFFF0
FFFFF0
FFFFF0
FFFFF0
F00000
F00000
F00000
F00000
F00000
F00000
F00000
F00000
F00000
F00000
F00000
F00000
F00000
FFFFE0
FFFFE0
FFFFE0
FFFFE0
F00000
F00000
F00000
F00000
F00000
F00000
F00000
F00000
F00000
F00000
F00000
F00000
F00000
F00000
F00000
ENDCHAR
STARTCHAR 0047
ENCODING 71
SWIDTH 720 0
DWIDTH 36 0
BBX 30 37 3 -1
BITMAP
0007FF80
003FFFF0
00FFFFF8
03FFFFF8
07F800F0
0FE00010
1F800000
1F000000
3F000000
3E000000
7C000000
7C000000
7C000000
F8000000
F8000000
F8000000
F8000000
F8007FFC
F8007FFC
F8007FFC
F8007FFC
F800007C
F800007C
7800007C
7C00007C
7C00007C
7E00007C
3E00007C
3F00007C
1F80007C
0FC0007C
0FF0007C
07FF8FFC
01FFFFFC
00FFFFFC
003FFFE0
0000E000
ENDCHAR
STARTCHAR 0048
ENCODING 72
SWIDTH 740 0
DWIDTH 37 0
BBX 27 36 5 0
BITMAP
F00001E0
F00001E0
F00001E0
F00001E0
F00001E0
F00001E0
F00001E0
F00001E0
F00001E0
F00001E0
F00001E0
F00001E0
F00001E0
F00001E0
F00001E0
FFFFFFE0
FFFFFFE0
FFFFFFE0
FFFFFFE0
F00001E0
F00001E0
F00001E0
F00001E0
F00001E0
F00001E0
F00001E0
F00001E0
F00001E0
F00001E0
F00001E0
F00001E0
F00001E0
F00001E0
F00001E0
F00001E0
F00001E0
ENDCHAR
STARTCHAR 0049
ENCODING 73
SWIDTH 320 0
DWIDTH 16 0
BBX 13 36 2 0
BITMAP
FFF8
FFF8
FFF8
3FC0
0F80
0F80
0F80
0F80
0F80
0F80
0F80
0F80
0F80
0F80
0F80
0F80
0F80
0F80
0F80
0F80
0F80
0F80
0F80
0F80
0F80
0F80
0F80
0F80
0F80
0F80
0F80
0F80
0F80
FFF8
FFF8
FFF8
ENDCHAR
STARTCHAR 004A
ENCODING 74
SWIDTH 260 0
DWIDTH 13 0
BBX 13 46 -4 -10
BITMAP
0078
0078
0078
0078
0078
0078
0078
0078
0078
0078
0078
0078
0078
0078
0078
0078
0078
0078
0078
0078
0078
0078
0078
0078
0078
0078
0078
0078
0078
0078
0078
0078
0078
0078
0078
0078
0078
00F8
00F8
00F8
01F0
EFF0
FFE0
FFC0
FF00
1000
ENDCHAR
STARTCHAR 004B
ENCODING 75
SWIDTH 600 0
DWIDTH 30 0
BBX 26 36 5 0
BITMAP
F0000F80
F0001F00
F0003E00
F0007E00
F000FC00
F001F800
F001F000
F003E000
F007C000
F00F8000
F01F0000
F03E0000
F07C0000
F0F80000
F1F00000
F3F00000
F3F00000
F7F00000
FFF80000
FEFC0000
FC7E0000
F83E0000
F01F0000
F01F8000
F00FC000
F007C000
F003E000
F003F000
F001F000
F000F800
F0007C00
F0007E00
F0003E00
F0001F00
F0000F80
F0000FC0
ENDCHAR
STARTCHAR 004C
ENCODING 76
SWIDTH 520 0
DWIDTH 26 0
BBX 20 36 5 0
BITMAP
F00000
F00000
F00000
F00000
F00000
F00000
F00000
F00000
F00000
F00000
F00000
F00000
F00000
F00000
F00000
F00000
F00000
F00000
F00000
F00000
F00000
F00000
F00000
F00000
F00000
F00000
F00000
F00000
F00000
F00000
F00000
F00000
FFFFF0
FFFFF0
FFFFF0
FFFFF0
ENDCHAR
STARTCHAR 004D
ENCODING 77
SWIDTH 900 0
DWIDTH 45 0
BBX 36 36 5 0
BITMAP
FE000007F0
FE00000FF0
FE00000FF0
FF00000FF0
FF00001FF0
FF00001FF0
F780001FF0
F780003DF0
F7C0003DF0
F3C00079F0
F3C00079F0
F3E00079F0
F1E000F1F0
F1E000F1F0
F0F001F1F0
F0F001E1F0
F0F801E1F0
F07803C1F0
F07803C1F0
F07C03C1F0
F03C0781F0
F03C0781F0
F01E0F01F0
F01E0F01F0
F01F0F01F0
F00F1E01F0
F00F1E01F0
F00FBE01F0
F007BC01F0
F007BC01F0
F003F801F0
F003F801F0
F003F801F0
F001F001F0
F001F001F0
F001F001F0
ENDCHAR
STARTCHAR 004E
ENCODING 78
SWIDTH 760 0
DWIDTH 38 0
BBX 28 36 5 0
BITMAP
F80000F0
FC0000F0
FC0000F0
FE0000F0
FF0000F0
FF0000F0
FF8000F0
F7C000F0
F7C000F0
F3E000F0
F3F000F0
F1F000F0
F0F800F0
F0FC00F0
F07C00F0
F03E00F0
F03F00F0
F01F00F0
F00F80F0
F00F80F0
F007C0F0
F003E0F0
F003E0F0
F001F0F0
F001F8F0
F000F8F0
F0007CF0
F0007EF0
F0003EF0
F0001FF0
F0001FF0
F0000FF0
F00007F0
F00007F0
F00003F0
F00001F0
ENDCHAR
STARTCHAR 004F
ENCODING 79
SWIDTH 780 0
DWIDTH 39 0
BBX 33 37 3 -1
BITMAP
001FFC0000
00FFFF8000
01FFFFC000
07FFFFF000
0FF007F800
0FC001F800
1F80007C00
3F00007E00
3E00003E00
7C00001F00
7C00001F00
7C00001F00
7800000F00
F800000F80
F800000F80
F800000F80
F800000F80
F800000F80
F800000F80
F800000F80
F800000F80
F800000F80
F800000F80
7800000F00
7C00001F00
7C00001F00
7C00001F00
3E00003E00
3E00003E00
1F00007C00
1F8000FC00
0FE003F800
07FE3FF000
03FFFFE000
00FFFF8000
003FFE0000
0000800000
ENDCHAR
STARTCHAR 0050
ENCODING 80
SWIDTH 600 0
DWIDTH 30 0
BBX 23 36 5 0
BITMAP
FFF800
FFFF80
FFFFE0
FFFFF0
F00FF8
F001F8
F0007C
F0007C
F0003E
F0003E
F0003E
F0003E
F0003E
F0003C
F0007C
F0007C
F000F8
F003F8
FFFFF0
FFFFE0
FFFF80
FFFC00
F00000
F00000
F00000
F00000
F00000
F00000
F00000
F00000
F00000
F00000
F00000
F00000
F00000
F00000
ENDCHAR
STARTCHAR 0051
ENCODING 81
SWIDTH 780 0
DWIDTH 39 0
BBX 33 45 3 -9
BITMAP
001FFC0000
00FFFF8000
01FFFFC000
07FFFFF000
0FF007F800
0FC001F800
1F80007C00
3F00007E00
3E00003E00
7C00001F00
7C00001F00
7C00001F00
7800000F00
F800000F80
F800000F80
F800000F80
F800000F80
F800000F80
F800000F80
F800000F80
F800000F80
F800000F80
F800000F80
7800000F00
7C00001F00
7C00001F00
7C00001F00
3E00003E00
3E00003E00
1F00007C00
1F8000FC00
0FE003F800
07FE3FF000
03FFFFE000
00FFFF8000
003FFE0000
0000BE0000
00001F0000
00000F8000
00000FC000
000007E000
000003F000
000001F800
000000FC00
0000007E00
ENDCHAR
STARTCHAR 0052
ENCODING 82
SWIDTH 620 0
DWIDTH 31 0
BBX 25 36 5 0
BITMAP
FFF80000
FFFF8000
FFFFE000
FFFFF000
F00FF800
F000FC00
F0007C00
F0007C00
F0003E00
F0003E00
F0003E00
F0003E00
F0003E00
F0003C00
F0007C00
F000F800
F001F800
FFFFF000
FFFFE000
FFFF8000
FFFF0000
F00F0000
F00F8000
F007C000
F007C000
F003E000
F001F000
F001F000
F000F800
F000F800
F0007C00
F0007E00
F0003E00
F0001F00
F0001F00
F0000F80
ENDCHAR
STARTCHAR 0053
ENCODING 83
SWIDTH 540 0
DWIDTH 27 0
BBX 22 37 3 -1
BITMAP
01FF80
0FFFF8
1FFFF8
3FFFF8
7E00F0
7C0010
F80000
F80000
F80000
F80000
F80000
F80000
7C0000
7E0000
3F8000
3FE000
1FF800
07FF00
01FF80
007FE0
000FF0
0003F8
0001F8
00007C
00007C
00007C
00003C
00003C
00007C
00007C
0000F8
C001F8
FF3FF0
FFFFE0
FFFFC0
7FFF00
00C000
ENDCHAR
STARTCHAR 0054
ENCODING 84
SWIDTH 540 0
DWIDTH 27 0
BBX 27 36 0 0
BITMAP
FFFFFFE0
FFFFFFE0
FFFFFFE0
FFFFFFE0
000F0000
000F0000
000F0000
000F0000
000F0000
000F0000
000F0000
000F0000
000F0000
000F0000
000F0000
000F0000
000F0000
000F0000
000F0000
000F0000
000F0000
000F0000
000F0000
000F0000
000F0000
000F0000
000F0000
000F0000
000F0000
000F0000
000F0000
000F0000
000F0000
000F0000
000F0000
000F0000
ENDCHAR
STARTCHAR 0055
ENCODING 85
SWIDTH 720 0
DWIDTH 36 0
BBX 28 37 4 -1
BITMAP
F80000F0
F80000F0
F80000F0
F80000F0
F80000F0
F80000F0
F80000F0
F80000F0
F80000F0
F80000F0
F80000F0
F80000F0
F80000F0
F80000F0
F80000F0
F80000F0
F80000F0
F80000F0
F80000F0
F80000F0
F80000F0
F80000F0
F80000F0
F80000F0
780001F0
780001F0
780001F0
7C0001E0
7C0003E0
3E0003E0
3F0007C0
1F800FC0
0FF8FF80
07FFFF00
03FFFC00
00FFF000
00060000
ENDCHAR
STARTCHAR 0056
ENCODING 86
SWIDTH 600 0
DWIDTH 30 0
BBX 30 36 0 0
BITMAP
F800007C
F800007C
780000F8
7C0000F8
7C0000F8
3E0001F0
3E0001F0
1E0001E0
1F0003E0
1F0003E0
0F0003C0
0F8007C0
0F8007C0
07800780
07C00F80
07C00F80
03C00F00
03E01F00
03E01F00
01E03E00
01F03E00
00F03C00
00F87C00
00F87C00
00787800
007CF800
007CF800
003CF000
003CF000
003FF000
001FE000
001FE000
001FE000
000FC000
000FC000
00078000
ENDCHAR
STARTCHAR 0057
ENCODING 87
SWIDTH 920 0
DWIDTH 46 0
BBX 45 36 1 0
BITMAP
F0000F0000F8
F8001F8000F8
F8001F8000F0
F8001F8001F0
78003FC001F0
7C003FC001E0
7C003FC001E0
7C003FE003E0
3C0079E003E0
3E0079E003C0
3E0079E003C0
1E00F8F007C0
1E00F0F007C0
1F00F0F00780
1F00F0F80780
0F01F0780F80
0F01E0780F80
0F81E07C0F00
0F83E03C0F00
0783C03C1F00
0783C03E1E00
07C3C03E1E00
07C7C01E1E00
03C7801E3E00
03C7801F3C00
03EF800F3C00
01EF000F3C00
01EF000F7C00
01EF0007F800
01EE0007F800
00FE0007F800
00FE0007F800
00FE0003F000
00FC0003F000
007C0003F000
007C0001E000
ENDCHAR
STARTCHAR 0058
ENCODING 88
SWIDTH 580 0
DWIDTH 29 0
BBX 28 36 1 0
BITMAP
F80003E0
7C0003C0
7C0007C0
3E000F80
1F000F80
1F001F00
0F801E00
07803E00
07C07C00
03E07800
01E0F800
01F1F000
00F9E000
007BE000
007FC000
003F8000
003F8000
001F0000
003F8000
003FC000
007FC000
00FBE000
00F1F000
01F1F000
01E0F800
03C07800
07C07C00
07803E00
0F803E00
1F001F00
1E000F80
3E000F80
7C0007C0
7C0007E0
F80003E0
F00001F0
ENDCHAR
STARTCHAR 0059
ENCODING 89
SWIDTH 560 0
DWIDTH 28 0
BBX 28 36 0 0
BITMAP
F80001F0
7C0001F0
7C0003E0
3E0003E0
3E0007C0
1F000780
1F000F80
0F800F00
0F801F00
07C01E00
03C03E00
03E03C00
01E07C00
01F0F800
00F0F800
00F9F000
0079E000
007FE000
003FC000
003FC000
001F8000
001F8000
000F0000
000F0000
000F0000
000F0000
000F0000
000F0000
000F0000
000F0000
000F0000
000F0000
000F0000
000F0000
000F0000
000F0000
ENDCHAR
STARTCHAR 005A
ENCODING 90
SWIDTH 560 0
DWIDTH 28 0
BBX 25 36 2 0
BITMAP
FFFFFF00
FFFFFF00
FFFFFF00
FFFFFF00
00001F00
00003E00
00007C00
00007C00
0000F800
0001F000
0001F000
0003E000
0007C000
0007C000
000F8000
001F0000
001F0000
003E0000
007C0000
007C0000
00F80000
01F00000
01F00000
03E00000
07C00000
07C00000
0F800000
1F000000
1F000000
3E000000
7C000000
7C000000
FFFFFF80
FFFFFF80
FFFFFF80
FFFFFF80
ENDCHAR
STARTCHAR 005B
ENCODING 91
SWIDTH 320 0
DWIDTH 16 0
BBX 11 44 4 -8
BITMAP
FFE0
FFE0
FFE0
FFE0
F000
F000
F000
F000
F000
F000
F000
F000
F000
F000
F000
F000
F000
F000
F000
F000
F000
F000
F000
F000
F000
F000
F000
F000
F000
F000
F000
F000
F000
F000
F000
F000
F000
F000
F000
F000
FFE0
FFE0
FFE0
FFE0
ENDCHAR
STARTCHAR 005C
ENCODING 92
SWIDTH 360 0
DWIDTH 18 0
BBX 17 36 1 0
BITMAP
F00000
F00000
F80000
780000
780000
7C0000
3C0000
3C0000
1E0000
1E0000
1F0000
0F0000
0F0000
0F8000
078000
078000
03C000
03C000
03E000
01E000
01E000
01F000
00F000
00F000
007800
007800
007C00
003C00
003C00
003E00
001E00
001E00
001F00
000F00
000F80
000780
ENDCHAR
STARTCHAR 005D
ENCODING 93
SWIDTH 320 0
DWIDTH 16 0
BBX 11 44 1 -8
BITMAP
FFE0
FFE0
FFE0
FFE0
01E0
01E0
01E0
01E0
01E0
01E0
01E0
01E0
01E0
01E0
01E0
01E0
01E0
01E0
01E0
01E0
01E0
01E0
01E0
01E0
01E0
01E0
01E0
01E0
01E0
01E0
01E0
01E0
01E0
01E0
01E0
01E0
01E0
01E0
01E0
01E0
FFE0
FFE0
FFE0
FFE0
ENDCHAR
STARTCHAR 005E
ENCODING 94
SWIDTH 560 0
DWIDTH 28 0
BBX 25 23 2 13
BITMAP
00380000
003C0000
007C0000
007E0000
00FE0000
00EF0000
01E70000
01E78000
01C38000
03C3C000
0381C000
0781E000
0700E000
0F00F000
0E007000
1E007800
1E003C00
3C003C00
3C001E00
78001E00
78000F00
F0000F00
F0000780
ENDCHAR
STARTCHAR 005F
ENCODING 95
SWIDTH 440 0
DWIDTH 22 0
BBX 22 4 0 -8
BITMAP
FFFFFC
FFFFFC
FFFFFC
FFFFFC
ENDCHAR
STARTCHAR 0060
ENCODING 96
SWIDTH 280 0
DWIDTH 14 0
BBX 10 8 2 30
BITMAP
FC00
7C00
3E00
1E00
0F00
0780
03C0
01C0
ENDCHAR
STARTCHAR 0061
ENCODING 97
SWIDTH 560 0
DWIDTH 28 0
BBX 22 28 2 -1
BITMAP
01FF80
0FFFE0
1FFFF0
0FC3F8
0E00F8
00007C
00007C
00003C
00003C
00003C
00003C
00FFFC
07FFFC
1FFFFC
3FC03C
7E003C
7C003C
78003C
F8007C
F8007C
F8007C
F800FC
7C01FC
7E07BC
3FFFBC
1FFE3C
0FFC1C
008000
ENDCHAR
STARTCHAR 0062
ENCODING 98
SWIDTH 600 0
DWIDTH 30 0
BBX 24 39 4 -1
BITMAP
F80000
F80000
F80000
F80000
F80000
F80000
F80000
F80000
F80000
F80000
F80000
F87F80
F9FFE0
FBFFF0
F7E7F8
FF00FC
FE007C
FC003E
F8003E
F8001E
F8001F
F8001F
F8001F
F8001F
F8001F
F8001F
F8001F
F8001F
F8001F
F8001F
F8001E
FC003E
FC007E
FE00FC
FFC1F8
F7FFF8
F3FFE0
F0FFC0
000C00
ENDCHAR
STARTCHAR 0063
ENCODING 99
SWIDTH 480 0
DWIDTH 24 0
BBX 19 28 3 -1
BITMAP
01FFC0
07FFE0
0FFFE0
1FFFC0
3F0040
7E0000
7C0000
780000
F80000
F80000
F80000
F00000
F00000
F00000
F00000
F00000
F00000
F80000
F80000
F80000
7C0000
7E0000
3F0020
1FC3E0
1FFFE0
07FFE0
01FFC0
001800
ENDCHAR
STARTCHAR 0064
ENCODING 100
SWIDTH 600 0
DWIDTH 30 0
BBX 24 39 3 -1
BITMAP
00001F
00001F
00001F
00001F
00001F
00001F
00001F
00001F
00001F
00001F
00001F
01FE1F
07FF9F
1FFFDF
1FC7FF
3F00FF
7E007F
7C003F
78003F
F8001F
F8001F
F8001F
F0001F
F0001F
F0001F
F0001F
F0001F
F0001F
F8001F
F8001F
F8003F
7C003F
7C007F
3E00FF
3F83FF
1FFFDF
0FFF8F
03FF0F
002000
ENDCHAR
STARTCHAR 0065
ENCODING 101
SWIDTH 560 0
DWIDTH 28 0
BBX 23 28 3 -1
BITMAP
01FF00
07FFC0
0FFFE0
1FC7F0
3E00F8
3C00F8
7C007C
78007C
F8003C
F8003C
F0003E
FFFFFE
FFFFFE
FFFFFE
F00000
F00000
F00000
F80000
F80000
780000
7C0000
7E0000
3F0008
1FE1F8
0FFFF8
07FFF8
01FFF0
000C00
ENDCHAR
STARTCHAR 0066
ENCODING 102
SWIDTH 340 0
DWIDTH 17 0
BBX 18 38 1 0
BITMAP
007FC0
01FFC0
03FFC0
03F180
07C000
07C000
078000
078000
0F8000
0F8000
0F8000
1FFF00
FFFF00
FFFF00
FFFF00
0F8000
0F8000
0F8000
0F8000
0F8000
0F8000
0F8000
0F8000
0F8000
0F8000
0F8000
0F8000
0F8000
0F8000
0F8000
0F8000
0F8000
0F8000
0F8000
0F8000
0F8000
0F8000
0F8000
ENDCHAR
STARTCHAR 0067
ENCODING 103
SWIDTH 600 0
DWIDTH 30 0
BBX 24 39 3 -12
BITMAP
03FE0F
07FF8F
0FFFCF
1FCFFF
3F00FF
7E007F
7C003F
78003F
F8001F
F8001F
F8001F
F0001F
F0001F
F0001F
F0001F
F0001F
F0001F
F8001F
F8001F
F8001F
7C003F
7C003F
3E007F
3F83FF
1FFFDF
0FFF9F
03FF1F
00201F
00001E
00001E
00001E
00003E
00003E
00007C
3800FC
3FFFF8
3FFFF0
3FFFE0
03FF00
ENDCHAR
STARTCHAR 0068
ENCODING 104
SWIDTH 600 0
DWIDTH 30 0
BBX 23 38 4 0
BITMAP
F80000
F80000
F80000
F80000
F80000
F80000
F80000
F80000
F80000
F80000
F80000
F87FC0
F9FFF0
FBFFF8
F7E7FC
FF00FC
FE007C
FC003E
FC003E
F8003E
F8003E
F8003E
F8003E
F8003E
F8003E
F8003E
F8003E
F8003E
F8003E
F8003E
F8003E
F8003E
F8003E
F8003E
F8003E
F8003E
F8003E
F8003E
ENDCHAR
STARTCHAR 0069
ENCODING 105
SWIDTH 240 0
DWIDTH 12 0
BBX 5 37 4 0
BITMAP
70
F8
F8
F8
F8
70
00
00
00
00
F8
F8
F8
F8
F8
F8
F8
F8
F8
F8
F8
F8
F8
F8
F8
F8
F8
F8
F8
F8
F8
F8
F8
F8
F8
F8
F8
ENDCHAR
STARTCHAR 006A
ENCODING 106
SWIDTH 240 0
DWIDTH 12 0
BBX 12 49 -3 -12
BITMAP
00E0
01F0
01F0
01F0
01F0
00E0
0000
0000
0000
0000
01F0
01F0
01F0
01F0
01F0
01F0
01F0
01F0
01F0
01F0
01F0
01F0
01F0
01F0
01F0
01F0
01F0
01F0
01F0
01F0
01F0
01F0
01F0
01F0
01F0
01F0
01F0
01F0
01F0
01F0
01F0
01F0
01F0
01E0
03E0
FFE0
FFC0
FF80
FE00
ENDCHAR
STARTCHAR 006B
ENCODING 107
SWIDTH 520 0
DWIDTH 26 0
BBX 22 38 4 0
BITMAP
F80000
F80000
F80000
F80000
F80000
F80000
F80000
F80000
F80000
F80000
F80000
F800F8
F801F0
F803E0
F807C0
F80F80
F81F80
F83F00
F87E00
F8FC00
F8F800
F9F000
FBE000
F7E000
FFF000
FFF800
FEFC00
F87C00
F83E00
F81F00
F81F80
F80F80
F807C0
F803E0
F803F0
F801F0
F800F8
F8007C
ENDCHAR
STARTCHAR 006C
ENCODING 108
SWIDTH 240 0
DWIDTH 12 0
BBX 5 38 4 0
BITMAP
F8
F8
F8
F8
F8
F8
F8
F8
F8
F8
F8
F8
F8
F8
F8
F8
F8
F8
F8
F8
F8
F8
F8
F8
F8
F8
F8
F8
F8
F8
F8
F8
F8
F8
F8
F8
F8
F8
ENDCHAR
STARTCHAR 006D
ENCODING 109
SWIDTH 920 0
DWIDTH 46 0
BBX 39 27 4 0
BITMAP
F07F807FC0
F1FFE0FFF0
F3FFF3FFF8
F7EFF7F7FC
FF01FF80FC
FE00FE007C
FC007E003C
F8007C003E
F8007C003E
F8007C003E
F8007C003E
F8007C003E
F8007C003E
F8007C003E
F8007C003E
F8007C003E
F8007C003E
F8007C003E
F8007C003E
F8007C003E
F8007C003E
F8007C003E
F8007C003E
F8007C003E
F8007C003E
F8007C003E
F8007C003E
ENDCHAR
STARTCHAR 006E
ENCODING 110
SWIDTH 600 0
DWIDTH 30 0
BBX 23 27 4 0
BITMAP
F07FC0
F1FFF0
F3FFF8
F7E7FC
FF00FC
FE007C
FC003E
FC003E
F8003E
F8003E
F8003E
F8003E
F8003E
F8003E
F8003E
F8003E
F8003E
F8003E
F8003E
F8003E
F8003E
F8003E
F8003E
F8003E
F8003E
F8003E
F8003E
ENDCHAR
STARTCHAR 006F
ENCODING 111
SWIDTH 600 0
DWIDTH 30 0
BBX 25 28 3 -1
BITMAP
01FF8000
07FFE000
0FFFF000
1FE7F800
3F00FC00
3E003E00
7C003E00
78001F00
F8001F00
F8000F00
F8000F00
F0000F00
F0000F80
F0000F80
F0000F80
F0000F00
F0000F00
F8000F00
F8001F00
78001F00
7C003E00
3C003E00
3F007C00
1FC1FC00
0FFFF800
07FFE000
01FF8000
00180000
ENDCHAR
STARTCHAR 0070
ENCODING 112
SWIDTH 600 0
DWIDTH 30 0
BBX 24 39 4 -12
BITMAP
F07F80
F1FFE0
F3FFF0
F7E7F8
FF00FC
FE007C
FC003E
F8003E
F8001E
F8001F
F8001F
F8001F
F8001F
F8001F
F8001F
F8001F
F8001F
F8001F
F8001F
F8003E
FC003E
FC007E
FE00FC
FFC1F8
F7FFF0
F9FFE0
F8FFC0
F80C00
F80000
F80000
F80000
F80000
F80000
F80000
F80000
F80000
F80000
F80000
F80000
ENDCHAR
STARTCHAR 0071
ENCODING 113
SWIDTH 600 0
DWIDTH 30 0
BBX 24 39 3 -12
BITMAP
01FE0F
07FF8F
0FFFCF
1FC7FF
3F00FF
7E007F
7C003F
78003F
F8001F
F8001F
F8001F
F0001F
F0001F
F0001F
F0001F
F0001F
F0001F
F8001F
F8001F
F8003F
7C003F
7C007F
3E00FF
3F83FF
1FFFDF
0FFF9F
03FE1F
00201F
00001F
00001F
00001F
00001F
00001F
00001F
00001F
00001F
00001F
00001F
00001F
ENDCHAR
STARTCHAR 0072
ENCODING 114
SWIDTH 400 0
DWIDTH 20 0
BBX 16 27 4 0
BITMAP
F07F
F0FF
F1FF
F3FE
F780
FF00
FE00
FC00
F800
F800
F800
F800
F800
F800
F800
F800
F800
F800
F800
F800
F800
F800
F800
F800
F800
F800
F800
ENDCHAR
STARTCHAR 0073
ENCODING 115
SWIDTH 460 0
DWIDTH 23 0
BBX 19 28 3 -1
BITMAP
0FFE00
3FFFC0
7FFFC0
FE0F80
F80180
F00000
F00000
F00000
F00000
FC0000
7F0000
3FC000
1FF800
07FE00
01FF00
003F80
000FC0
0007C0
0003E0
0003E0
0003E0
0003E0
8007C0
F00FC0
FFFF80
FFFF00
7FFC00
018000
ENDCHAR
STARTCHAR 0074
ENCODING 116
SWIDTH 360 0
DWIDTH 18 0
BBX 16 34 1 -1
BITMAP
0700
0700
0700
0F00
0F00
0F00
3FFF
FFFF
FFFF
FFFF
0F00
0F00
0F00
0F00
0F00
0F00
0F00
0F00
0F00
0F00
0F00
0F00
0F00
0F00
0F00
0F00
0F00
0F00
0F80
0FC1
07FF
03FF
01FF
0010
ENDCHAR
STARTCHAR 0075
ENCODING 117
SWIDTH 600 0
DWIDTH 30 0
BBX 23 28 4 -1
BITMAP
F0003E
F0003E
F0003E
F0003E
F0003E
F0003E
F0003E
F0003E
F0003E
F0003E
F0003E
F0003E
F0003E
F0003E
F0003E
F0003E
F0003E
F0003E
F0003E
F8007E
F8007E
F800FE
7C01FE
7F07FE
3FFF9E
1FFF1E
0FFE1E
004000
ENDCHAR
STARTCHAR 0076
ENCODING 118
SWIDTH 500 0
DWIDTH 25 0
BBX 25 27 0 0
BITMAP
F8000780
F8000F80
7C000F80
7C000F00
3C001F00
3E001E00
3E003E00
1E003E00
1F003C00
0F007C00
0F007C00
0F807800
0780F800
07C0F000
07C0F000
03C1F000
03E1E000
01E3E000
01E3C000
01F3C000
00F7C000
00F78000
00F78000
007F8000
007F0000
003F0000
003E0000
ENDCHAR
STARTCHAR 0077
ENCODING 119
SWIDTH 780 0
DWIDTH 39 0
BBX 38 27 1 0
BITMAP
F000F8007C
F000FC0078
F800FC0078
F801FC00F8
7801FC00F8
7801DE00F0
7C03DE00F0
3C03DE01F0
3C03CF01E0
3E078F01E0
3E078F01E0
1E078F83E0
1E0F8783C0
1F0F0783C0
1F0F0787C0
0F1F03C780
0F1E03C780
0F9E03C780
079E01EF80
07BC01EF00
07BC01EF00
07BC01EF00
03F800FF00
03F800FE00
03F800FE00
01F0007E00
01F0007C00
ENDCHAR
STARTCHAR 0078
ENCODING 120
SWIDTH 520 0
DWIDTH 26 0
BBX 24 27 1 0
BITMAP
7C001F
7C003E
3E003C
1F007C
1F00F8
0F81F0
07C1F0
07C3E0
03E7C0
01F7C0
00FF80
00FF00
007E00
007E00
007F00
00FF00
01FF80
01E7C0
03E3C0
07C3E0
0F81F0
0F80F8
1F00F8
3E007C
3E003E
7C001E
F8001F
ENDCHAR
STARTCHAR 0079
ENCODING 121
SWIDTH 500 0
DWIDTH 25 0
BBX 25 39 0 -12
BITMAP
F8000780
78000F80
7C000F80
7C000F00
3C001F00
3E001F00
1E003E00
1F003E00
1F003C00
0F007C00
0F807C00
07807800
0780F800
07C0F000
03C0F000
03E1F000
01E1E000
01E1E000
01F3E000
00F3C000
00F3C000
007F8000
007F8000
007F8000
003F0000
003F0000
001F0000
001E0000
003E0000
003C0000
003C0000
007C0000
00780000
00F80000
01F00000
7FE00000
7FE00000
7F800000
7F000000
ENDCHAR
STARTCHAR 007A
ENCODING 122
SWIDTH 460 0
DWIDTH 23 0
BBX 20 27 2 0
BITMAP
7FFFE0
7FFFE0
7FFFE0
7FFFE0
0003E0
0007C0
000F80
000F00
001F00
003E00
007C00
007C00
00F800
01F000
01E000
03E000
07C000
078000
0F8000
1F0000
3E0000
3C0000
7C0000
F80000
FFFFF0
FFFFF0
FFFFF0
ENDCHAR
STARTCHAR 007B
ENCODING 123
SWIDTH 380 0
DWIDTH 19 0
BBX 16 44 1 -8
BITMAP
0003
001F
007F
00FF
01F8
01F0
01E0
03E0
03E0
03E0
03E0
03E0
03E0
03E0
03E0
03E0
03E0
03E0
03C0
0FC0
FF80
FE00
FE00
FF80
0FC0
07C0
03E0
03E0
03E0
03E0
03E0
03E0
03E0
03E0
03E0
03E0
01E0
01E0
01F0
01F8
00FF
007F
003F
0007
ENDCHAR
STARTCHAR 007C
ENCODING 124
SWIDTH 540 0
DWIDTH 27 0
BBX 4 50 12 -12
BITMAP
F0
F0
F0
F0
F0
F0
F0
F0
F0
F0
F0
F0
F0
F0
F0
F0
F0
F0
F0
F0
F0
F0
F0
F0
F0
F0
F0
F0
F0
F0
F0
F0
F0
F0
F0
F0
F0
F0
F0
F0
F0
F0
F0
F0
F0
F0
F0
F0
F0
F0
ENDCHAR
STARTCHAR 007D
ENCODING 125
SWIDTH 380 0
DWIDTH 19 0
BBX 16 44 2 -8
BITMAP
C000
FC00
FE00
FF00
1F80
0F80
0780
0780
07C0
07C0
07C0
07C0
07C0
07C0
07C0
07C0
07C0
07C0
03C0
03F0
01FF
007F
003F
01FF
03F0
03C0
07C0
07C0
07C0
07C0
07C0
07C0
07C0
07C0
07C0
07C0
0780
0780
0F80
1F80
FF00
FE00
FC00
E000
ENDCHAR
STARTCHAR 007E
ENCODING 126
SWIDTH 560 0
DWIDTH 28 0
BBX 24 7 2 14
BITMAP
0FC000
3FF803
7FFE07
FFFFFF
E03FFE
C00FFC
800070
ENDCHAR
STARTCHAR 00A0
ENCODING 160
SWIDTH 260 0
DWIDTH 13 0
BBX 0 0 0 0
BITMAP
ENDCHAR
STARTCHAR 00A1
ENCODING 161
SWIDTH 260 0
DWIDTH 13 0
BBX 6 36 4 -9
BITMAP
78
FC
FC
FC
FC
F8
00
00
00
00
70
70
70
70
70
70
70
70
70
78
78
78
78
78
78
F8
F8
F8
F8
F8
F8
F8
F8
F8
F8
F8
ENDCHAR
STARTCHAR 00A2
ENCODING 162
SWIDTH 560 0
DWIDTH 28 0
BBX 19 37 5 -1
BITMAP
007800
007800
007800
007800
01FF80
07FFE0
1FFFE0
3FFFC0
3F0040
7E0000
7C0000
F80000
F80000
F00000
F00000
F00000
F00000
F00000
F00000
F00000
F00000
F00000
F80000
F80000
F80000
7C0000
7E0020
3FC3E0
1FFFE0
0FFFE0
03FFC0
007C00
007800
007800
007800
007800
007800
ENDCHAR
STARTCHAR 00A3
ENCODING 163
SWIDTH 560 0
DWIDTH 28 0
BBX 25 36 2 0
BITMAP
003FF000
00FFFE00
01FFFE00
03FFFE00
03E00C00
07C00000
07800000
07800000
07800000
07800000
07800000
07800000
07800000
07800000
07800000
07800000
07800000
FFFFE000
FFFFE000
FFFFE000
07800000
07800000
07800000
07800000
07800000
07800000
0F800000
0F800000
0F800000
0F000000
1E000000
3C000000
FFFFFF80
FFFFFF80
FFFFFF80
FFFFFF80
ENDCHAR
STARTCHAR 00A4
ENCODING 164
SWIDTH 560 0
DWIDTH 28 0
BBX 23 22 3 6
BITMAP
200008
70001C
F9FE3E
7FFFFC
3FFFF8
1F03F0
1E00F0
3C0070
380078
380038
380038
780038
380038
380078
3C0078
3C00F0
1E01F0
1F87F0
3FFFF8
7FFFFC
F8FE3C
700018
ENDCHAR
STARTCHAR 00A5
ENCODING 165
SWIDTH 560 0
DWIDTH 28 0
BBX 27 36 1 0
BITMAP
F00003E0
F80003C0
780007C0
7C000780
3C000F80
3E000F00
1F001E00
0F003E00
0F803C00
07807C00
07C07800
03C0F800
03E0F000
01E1F000
01F1E000
00F3E000
00FBC000
007FC000
007F8000
0FFFFE00
0FFFFE00
0FFFFE00
001E0000
001E0000
001E0000
001E0000
0FFFFE00
0FFFFE00
0FFFFE00
0FFFFE00
001E0000
001E0000
001E0000
001E0000
001E0000
001E0000
ENDCHAR
STARTCHAR 00A6
ENCODING 166
SWIDTH 540 0
DWIDTH 27 0
BBX 4 50 12 -12
BITMAP
F0
F0
F0
F0
F0
F0
F0
F0
F0
F0
F0
F0
F0
F0
F0
F0
F0
F0
F0
00
00
00
00
00
00
00
00
00
00
00
00
F0
F0
F0
F0
F0
F0
F0
F0
F0
F0
F0
F0
F0
F0
F0
F0
F0
F0
F0
ENDCHAR
STARTCHAR 00A7
ENCODING 167
SWIDTH 500 0
DWIDTH 25 0
BBX 19 38 3 0
BITMAP
07FF00
1FFFE0
3FFFC0
7E07C0
780040
780000
780000
780000
7C0000
7F0000
3FC000
0FF800
1FFE00
3FFF00
7C1FC0
7807C0
F003E0
F001E0
F001E0
F800E0
7801E0
7E01E0
3F03E0
1FE7C0
0FFF80
03FF00
007F80
001FC0
0007E0
0003E0
0001E0
0001E0
0001E0
C003E0
F80FC0
FFFF80
FFFF00
3FFC00
ENDCHAR
STARTCHAR 00A8
ENCODING 168
SWIDTH 580 0
DWIDTH 29 0
BBX 14 4 7 33
BITMAP
783C
F83C
F83C
783C
ENDCHAR
STARTCHAR 00A9
ENCODING 169
SWIDTH 820 0
DWIDTH 41 0
BBX 37 37 2 -1
BITMAP
0007FF0000
001FFFE000
007FDFF800
01F8007C00
03E0001E00
0780000F00
0F00000780
0E00FE03C0
1C03FFC1E0
3C07FF80E0
380FC780F0
381F000070
701E000070
703E000038
703C000038
603C000038
E03C000038
E03C000038
E03C000038
E03C000038
603C000038
703C000038
703C000038
701E000070
781E000070
380F818070
3C0FFF80E0
1C07FF81E0
1E01FF01C0
0F000003C0
0780000780
03C0001F00
01F0007E00
00FE03F800
003FFFF000
000FFF8000
0000300000
ENDCHAR
STARTCHAR 00AA
ENCODING 170
SWIDTH 340 0
DWIDTH 17 0
BBX 13 17 2 19
BITMAP
1FC0
7FF0
7FF8
0038
0038
0038
0038
1FF8
7FF8
F038
E038
E038
E038
E078
FFF8
7F98
3E18
ENDCHAR
STARTCHAR 00AB
ENCODING 171
SWIDTH 500 0
DWIDTH 25 0
BBX 21 21 2 3
BITMAP
008020
00C030
01E078
03E0F0
07C1F0
0F83E0
1F07C0
3E0F80
3C0F00
7C1F00
F83E00
F83E00
7C1F00
3E0F80
1F07C0
0F03C0
0F83E0
07C1F0
03E0F8
01E078
00C030
ENDCHAR
STARTCHAR 00AC
ENCODING 172
SWIDTH 560 0
DWIDTH 28 0
BBX 24 13 2 6
BITMAP
FFFFFF
FFFFFF
FFFFFF
00000F
00000F
00000F
00000F
00000F
00000F
00000F
00000F
00000F
00000F
ENDCHAR
STARTCHAR 00AD
ENCODING 173
SWIDTH 320 0
DWIDTH 16 0
BBX 12 4 2 11
BITMAP
FFF0
FFF0
FFF0
FFF0
ENDCHAR
STARTCHAR 00AE
ENCODING 174
SWIDTH 820 0
DWIDTH 41 0
BBX 37 37 2 -1
BITMAP
0007FF0000
001FFFE000
007FDFF800
01F8007C00
03E0001E00
0780000F00
0F00000780
0E0FF803C0
1C0FFF01E0
3C0FFF80E0
380F1FC0F0
380F03C070
700F03C070
700F03C038
700F03C038
600F03C038
E00F07C038
E00FFF8038
E00FFF0038
E00FFC0038
600F1E0038
700F1F0038
700F0F0038
700F078070
780F078070
380F03C070
3C0F03E0E0
1C0F01E1E0
1E0F01F1C0
0F000003C0
0780000780
03C0001F00
01F0007E00
00FE03F800
003FFFF000
000FFF8000
0000300000
ENDCHAR
STARTCHAR 00AF
ENCODING 175
SWIDTH 500 0
DWIDTH 25 0
BBX 25 3 0 38
BITMAP
FFFFFF80
FFFFFF80
FFFFFF80
ENDCHAR
STARTCHAR 00B0
ENCODING 176
SWIDTH 420 0
DWIDTH 21 0
BBX 16 15 3 21
BITMAP
0FE0
3FF8
7FFC
781E
F00E
E00E
E00F
E00F
E00F
E00E
F00E
781E
7FFC
3FF8
0FE0
ENDCHAR
STARTCHAR 00B1
ENCODING 177
SWIDTH 560 0
DWIDTH 28 0
BBX 24 30 2 0
BITMAP
003C00
003C00
003C00
003C00
003C00
003C00
003C00
003C00
003C00
003C00
FFFFFF
FFFFFF
FFFFFF
FFFFFF
003C00
003C00
003C00
003C00
003C00
003C00
003C00
003C00
003C00
003C00
000000
000000
FFFFFF
FFFFFF
FFFFFF
FFFFFF
ENDCHAR
STARTCHAR 00B2
ENCODING 178
SWIDTH 340 0
DWIDTH 17 0
BBX 14 22 1 21
BITMAP
0380
1FF0
7FF8
7C7C
303C
001C
001C
001C
003C
003C
0078
00F0
01E0
03C0
0780
0F00
1E00
3C00
7800
FFFC
FFFC
FFFC
ENDCHAR
STARTCHAR 00B3
ENCODING 179
SWIDTH 340 0
DWIDTH 17 0
BBX 15 23 1 20
BITMAP
0700
3FF0
FFF8
F87C
603C
001C
001C
001C
003C
00F8
1FF0
1FF0
1FFC
003C
001E
001E
001E
001E
803E
F87C
FFF8
FFF0
0600
ENDCHAR
STARTCHAR 00B4
ENCODING 180
SWIDTH 280 0
DWIDTH 14 0
BBX 10 8 2 30
BITMAP
0FC0
0F80
1F00
3E00
3C00
7800
F000
E000
ENDCHAR
STARTCHAR 00B5
ENCODING 181
SWIDTH 620 0
DWIDTH 31 0
BBX 23 39 4 -12
BITMAP
F8003E
F8003E
F8003E
F8003E
F8003E
F8003E
F8003E
F8003E
F8003E
F8003E
F8003E
F8003E
F8003E
F8003E
F8003E
F8003E
F8003E
F8003E
F8003E
F8003E
F8007E
FC007E
FC00FE
FF07DE
FFFFDE
F7FF9E
F3FE1E
F82000
F80000
F80000
F80000
F80000
F80000
F80000
F80000
F80000
F80000
F80000
F80000
ENDCHAR
STARTCHAR 00B6
ENCODING 182
SWIDTH 640 0
DWIDTH 32 0
BBX 24 44 3 -6
BITMAP
01FFFF
0FFFFF
1FFFFF
3FFF03
7FFF03
7FFF03
7FFF03
FFFF03
FFFF03
FFFF03
FFFF03
FFFF03
FFFF03
FFFF03
FFFF03
FFFF03
FFFF03
FFFF03
FFFF03
7FFF03
7FFF03
3FFF03
1FFF03
0FFF03
01FB03
000303
000303
000303
000303
000303
000303
000303
000303
000303
000303
000303
000303
000303
000303
000303
000303
000303
000303
000303
ENDCHAR
STARTCHAR 00B7
ENCODING 183
SWIDTH 260 0
DWIDTH 13 0
BBX 6 7 4 14
BITMAP
78
F8
FC
FC
FC
F8
70
ENDCHAR
STARTCHAR 00B8
ENCODING 184
SWIDTH 220 0
DWIDTH 11 0
BBX 10 12 1 -12
BITMAP
1C00
1C00
3800
3E00
1F80
0780
03C0
03C0
0780
FF80
FF00
FC00
ENDCHAR
STARTCHAR 00B9
ENCODING 185
SWIDTH 340 0
DWIDTH 17 0
BBX 10 21 2 21
BITMAP
07C0
0FC0
1FC0
7DC0
F9C0
63C0
43C0
03C0
03C0
03C0
03C0
03C0
03C0
03C0
03C0
03C0
03C0
03C0
03C0
03C0
03C0
ENDCHAR
STARTCHAR 00BA
ENCODING 186
SWIDTH 360 0
DWIDTH 18 0
BBX 15 17 2 19
BITMAP
0FE0
3FF0
7FFC
703C
F01E
E00E
E00E
E00E
E00E
E00E
E00E
E00E
F01C
783C
3FF8
1FF0
07C0
ENDCHAR
STARTCHAR 00BB
ENCODING 187
SWIDTH 500 0
DWIDTH 25 0
BBX 21 20 2 4
BITMAP
701C00
F83E00
7C1F00
3C0F00
1E0F80
1F07C0
0F83E0
07C1F0
03E0F8
01F078
03E0F8
03C1F0
07C1E0
0F83E0
1F07C0
3E0F80
7C1F00
781E00
F03C00
300C00
ENDCHAR
STARTCHAR 00BC
ENCODING 188
SWIDTH 740 0
DWIDTH 37 0
BBX 35 36 2 0
BITMAP
03C0003C00
0FC0007800
1FC0007800
3FC000F000
FBC000E000
F3C001E000
63C003C000
03C0038000
03C0078000
03C00F0000
03C00F0000
03C01E0000
03C01C0000
03C03C0000
03C0780F00
03C0781F00
03C0F01F00
03C0E03F00
03C1E07F00
03C3C07F00
03C3C0EF00
03C781CF00
000703CF00
000F038F00
001E070F00
001C0F0F00
003C0E0F00
00781C0F00
00783FFFE0
00F03FFFE0
00E03FFFE0
01E0000F00
03C0000F00
03C0000F00
0780000F00
0700000F00
ENDCHAR
STARTCHAR 00BD
ENCODING 189
SWIDTH 760 0
DWIDTH 38 0
BBX 34 36 2 0
BITMAP
078000F000
0F8000F000
3F8001E000
7F8001C000
FB8003C000
E380078000
C380078000
03800F0000
03800E0000
03801E0000
03803C0000
03803C0000
0380780000
0380700000
0380F07C00
0381E3FF00
0381C7FF80
0383C787C0
03878203C0
03878001C0
038F0001C0
038E0001C0
001E0003C0
003C0003C0
003C000780
0078000F00
0070001E00
00F0003C00
01E0007800
01E000F000
03C001E000
038003C000
0780078000
0F000FFFC0
0E000FFFC0
1E000FFFC0
ENDCHAR
STARTCHAR 00BE
ENCODING 190
SWIDTH 780 0
DWIDTH 39 0
BBX 38 36 1 0
BITMAP
1FE0000780
7FF8000700
FFF8000F00
703C001E00
003C001C00
001C003C00
001C003800
003C007800
007800F000
1FF000E000
1FE001E000
1FF803C000
007C03C000
001E078000
001E0701E0
001E0F03E0
001E1E07E0
001E1E07E0
C03C3C0FE0
FFFC381DE0
FFF8781DE0
3FE0F039E0
0000F071E0
0001E071E0
0001C0E1E0
0003C1C1E0
000783C1E0
00070381E0
000F07FFFC
001E07FFFC
001E07FFFC
003C0001E0
00380001E0
00780001E0
00F00001E0
00F00001E0
ENDCHAR
STARTCHAR 00BF
ENCODING 191
SWIDTH 420 0
DWIDTH 21 0
BBX 20 37 1 -10
BITMAP
007C00
007E00
007E00
007E00
007E00
007C00
000000
000000
000000
000000
003C00
003C00
003C00
003C00
007800
007800
00F800
01F000
03E000
07C000
0F8000
1F0000
3E0000
7C0000
780000
F80000
F80000
F00000
F00000
F80000
780000
7C00E0
7F07E0
3FFFF0
1FFFE0
07FF80
007000
ENDCHAR
STARTCHAR 00C0
ENCODING 192
SWIDTH 620 0
DWIDTH 31 0
BBX 32 47 0 0
BITMAP
003E0000
003F0000
001F0000
000F8000
00078000
0003C000
0001E000
0000E000
00000000
00000000
00000000
0003C000
0007E000
0007E000
0007E000
000FF000
000FF000
001EF000
001E7800
001E7800
003E7C00
003C3C00
003C3C00
00783E00
00781E00
00F81F00
00F00F00
00F00F00
01F00F80
01E00780
03E007C0
03C007C0
03FFFFC0
07FFFFE0
07FFFFE0
0FFFFFE0
0F8001F0
0F0000F0
1F0000F8
1E0000F8
1E000078
3E00007C
3C00003C
7C00003E
7C00003E
7800001E
F800001F
ENDCHAR
STARTCHAR 00C1
ENCODING 193
SWIDTH 620 0
DWIDTH 31 0
BBX 32 47 0 0
BITMAP
00003E00
00007C00
0000FC00
0000F800
0001F000
0003E000
0003C000
00078000
00000000
00000000
00000000
0003C000
0007E000
0007E000
0007E000
000FF000
000FF000
001EF000
001E7800
001E7800
003E7C00
003C3C00
003C3C00
00783E00
00781E00
00F81F00
00F00F00
00F00F00
01F00F80
01E00780
03E007C0
03C007C0
03FFFFC0
07FFFFE0
07FFFFE0
0FFFFFE0
0F8001F0
0F0000F0
1F0000F8
1E0000F8
1E000078
3E00007C
3C00003C
7C00003E
7C00003E
7800001E
F800001F
ENDCHAR
STARTCHAR 00C2
ENCODING 194
SWIDTH 620 0
DWIDTH 31 0
BBX 32 47 0 0
BITMAP
0007E000
000FE000
000FF000
001FF800
003E7C00
00783E00
00F01F00
01E00700
00000000
00000000
00000000
0003C000
0007E000
0007E000
0007E000
000FF000
000FF000
001EF000
001E7800
001E7800
003E7C00
003C3C00
003C3C00
00783E00
00781E00
00F81F00
00F00F00
00F00F00
01F00F80
01E00780
03E007C0
03C007C0
03FFFFC0
07FFFFE0
07FFFFE0
0FFFFFE0
0F8001F0
0F0000F0
1F0000F8
1E0000F8
1E000078
3E00007C
3C00003C
7C00003E
7C00003E
7800001E
F800001F
ENDCHAR
STARTCHAR 00C3
ENCODING 195
SWIDTH 620 0
DWIDTH 31 0
BBX 32 46 0 0
BITMAP
00080180
007F0380
00FFC380
00FFFF00
01C3FF00
01C0FE00
01803800
00000000
00000000
00000000
0003C000
0007E000
0007E000
0007E000
000FF000
000FF000
001EF000
001E7800
001E7800
003E7C00
003C3C00
003C3C00
00783E00
00781E00
00F81F00
00F00F00
00F00F00
01F00F80
01E00780
03E007C0
03C007C0
03FFFFC0
07FFFFE0
07FFFFE0
0FFFFFE0
0F8001F0
0F0000F0
1F0000F8
1E0000F8
1E000078
3E00007C
3C00003C
7C00003E
7C00003E
7800001E
F800001F
ENDCHAR
STARTCHAR 00C4
ENCODING 196
SWIDTH 620 0
DWIDTH 31 0
BBX 32 45 0 0
BITMAP
00781E00
007C3E00
007C3E00
00781E00
00100800
00000000
00000000
00000000
00000000
0003C000
0007E000
0007E000
0007E000
000FF000
000FF000
001EF000
001E7800
001E7800
003E7C00
003C3C00
003C3C00
00783E00
00781E00
00F81F00
00F00F00
00F00F00
01F00F80
01E00780
03E007C0
03C007C0
03FFFFC0
07FFFFE0
07FFFFE0
0FFFFFE0
0F8001F0
0F0000F0
1F0000F8
1E0000F8
1E000078
3E00007C
3C00003C
7C00003E
7C00003E
7800001E
F800001F
ENDCHAR
STARTCHAR 00C5
ENCODING 197
SWIDTH 620 0
DWIDTH 31 0
BBX 32 44 0 0
BITMAP
0003C000
000FF000
001FF800
001C3800
00381800
00381800
00383800
001C3800
001FF800
000FF000
0007E000
0007E000
000FF000
000FF000
001EF000
001E7800
001E7800
003E7C00
003C3C00
003C3C00
00783E00
00781E00
00F81F00
00F00F00
00F00F00
01F00F80
01E00780
03E007C0
03C007C0
03FFFFC0
07FFFFE0
07FFFFE0
0FFFFFE0
0F8001F0
0F0000F0
1F0000F8
1E0000F8
1E000078
3E00007C
3C00003C
7C00003E
7C00003E
7800001E
F800001F
ENDCHAR
STARTCHAR 00C6
ENCODING 198
SWIDTH 880 0
DWIDTH 44 0
BBX 41 36 0 0
BITMAP
00007FFFFF80
0000FFFFFF80
0000FFFFFF80
0001FFFFFF80
0001E3E00000
0003E3E00000
0003E3E00000
0007C3E00000
0007C3E00000
000783E00000
000F83E00000
000F03E00000
001F03E00000
001E03E00000
003E03E00000
003C03FFFF00
007C03FFFF00
007803FFFF00
00F803FFFF00
00F003E00000
01F003E00000
01FFFFE00000
03FFFFE00000
03FFFFE00000
07FFFFE00000
07C003E00000
0F8003E00000
0F8003E00000
1F0003E00000
1F0003E00000
1E0003E00000
3E0003E00000
3C0003FFFF80
7C0003FFFF80
780003FFFF80
F80003FFFF80
ENDCHAR
STARTCHAR 00C7
ENCODING 199
SWIDTH 620 0
DWIDTH 31 0
BBX 27 48 3 -12
BITMAP
000FFE00
007FFFC0
01FFFFE0
03FFFFC0
07F803C0
0FC00000
1F800000
1F000000
3E000000
3E000000
7C000000
7C000000
7C000000
F8000000
F8000000
F8000000
F8000000
F8000000
F8000000
F8000000
F8000000
F8000000
F8000000
78000000
7C000000
7C000000
7C000000
3E000000
3F000000
1F800000
1FC00000
0FF000C0
07FFBFC0
03FFFFC0
00FFFFC0
003FFF00
0003C000
00038000
00070000
0007E000
0003F000
0000F000
00007800
00007800
00007000
001FF000
001FE000
001F8000
ENDCHAR
STARTCHAR 00C8
ENCODING 200
SWIDTH 540 0
DWIDTH 27 0
BBX 20 47 5 0
BITMAP
0F8000
07C000
07E000
03E000
01F000
00F800
007800
003C00
000000
000000
000000
FFFFF0
FFFFF0
FFFFF0
FFFFF0
F00000
F00000
F00000
F00000
F00000
F00000
F00000
F00000
F00000
F00000
F00000
FFFFE0
FFFFE0
FFFFE0
FFFFE0
F00000
F00000
F00000
F00000
F00000
F00000
F00000
F00000
F00000
F00000
F00000
F00000
F00000
FFFFF0
FFFFF0
FFFFF0
FFFFF0
ENDCHAR
STARTCHAR 00C9
ENCODING 201
SWIDTH 540 0
DWIDTH 27 0
BBX 20 47 5 0
BITMAP
000FC0
001F80
001F00
003E00
007C00
007800
00F000
00E000
000000
000000
000000
FFFFF0
FFFFF0
FFFFF0
FFFFF0
F00000
F00000
F00000
F00000
F00000
F00000
F00000
F00000
F00000
F00000
F00000
FFFFE0
FFFFE0
FFFFE0
FFFFE0
F00000
F00000
F00000
F00000
F00000
F00000
F00000
F00000
F00000
F00000
F00000
F00000
F00000
FFFFF0
FFFFF0
FFFFF0
FFFFF0
ENDCHAR
STARTCHAR 00CA
ENCODING 202
SWIDTH 540 0
DWIDTH 27 0
BBX 20 47 5 0
BITMAP
01F800
01FC00
03FC00
07FE00
0F9F00
1F0F80
3E03C0
3801E0
000000
000000
000000
FFFFF0
FFFFF0
FFFFF0
FFFFF0
F00000
F00000
F00000
F00000
F00000
F00000
F00000
F00000
F00000
F00000
F00000
FFFFE0
FFFFE0
FFFFE0
FFFFE0
F00000
F00000
F00000
F00000
F00000
F00000
F00000
F00000
F00000
F00000
F00000
F00000
F00000
FFFFF0
FFFFF0
FFFFF0
FFFFF0
ENDCHAR
STARTCHAR 00CB
ENCODING 203
SWIDTH 540 0
DWIDTH 27 0
BBX 20 45 5 0
BITMAP
0F0780
1F0780
1F0780
0F0780
040000
000000
000000
000000
000000
FFFFF0
FFFFF0
FFFFF0
FFFFF0
F00000
F00000
F00000
F00000
F00000
F00000
F00000
F00000
F00000
F00000
F00000
FFFFE0
FFFFE0
FFFFE0
FFFFE0
F00000
F00000
F00000
F00000
F00000
F00000
F00000
F00000
F00000
F00000
F00000
F00000
F00000
FFFFF0
FFFFF0
FFFFF0
FFFFF0
ENDCHAR
STARTCHAR 00CC
ENCODING 204
SWIDTH 320 0
DWIDTH 16 0
BBX 13 47 2 0
BITMAP
FC00
7C00
3E00
1E00
0F00
0780
03C0
01C0
0000
0000
0000
FFF8
FFF8
FFF8
3FC0
0F80
0F80
0F80
0F80
0F80
0F80
0F80
0F80
0F80
0F80
0F80
0F80
0F80
0F80
0F80
0F80
0F80
0F80
0F80
0F80
0F80
0F80
0F80
0F80
0F80
0F80
0F80
0F80
0F80
FFF8
FFF8
FFF8
ENDCHAR
STARTCHAR 00CD
ENCODING 205
SWIDTH 320 0
DWIDTH 16 0
BBX 14 47 2 0
BITMAP
00FC
00F8
01F0
03E0
03C0
0780
0F00
0E00
0000
0000
0000
FFF8
FFF8
FFF8
3FC0
0F80
0F80
0F80
0F80
0F80
0F80
0F80
0F80
0F80
0F80
0F80
0F80
0F80
0F80
0F80
0F80
0F80
0F80
0F80
0F80
0F80
0F80
0F80
0F80
0F80
0F80
0F80
0F80
0F80
FFF8
FFF8
FFF8
ENDCHAR
STARTCHAR 00CE
ENCODING 206
SWIDTH 320 0
DWIDTH 16 0
BBX 17 47 0 0
BITMAP
03E000
07F000
0FF800
1F7800
1E3C00
3C1E00
780F00
F00780
000000
000000
000000
3FFE00
3FFE00
3FFE00
0FF000
03E000
03E000
03E000
03E000
03E000
03E000
03E000
03E000
03E000
03E000
03E000
03E000
03E000
03E000
03E000
03E000
03E000
03E000
03E000
03E000
03E000
03E000
03E000
03E000
03E000
03E000
03E000
03E000
03E000
3FFE00
3FFE00
3FFE00
ENDCHAR
STARTCHAR 00CF
ENCODING 207
SWIDTH 320 0
DWIDTH 16 0
BBX 14 45 2 0
BITMAP
F078
F07C
F07C
F078
0000
0000
0000
0000
0000
FFF8
FFF8
FFF8
3FC0
0F80
0F80
0F80
0F80
0F80
0F80
0F80
0F80
0F80
0F80
0F80
0F80
0F80
0F80
0F80
0F80
0F80
0F80
0F80
0F80
0F80
0F80
0F80
0F80
0F80
0F80
0F80
0F80
0F80
FFF8
FFF8
FFF8
ENDCHAR
STARTCHAR 00D0
ENCODING 208
SWIDTH 720 0
DWIDTH 36 0
BBX 32 36 1 0
BITMAP
0FFFC000
0FFFFC00
0FFFFF80
0FFFFFC0
0F803FE0
0F8007F0
0F8001F8
0F8000FC
0F80007C
0F80003E
0F80003E
0F80001F
0F80001F
0F80001F
0F80001F
0F80000F
FFFFC00F
FFFFC00F
FFFFC00F
FFFFC00F
0F80000F
0F80001F
0F80001F
0F80001F
0F80001F
0F80003E
0F80003E
0F80007C
0F8000FC
0F8001F8
0F8007F0
0F801FE0
0FFFFFC0
0FFFFF80
0FFFFE00
0FFFE000
ENDCHAR
STARTCHAR 00D1
ENCODING 209
SWIDTH 760 0
DWIDTH 38 0
BBX 28 46 5 0
BITMAP
00300600
01FC0E00
03FF0E00
03FFFC00
070FFC00
0703F800
0600E000
00000000
00000000
00000000
F80000F0
FC0000F0
FC0000F0
FE0000F0
FF0000F0
FF0000F0
FF8000F0
F7C000F0
F7C000F0
F3E000F0
F3F000F0
F1F000F0
F0F800F0
F0FC00F0
F07C00F0
F03E00F0
F03F00F0
F01F00F0
F00F80F0
F00F80F0
F007C0F0
F003E0F0
F003E0F0
F001F0F0
F001F8F0
F000F8F0
F0007CF0
F0007EF0
F0003EF0
F0001FF0
F0001FF0
F0000FF0
F00007F0
F00007F0
F00003F0
F00001F0
ENDCHAR
STARTCHAR 00D2
ENCODING 210
SWIDTH 780 0
DWIDTH 39 0
BBX 33 48 3 -1
BITMAP
003F000000
001F000000
000F800000
0007800000
0003C00000
0001E00000
0000F00000
0000700000
0000000000
0000000000
0000000000
001FFC0000
00FFFF8000
01FFFFC000
07FFFFF000
0FF007F800
0FC001F800
1F80007C00
3F00007E00
3E00003E00
7C00001F00
7C00001F00
7C00001F00
7800000F00
F800000F80
F800000F80
F800000F80
F800000F80
F800000F80
F800000F80
F800000F80
F800000F80
F800000F80
F800000F80
7800000F00
7C00001F00
7C00001F00
7C00001F00
3E00003E00
3E00003E00
1F00007C00
1F8000FC00
0FE003F800
07FE3FF000
03FFFFE000
00FFFF8000
003FFE0000
0000800000
ENDCHAR
STARTCHAR 00D3
ENCODING 211
SWIDTH 780 0
DWIDTH 39 0
BBX 33 48 3 -1
BITMAP
00003F0000
00003E0000
00007C0000
0000F80000
0000F00000
0001E00000
0003C00000
0003800000
0000000000
0000000000
0000000000
001FFC0000
00FFFF8000
01FFFFC000
07FFFFF000
0FF007F800
0FC001F800
1F80007C00
3F00007E00
3E00003E00
7C00001F00
7C00001F00
7C00001F00
7800000F00
F800000F80
F800000F80
F800000F80
F800000F80
F800000F80
F800000F80
F800000F80
F800000F80
F800000F80
F800000F80
7800000F00
7C00001F00
7C00001F00
7C00001F00
3E00003E00
3E00003E00
1F00007C00
1F8000FC00
0FE003F800
07FE3FF000
03FFFFE000
00FFFF8000
003FFE0000
0000800000
ENDCHAR
STARTCHAR 00D4
ENCODING 212
SWIDTH 780 0
DWIDTH 39 0
BBX 33 48 3 -1
BITMAP
0003E00000
0007F00000
000FF80000
001F7C0000
001E3C0000
003C1E0000
00780F0000
00F0078000
0000000000
0000000000
0000000000
001FFC0000
00FFFF8000
01FFFFC000
07FFFFF000
0FF007F800
0FC001F800
1F80007C00
3F00007E00
3E00003E00
7C00001F00
7C00001F00
7C00001F00
7800000F00
F800000F80
F800000F80
F800000F80
F800000F80
F800000F80
F800000F80
F800000F80
F800000F80
F800000F80
F800000F80
7800000F00
7C00001F00
7C00001F00
7C00001F00
3E00003E00
3E00003E00
1F00007C00
1F8000FC00
0FE003F800
07FE3FF000
03FFFFE000
00FFFF8000
003FFE0000
0000800000
ENDCHAR
STARTCHAR 00D5
ENCODING 213
SWIDTH 780 0
DWIDTH 39 0
BBX 33 47 3 -1
BITMAP
000C01C000
003F01C000
007FC38000
00FFFF8000
00E1FF0000
00C07F0000
01C01C0000
0000000000
0000000000
0000000000
001FFC0000
00FFFF8000
01FFFFC000
07FFFFF000
0FF007F800
0FC001F800
1F80007C00
3F00007E00
3E00003E00
7C00001F00
7C00001F00
7C00001F00
7800000F00
F800000F80
F800000F80
F800000F80
F800000F80
F800000F80
F800000F80
F800000F80
F800000F80
F800000F80
F800000F80
7800000F00
7C00001F00
7C00001F00
7C00001F00
3E00003E00
3E00003E00
1F00007C00
1F8000FC00
0FE003F800
07FE3FF000
03FFFFE000
00FFFF8000
003FFE0000
0000800000
ENDCHAR
STARTCHAR 00D6
ENCODING 214
SWIDTH 780 0
DWIDTH 39 0
BBX 33 46 3 -1
BITMAP
003C1E0000
003C1F0000
003C1F0000
003C1E0000
0000040000
0000000000
0000000000
0000000000
0000000000
001FFC0000
00FFFF8000
01FFFFC000
07FFFFF000
0FF007F800
0FC001F800
1F80007C00
3F00007E00
3E00003E00
7C00001F00
7C00001F00
7C00001F00
7800000F00
F800000F80
F800000F80
F800000F80
F800000F80
F800000F80
F800000F80
F800000F80
F800000F80
F800000F80
F800000F80
7800000F00
7C00001F00
7C00001F00
7C00001F00
3E00003E00
3E00003E00
1F00007C00
1F8000FC00
0FE003F800
07FE3FF000
03FFFFE000
00FFFF8000
003FFE0000
0000800000
ENDCHAR
STARTCHAR 00D7
ENCODING 215
SWIDTH 560 0
DWIDTH 28 0
BBX 21 21 4 8
BITMAP
600030
F00078
F800F8
7C01F0
3E03E0
1F07C0
0F8F80
07DF00
03FE00
01FC00
00F800
01FC00
03FE00
07DF00
0F8F80
1F07C0
3E03E0
7C01F0
F800F8
F00078
600030
ENDCHAR
STARTCHAR 00D8
ENCODING 216
SWIDTH 780 0
DWIDTH 39 0
BBX 33 38 3 -2
BITMAP
0000001800
001FFC1E00
00FFFFBC00
01FFFFFC00
07FFFFF800
0FF007F000
0FC001F800
1F8003FC00
3F0003FE00
3E0007BE00
7C000F9F00
7C000F1F00
7C001E1F00
78003E0F00
F8007C0F80
F800780F80
F800F00F80
F801F00F80
F801E00F80
F803C00F80
F807C00F80
F80F800F80
F80F000F80
F81E000F80
783E000F00
7C3C001F00
7C78001F00
7CF8001F00
3EF0003E00
3FE0003E00
1FE0007C00
1FC000FC00
0FE003F800
0FFE3FF000
1FFFFFE000
1EFFFF8000
3C3FFE0000
1C00800000
ENDCHAR
STARTCHAR 00D9
ENCODING 217
SWIDTH 720 0
DWIDTH 36 0
BBX 28 48 4 -1
BITMAP
00F80000
007C0000
007E0000
003E0000
001F0000
000F8000
00078000
0001C000
00000000
00000000
00000000
F80000F0
F80000F0
F80000F0
F80000F0
F80000F0
F80000F0
F80000F0
F80000F0
F80000F0
F80000F0
F80000F0
F80000F0
F80000F0
F80000F0
F80000F0
F80000F0
F80000F0
F80000F0
F80000F0
F80000F0
F80000F0
F80000F0
F80000F0
F80000F0
780001F0
780001F0
780001F0
7C0001E0
7C0003E0
3E0003E0
3F0007C0
1F800FC0
0FF8FF80
07FFFF00
03FFFC00
00FFF000
00060000
ENDCHAR
STARTCHAR 00DA
ENCODING 218
SWIDTH 720 0
DWIDTH 36 0
BBX 28 48 4 -1
BITMAP
0000FC00
0001F800
0001F000
0003E000
0003C000
00078000
000F0000
000E0000
00000000
00000000
00000000
F80000F0
F80000F0
F80000F0
F80000F0
F80000F0
F80000F0
F80000F0
F80000F0
F80000F0
F80000F0
F80000F0
F80000F0
F80000F0
F80000F0
F80000F0
F80000F0
F80000F0
F80000F0
F80000F0
F80000F0
F80000F0
F80000F0
F80000F0
F80000F0
780001F0
780001F0
780001F0
7C0001E0
7C0003E0
3E0003E0
3F0007C0
1F800FC0
0FF8FF80
07FFFF00
03FFFC00
00FFF000
00060000
ENDCHAR
STARTCHAR 00DB
ENCODING 219
SWIDTH 720 0
DWIDTH 36 0
BBX 28 48 4 -1
BITMAP
000F8000
001FC000
003FC000
007FE000
00F9F000
01F07800
01E03C00
03801E00
00000000
00000000
00000000
F80000F0
F80000F0
F80000F0
F80000F0
F80000F0
F80000F0
F80000F0
F80000F0
F80000F0
F80000F0
F80000F0
F80000F0
F80000F0
F80000F0
F80000F0
F80000F0
F80000F0
F80000F0
F80000F0
F80000F0
F80000F0
F80000F0
F80000F0
F80000F0
780001F0
780001F0
780001F0
7C0001E0
7C0003E0
3E0003E0
3F0007C0
1F800FC0
0FF8FF80
07FFFF00
03FFFC00
00FFF000
00060000
ENDCHAR
STARTCHAR 00DC
ENCODING 220
SWIDTH 720 0
DWIDTH 36 0
BBX 28 46 4 -1
BITMAP
00F07800
01F07800
01F07800
00F07800
00401000
00000000
00000000
00000000
00000000
F80000F0
F80000F0
F80000F0
F80000F0
F80000F0
F80000F0
F80000F0
F80000F0
F80000F0
F80000F0
F80000F0
F80000F0
F80000F0
F80000F0
F80000F0
F80000F0
F80000F0
F80000F0
F80000F0
F80000F0
F80000F0
F80000F0
F80000F0
F80000F0
780001F0
780001F0
780001F0
7C0001E0
7C0003E0
3E0003E0
3F0007C0
1F800FC0
0FF8FF80
07FFFF00
03FFFC00
00FFF000
00060000
ENDCHAR
STARTCHAR 00DD
ENCODING 221
SWIDTH 560 0
DWIDTH 28 0
BBX 28 47 0 0
BITMAP
0000F800
0001F800
0001F000
0003E000
0007C000
00078000
000F0000
001E0000
00000000
00000000
00000000
F80001F0
7C0001F0
7C0003E0
3E0003E0
3E0007C0
1F000780
1F000F80
0F800F00
0F801F00
07C01E00
03C03E00
03E03C00
01E07C00
01F0F800
00F0F800
00F9F000
0079E000
007FE000
003FC000
003FC000
001F8000
001F8000
000F0000
000F0000
000F0000
000F0000
000F0000
000F0000
000F0000
000F0000
000F0000
000F0000
000F0000
000F0000
000F0000
000F0000
ENDCHAR
STARTCHAR 00DE
ENCODING 222
SWIDTH 600 0
DWIDTH 30 0
BBX 23 36 5 0
BITMAP
F00000
F00000
F00000
F00000
F00000
F00000
FFC000
FFFF00
FFFFE0
FFFFF0
F03FF8
F001F8
F000FC
F0007C
F0003C
F0003E
F0003E
F0003E
F0003E
F0003C
F0007C
F0007C
F000F8
F003F8
FFFFF0
FFFFE0
FFFF80
FFFE00
F00000
F00000
F00000
F00000
F00000
F00000
F00000
F00000
ENDCHAR
STARTCHAR 00DF
ENCODING 223
SWIDTH 620 0
DWIDTH 31 0
BBX 25 39 4 -1
BITMAP
03FF8000
0FFFE000
1FFFF000
3FEFF800
7E00FC00
7C007C00
F8003C00
F8003C00
F8003C00
F8007C00
F800F800
F801F000
F803F000
F807C000
F80F8000
F81F0000
F81E0000
F81E0000
F81E0000
F81F0000
F80FC000
F80FE000
F807F000
F801FC00
F800FE00
F8003F00
F8001F00
F8000F80
F8000780
F8000780
F8000780
F8000780
F8000780
F8400F80
F8781F00
F87FFF00
F87FFE00
F83FF800
00018000
ENDCHAR
STARTCHAR 00E0
ENCODING 224
SWIDTH 560 0
DWIDTH 28 0
BBX 22 39 2 -1
BITMAP
03E000
03F000
01F000
00F800
007C00
003C00
001E00
000F00
000000
000000
000000
01FF80
0FFFE0
1FFFF0
0FC3F8
0E00F8
00007C
00007C
00003C
00003C
00003C
00003C
00FFFC
07FFFC
1FFFFC
3FC03C
7E003C
7C003C
78003C
F8007C
F8007C
F8007C
F800FC
7C01FC
7E07BC
3FFFBC
1FFE3C
0FFC1C
008000
ENDCHAR
STARTCHAR 00E1
ENCODING 225
SWIDTH 560 0
DWIDTH 28 0
BBX 22 39 2 -1
BITMAP
0003E0
0007E0
0007C0
000F80
001F00
001E00
003C00
007800
000000
000000
000000
01FF80
0FFFE0
1FFFF0
0FC3F8
0E00F8
00007C
00007C
00003C
00003C
00003C
00003C
00FFFC
07FFFC
1FFFFC
3FC03C
7E003C
7C003C
78003C
F8007C
F8007C
F8007C
F800FC
7C01FC
7E07BC
3FFFBC
1FFE3C
0FFC1C
008000
ENDCHAR
STARTCHAR 00E2
ENCODING 226
SWIDTH 560 0
DWIDTH 28 0
BBX 22 39 2 -1
BITMAP
007E00
00FE00
00FF00
01FF80
03E7C0
0783E0
0F00F0
0E0078
000000
000000
000000
01FF80
0FFFE0
1FFFF0
0FC3F8
0E00F8
00007C
00007C
00003C
00003C
00003C
00003C
00FFFC
07FFFC
1FFFFC
3FC03C
7E003C
7C003C
78003C
F8007C
F8007C
F8007C
F800FC
7C01FC
7E07BC
3FFFBC
1FFE3C
0FFC1C
008000
ENDCHAR
STARTCHAR 00E3
ENCODING 227
SWIDTH 560 0
DWIDTH 28 0
BBX 22 38 2 -1
BITMAP
01C018
07F038
0FFC38
0FFFF0
1C3FF0
1C0FE0
1C0180
000000
000000
000000
01FF80
0FFFE0
1FFFF0
0FC3F8
0E00F8
00007C
00007C
00003C
00003C
00003C
00003C
00FFFC
07FFFC
1FFFFC
3FC03C
7E003C
7C003C
78003C
F8007C
F8007C
F8007C
F800FC
7C01FC
7E07BC
3FFFBC
1FFE3C
0FFC1C
008000
ENDCHAR
STARTCHAR 00E4
ENCODING 228
SWIDTH 560 0
DWIDTH 28 0
BBX 22 38 2 -1
BITMAP
010000
0781E0
07C3E0
07C3E0
0781E0
000000
000000
000000
000000
000000
01FF80
0FFFE0
1FFFF0
0FC3F8
0E00F8
00007C
00007C
00003C
00003C
00003C
00003C
00FFFC
07FFFC
1FFFFC
3FC03C
7E003C
7C003C
78003C
F8007C
F8007C
F8007C
F800FC
7C01FC
7E07BC
3FFFBC
1FFE3C
0FFC1C
008000
ENDCHAR
STARTCHAR 00E5
ENCODING 229
SWIDTH 560 0
DWIDTH 28 0
BBX 22 42 2 -1
BITMAP
003C00
00FF00
01FF80
01C380
018180
0181C0
018180
01C380
01FF80
00FF00
001800
000000
000000
000000
01FF80
0FFFE0
1FFFF0
0FC3F8
0E00F8
00007C
00007C
00003C
00003C
00003C
00003C
00FFFC
07FFFC
1FFFFC
3FC03C
7E003C
7C003C
78003C
F8007C
F8007C
F8007C
F800FC
7C01FC
7E07BC
3FFFBC
1FFE3C
0FFC1C
008000
ENDCHAR
STARTCHAR 00E6
ENCODING 230
SWIDTH 860 0
DWIDTH 43 0
BBX 39 28 2 -1
BITMAP
03FF00FF00
0FFFC3FFC0
1FFFE7FFE0
1F87FFE3F0
0C01FF00F8
0000FE0078
00007E007C
00007C003C
00007C003C
00007C003C
00007C003E
00FFFFFFFE
07FFFFFFFE
1FFFFFFFFE
3FC07C0000
7E007C0000
7C007C0000
78007C0000
F8007C0000
F800FC0000
F800FE0000
F801FF0000
7C03DF8008
7E0FCFE0F8
3FFF87FFF8
1FFF03FFF8
0FFC00FFF0
0080000C00
ENDCHAR
STARTCHAR 00E7
ENCODING 231
SWIDTH 480 0
DWIDTH 24 0
BBX 19 39 3 -12
BITMAP
01FFC0
07FFE0
0FFFE0
1FFFC0
3F0040
7E0000
7C0000
780000
F80000
F80000
F80000
F00000
F00000
F00000
F00000
F00000
F00000
F80000
F80000
F80000
7C0000
7E0000
3F0020
1FC3E0
1FFFE0
07FFE0
01FFC0
003800
007000
007000
00FC00
007E00
000F00
000F00
000F00
000F00
03FE00
03FC00
03F000
ENDCHAR
STARTCHAR 00E8
ENCODING 232
SWIDTH 560 0
DWIDTH 28 0
BBX 23 39 3 -1
BITMAP
07C000
03E000
01F000
01F000
00F800
007C00
003C00
000E00
000000
000000
000000
01FF00
07FFC0
0FFFE0
1FC7F0
3E00F8
3C00F8
7C007C
78007C
F8003C
F8003C
F0003E
FFFFFE
FFFFFE
FFFFFE
F00000
F00000
F00000
F80000
F80000
780000
7C0000
7E0000
3F0008
1FE1F8
0FFFF8
07FFF8
01FFF0
000C00
ENDCHAR
STARTCHAR 00E9
ENCODING 233
SWIDTH 560 0
DWIDTH 28 0
BBX 23 39 3 -1
BITMAP
0007C0
000FC0
000F80
001F00
003E00
003C00
007800
007000
000000
000000
000000
01FF00
07FFC0
0FFFE0
1FC7F0
3E00F8
3C00F8
7C007C
78007C
F8003C
F8003C
F0003E
FFFFFE
FFFFFE
FFFFFE
F00000
F00000
F00000
F80000
F80000
780000
7C0000
7E0000
3F0008
1FE1F8
0FFFF8
07FFF8
01FFF0
000C00
ENDCHAR
STARTCHAR 00EA
ENCODING 234
SWIDTH 560 0
DWIDTH 28 0
BBX 23 39 3 -1
BITMAP
00FC00
00FE00
01FE00
03FF00
07CF80
0F83C0
1E01E0
1C00F0
000000
000000
000000
01FF00
07FFC0
0FFFE0
1FC7F0
3E00F8
3C00F8
7C007C
78007C
F8003C
F8003C
F0003E
FFFFFE
FFFFFE
FFFFFE
F00000
F00000
F00000
F80000
F80000
780000
7C0000
7E0000
3F0008
1FE1F8
0FFFF8
07FFF8
01FFF0
000C00
ENDCHAR
STARTCHAR 00EB
ENCODING 235
SWIDTH 560 0
DWIDTH 28 0
BBX 23 37 3 0
BITMAP
0783C0
0F83C0
0F83C0
0783C0
000000
000000
000000
000000
000000
01FF00
07FFC0
0FFFE0
1FC7F0
3E00F8
3C00F8
7C007C
78007C
F8003C
F8003C
F0003E
FFFFFE
FFFFFE
FFFFFE
F00000
F00000
F00000
F80000
F80000
780000
7C0000
7E0000
3F0008
1FE1F8
0FFFF8
07FFF8
01FFF0
000C00
ENDCHAR
STARTCHAR 00EC
ENCODING 236
SWIDTH 240 0
DWIDTH 12 0
BBX 10 38 0 0
BITMAP
FC00
7C00
3E00
1E00
0F00
0780
03C0
01C0
0000
0000
0000
0F80
0F80
0F80
0F80
0F80
0F80
0F80
0F80
0F80
0F80
0F80
0F80
0F80
0F80
0F80
0F80
0F80
0F80
0F80
0F80
0F80
0F80
0F80
0F80
0F80
0F80
0F80
ENDCHAR
STARTCHAR 00ED
ENCODING 237
SWIDTH 240 0
DWIDTH 12 0
BBX 10 38 4 0
BITMAP
0FC0
0F80
1F00
3E00
3C00
7800
F000
E000
0000
0000
0000
F800
F800
F800
F800
F800
F800
F800
F800
F800
F800
F800
F800
F800
F800
F800
F800
F800
F800
F800
F800
F800
F800
F800
F800
F800
F800
F800
ENDCHAR
STARTCHAR 00EE
ENCODING 238
SWIDTH 240 0
DWIDTH 12 0
BBX 17 38 -2 0
BITMAP
03E000
07F000
0FF800
1F7800
3E3C00
3C1E00
780F00
E00780
000000
000000
000000
03E000
03E000
03E000
03E000
03E000
03E000
03E000
03E000
03E000
03E000
03E000
03E000
03E000
03E000
03E000
03E000
03E000
03E000
03E000
03E000
03E000
03E000
03E000
03E000
03E000
03E000
03E000
ENDCHAR
STARTCHAR 00EF
ENCODING 239
SWIDTH 240 0
DWIDTH 12 0
BBX 14 36 -1 1
BITMAP
783C
F83C
F83C
783C
0000
0000
0000
0000
0000
07C0
07C0
07C0
07C0
07C0
07C0
07C0
07C0
07C0
07C0
07C0
07C0
07C0
07C0
07C0
07C0
07C0
07C0
07C0
07C0
07C0
07C0
07C0
07C0
07C0
07C0
07C0
ENDCHAR
STARTCHAR 00F0
ENCODING 240
SWIDTH 600 0
DWIDTH 30 0
BBX 25 39 3 -1
BITMAP
01801000
01E07800
03F8FC00
01FFF000
007FE000
003F8000
007FC000
01FFE000
07F3E000
03C1F000
0300F800
00007800
00007C00
00003C00
003C1E00
03FF9E00
0FFFFF00
1FFFFF00
3F00FF00
7E007F00
7C003F00
F8001F00
F8000F00
F0000F80
F0000F80
F0000F80
F0000F00
F0000F00
F0000F00
F8000F00
F8001F00
78001E00
7C003E00
3E007C00
3F81FC00
1FFFF800
07FFE000
01FFC000
00180000
ENDCHAR
STARTCHAR 00F1
ENCODING 241
SWIDTH 600 0
DWIDTH 30 0
BBX 23 37 4 0
BITMAP
018038
07E030
0FF870
1FFFF0
1C3FE0
380FC0
380300
000000
000000
000000
F07FC0
F1FFF0
F3FFF8
F7E7FC
FF00FC
FE007C
FC003E
FC003E
F8003E
F8003E
F8003E
F8003E
F8003E
F8003E
F8003E
F8003E
F8003E
F8003E
F8003E
F8003E
F8003E
F8003E
F8003E
F8003E
F8003E
F8003E
F8003E
ENDCHAR
STARTCHAR 00F2
ENCODING 242
SWIDTH 600 0
DWIDTH 30 0
BBX 25 39 3 -1
BITMAP
03E00000
01F00000
01F00000
00F80000
007C0000
003C0000
001E0000
00070000
00000000
00000000
00000000
01FF8000
07FFE000
0FFFF000
1FE7F800
3F00FC00
3E003E00
7C003E00
78001F00
F8001F00
F8000F00
F8000F00
F0000F00
F0000F80
F0000F80
F0000F80
F0000F00
F0000F00
F8000F00
F8001F00
78001F00
7C003E00
3C003E00
3F007C00
1FC1FC00
0FFFF800
07FFE000
01FF8000
00180000
ENDCHAR
STARTCHAR 00F3
ENCODING 243
SWIDTH 600 0
DWIDTH 30 0
BBX 25 39 3 -1
BITMAP
0003E000
0007E000
0007C000
000F8000
001F0000
001E0000
003C0000
00780000
00000000
00000000
00000000
01FF8000
07FFE000
0FFFF000
1FE7F800
3F00FC00
3E003E00
7C003E00
78001F00
F8001F00
F8000F00
F8000F00
F0000F00
F0000F80
F0000F80
F0000F80
F0000F00
F0000F00
F8000F00
F8001F00
78001F00
7C003E00
3C003E00
3F007C00
1FC1FC00
0FFFF800
07FFE000
01FF8000
00180000
ENDCHAR
STARTCHAR 00F4
ENCODING 244
SWIDTH 600 0
DWIDTH 30 0
BBX 25 39 3 -1
BITMAP
007E0000
007F0000
00FF0000
01FF8000
03E7C000
07C1E000
0F00F000
0E007800
00000000
00000000
00000000
01FF8000
07FFE000
0FFFF000
1FE7F800
3F00FC00
3E003E00
7C003E00
78001F00
F8001F00
F8000F00
F8000F00
F0000F00
F0000F80
F0000F80
F0000F80
F0000F00
F0000F00
F8000F00
F8001F00
78001F00
7C003E00
3C003E00
3F007C00
1FC1FC00
0FFFF800
07FFE000
01FF8000
00180000
ENDCHAR
STARTCHAR 00F5
ENCODING 245
SWIDTH 600 0
DWIDTH 30 0
BBX 25 38 3 -1
BITMAP
01C01800
07F03800
0FFC3800
0FFFF800
1E1FF000
1C0FE000
1C018000
00000000
00000000
00000000
01FF8000
07FFE000
0FFFF000
1FE7F800
3F00FC00
3E003E00
7C003E00
78001F00
F8001F00
F8000F00
F8000F00
F0000F00
F0000F80
F0000F80
F0000F80
F0000F00
F0000F00
F8000F00
F8001F00
78001F00
7C003E00
3C003E00
3F007C00
1FC1FC00
0FFFF800
07FFE000
01FF8000
00180000
ENDCHAR
STARTCHAR 00F6
ENCODING 246
SWIDTH 600 0
DWIDTH 30 0
BBX 25 38 3 -1
BITMAP
01000000
07C1E000
07C1E000
07C1E000
0381E000
00000000
00000000
00000000
00000000
00000000
01FF8000
07FFE000
0FFFF000
1FE7F800
3F00FC00
3E003E00
7C003E00
78001F00
F8001F00
F8000F00
F8000F00
F0000F00
F0000F80
F0000F80
F0000F80
F0000F00
F0000F00
F8000F00
F8001F00
78001F00
7C003E00
3C003E00
3F007C00
1FC1FC00
0FFFF800
07FFE000
01FF8000
00180000
ENDCHAR
STARTCHAR 00F7
ENCODING 247
SWIDTH 560 0
DWIDTH 28 0
BBX 24 23 2 6
BITMAP
003C00
003E00
007E00
007E00
003E00
001C00
000000
000000
000000
000000
FFFFFF
FFFFFF
FFFFFF
000000
000000
000000
000000
003C00
003E00
007E00
007E00
003E00
001C00
ENDCHAR
STARTCHAR 00F8
ENCODING 248
SWIDTH 600 0
DWIDTH 30 0
BBX 25 30 3 -2
BITMAP
00000C00
01FF9F00
07FFFE00
0FFFFC00
1FE7FC00
3F00FC00
3E00FE00
7C01FE00
7803FF00
F803DF00
F8078F00
F80F8F00
F00F0F00
F01E0F80
F03C0F80
F07C0F80
F0780F00
F0F00F00
F9F00F00
F9E01F00
7BC01F00
7F803E00
3F803E00
3F007C00
1FC1FC00
3FFFF800
3FFFE000
79FF8000
30180000
10000000
ENDCHAR
STARTCHAR 00F9
ENCODING 249
SWIDTH 600 0
DWIDTH 30 0
BBX 23 39 4 -1
BITMAP
07E000
03E000
01F000
00F000
007800
003C00
001E00
000E00
000000
000000
000000
F0003E
F0003E
F0003E
F0003E
F0003E
F0003E
F0003E
F0003E
F0003E
F0003E
F0003E
F0003E
F0003E
F0003E
F0003E
F0003E
F0003E
F0003E
F0003E
F8007E
F8007E
F800FE
7C01FE
7F07FE
3FFF9E
1FFF1E
0FFE1E
004000
ENDCHAR
STARTCHAR 00FA
ENCODING 250
SWIDTH 600 0
DWIDTH 30 0
BBX 23 39 4 -1
BITMAP
0007E0
0007C0
000F80
001F00
001E00
003C00
007800
007000
000000
000000
000000
F0003E
F0003E
F0003E
F0003E
F0003E
F0003E
F0003E
F0003E
F0003E
F0003E
F0003E
F0003E
F0003E
F0003E
F0003E
F0003E
F0003E
F0003E
F0003E
F8007E
F8007E
F800FE
7C01FE
7F07FE
3FFF9E
1FFF1E
0FFE1E
004000
ENDCHAR
STARTCHAR 00FB
ENCODING 251
SWIDTH 600 0
DWIDTH 30 0
BBX 23 39 4 -1
BITMAP
007C00
00FE00
01FF00
03EF00
07C780
0783C0
0F01E0
1C00F0
000000
000000
000000
F0003E
F0003E
F0003E
F0003E
F0003E
F0003E
F0003E
F0003E
F0003E
F0003E
F0003E
F0003E
F0003E
F0003E
F0003E
F0003E
F0003E
F0003E
F0003E
F8007E
F8007E
F800FE
7C01FE
7F07FE
3FFF9E
1FFF1E
0FFE1E
004000
ENDCHAR
STARTCHAR 00FC
ENCODING 252
SWIDTH 600 0
DWIDTH 30 0
BBX 23 37 4 0
BITMAP
0783C0
0F83C0
0F83C0
0783C0
000000
000000
000000
000000
000000
F0003E
F0003E
F0003E
F0003E
F0003E
F0003E
F0003E
F0003E
F0003E
F0003E
F0003E
F0003E
F0003E
F0003E
F0003E
F0003E
F0003E
F0003E
F0003E
F8007E
F8007E
F800FE
7C01FE
7F07FE
3FFF9E
1FFF1E
0FFE1E
004000
ENDCHAR
STARTCHAR 00FD
ENCODING 253
SWIDTH 500 0
DWIDTH 25 0
BBX 25 50 0 -12
BITMAP
0003F000
0003E000
0007C000
00078000
000F0000
001E0000
001C0000
00380000
00000000
00000000
00000000
F8000780
78000F80
7C000F80
7C000F00
3C001F00
3E001F00
1E003E00
1F003E00
1F003C00
0F007C00
0F807C00
07807800
0780F800
07C0F000
03C0F000
03E1F000
01E1E000
01E1E000
01F3E000
00F3C000
00F3C000
007F8000
007F8000
007F8000
003F0000
003F0000
001F0000
001E0000
003E0000
003C0000
003C0000
007C0000
00780000
00F80000
01F00000
7FE00000
7FE00000
7F800000
7F000000
ENDCHAR
STARTCHAR 00FE
ENCODING 254
SWIDTH 600 0
DWIDTH 30 0
BBX 24 50 4 -12
BITMAP
F80000
F80000
F80000
F80000
F80000
F80000
F80000
F80000
F80000
F80000
F80000
F87F80
F9FFE0
FBFFF0
FFE7F8
FF00FC
FE007C
FC003E
F8001E
F8001E
F8001F
F8001F
F8001F
F8001F
F8001F
F8001F
F8001F
F8001F
F8001F
F8001F
F8001E
FC003E
FC007E
FE007C
FFC1F8
F7FFF0
F9FFE0
F8FFC0
F80C00
F80000
F80000
F80000
F80000
F80000
F80000
F80000
F80000
F80000
F80000
F80000
ENDCHAR
STARTCHAR 00FF
ENCODING 255
SWIDTH 500 0
DWIDTH 25 0
BBX 25 49 0 -12
BITMAP
00004000
03C1E000
03C1F000
03C1F000
03C0E000
00000000
00000000
00000000
00000000
00000000
F8000780
78000F80
7C000F80
7C000F00
3C001F00
3E001F00
1E003E00
1F003E00
1F003C00
0F007C00
0F807C00
07807800
0780F800
07C0F000
03C0F000
03E1F000
01E1E000
01E1E000
01F3E000
00F3C000
00F3C000
007F8000
007F8000
007F8000
003F0000
003F0000
001F0000
001E0000
003E0000
003C0000
003C0000
007C0000
00780000
00F80000
01F00000
7FE00000
7FE00000
7F800000
7F000000
ENDCHAR
STARTCHAR 0100
ENCODING 256
SWIDTH 620 0
DWIDTH 31 0
BBX 32 43 0 0
BITMAP
00FFFE00
00FFFE00
00FFFE00
00FFFE00
00000000
00000000
00000000
0003C000
0007E000
0007E000
0007E000
000FF000
000FF000
001EF000
001E7800
001E7800
003E7C00
003C3C00
003C3C00
00783E00
00781E00
00F81F00
00F00F00
00F00F00
01F00F80
01E00780
03E007C0
03C007C0
03FFFFC0
07FFFFE0
07FFFFE0
0FFFFFE0
0F8001F0
0F0000F0
1F0000F8
1E0000F8
1E000078
3E00007C
3C00003C
7C00003E
7C00003E
7800001E
F800001F
ENDCHAR
STARTCHAR 0101
ENCODING 257
SWIDTH 560 0
DWIDTH 28 0
BBX 22 35 2 -1
BITMAP
07FFE0
07FFE0
07FFE0
07FFE0
000000
000000
000000
01FF80
0FFFE0
1FFFF0
0FC3F8
0E00F8
00007C
00007C
00003C
00003C
00003C
00003C
00FFFC
07FFFC
1FFFFC
3FC03C
7E003C
7C003C
78003C
F8007C
F8007C
F8007C
F800FC
7C01FC
7E07BC
3FFFBC
1FFE3C
0FFC1C
008000
ENDCHAR
STARTCHAR 0102
ENCODING 258
SWIDTH 620 0
DWIDTH 31 0
BBX 32 46 0 0
BITMAP
00E00700
00E00E00
00701E00
007FFE00
003FFC00
001FF800
0003C000
00000000
00000000
00000000
0003C000
0007E000
0007E000
0007E000
000FF000
000FF000
001EF000
001E7800
001E7800
003E7C00
003C3C00
003C3C00
00783E00
00781E00
00F81F00
00F00F00
00F00F00
01F00F80
01E00780
03E007C0
03C007C0
03FFFFC0
07FFFFE0
07FFFFE0
0FFFFFE0
0F8001F0
0F0000F0
1F0000F8
1E0000F8
1E000078
3E00007C
3C00003C
7C00003E
7C00003E
7800001E
F800001F
ENDCHAR
STARTCHAR 0103
ENCODING 259
SWIDTH 560 0
DWIDTH 28 0
BBX 22 38 2 -1
BITMAP
0E0070
0E0070
0701E0
07FFE0
03FFC0
01FF80
003800
000000
000000
000000
01FF80
0FFFE0
1FFFF0
0FC3F8
0E00F8
00007C
00007C
00003C
00003C
00003C
00003C
00FFFC
07FFFC
1FFFFC
3FC03C
7E003C
7C003C
78003C
F8007C
F8007C
F8007C
F800FC
7C01FC
7E07BC
3FFFBC
1FFE3C
0FFC1C
008000
ENDCHAR
STARTCHAR 0104
ENCODING 260
SWIDTH 620 0
DWIDTH 31 0
BBX 32 47 0 -11
BITMAP
0003C000
0007E000
0007E000
0007E000
000FF000
000FF000
001EF000
001E7800
001E7800
003E7C00
003C3C00
003C3C00
00783E00
00781E00
00F81F00
00F00F00
00F00F00
01F00F80
01E00780
03E007C0
03C007C0
03FFFFC0
07FFFFE0
07FFFFE0
0FFFFFE0
0F8001F0
0F0000F0
1F0000F8
1E0000F8
1E000078
3E00007C
3C00003C
7C00003E
7C00003E
7800001E
F800001F
0000001C
00000038
00000070
000000F0
000000E0
000000E0
000000E0
000000F0
000000FF
0000007F
0000003F
ENDCHAR
STARTCHAR 0105
ENCODING 261
SWIDTH 560 0
DWIDTH 28 0
BBX 23 38 2 -11
BITMAP
01FF80
0FFFE0
1FFFF0
0FC3F8
0E00F8
00007C
00007C
00003C
00003C
00003C
00003C
00FFFC
07FFFC
1FFFFC
3FC03C
7E003C
7C003C
78003C
F8007C
F8007C
F8007C
F800FC
7C01FC
7E07BC
3FFFBC
1FFE3C
0FFC1C
00803C
000078
0000F0
0000E0
0001E0
0001E0
0001E0
0001E0
0001FE
0000FE
00007E
ENDCHAR
STARTCHAR 0106
ENCODING 262
SWIDTH 620 0
DWIDTH 31 0
BBX 27 48 3 -1
BITMAP
00003E00
00007C00
00007C00
0000F800
0001F000
0001E000
0003C000
00078000
00000000
00000000
00000000
000FFE00
007FFFC0
01FFFFE0
03FFFFC0
07F803C0
0FC00000
1F800000
1F000000
3E000000
3E000000
7C000000
7C000000
7C000000
F8000000
F8000000
F8000000
F8000000
F8000000
F8000000
F8000000
F8000000
F8000000
F8000000
78000000
7C000000
7C000000
7C000000
3E000000
3F000000
1F800000
1FC00000
0FF000C0
07FFBFC0
03FFFFC0
00FFFFC0
003FFF00
0001C000
ENDCHAR
STARTCHAR 0107
ENCODING 263
SWIDTH 480 0
DWIDTH 24 0
BBX 19 39 3 -1
BITMAP
0007C0
000FC0
000F80
001F00
003E00
003C00
007800
007000
000000
000000
000000
01FFC0
07FFE0
0FFFE0
1FFFC0
3F0040
7E0000
7C0000
780000
F80000
F80000
F80000
F00000
F00000
F00000
F00000
F00000
F00000
F80000
F80000
F80000
7C0000
7E0000
3F0020
1FC3E0
1FFFE0
07FFE0
01FFC0
001800
ENDCHAR
STARTCHAR 0108
ENCODING 264
SWIDTH 620 0
DWIDTH 31 0
BBX 27 48 3 -1
BITMAP
0007E000
0007E000
000FF000
001FF800
003E7C00
007C3E00
00F01F00
00E00700
00000000
00000000
00000000
000FFE00
007FFFC0
01FFFFE0
03FFFFC0
07F803C0
0FC00000
1F800000
1F000000
3E000000
3E000000
7C000000
7C000000
7C000000
F8000000
F8000000
F8000000
F8000000
F8000000
F8000000
F8000000
F8000000
F8000000
F8000000
78000000
7C000000
7C000000
7C000000
3E000000
3F000000
1F800000
1FC00000
0FF000C0
07FFBFC0
03FFFFC0
00FFFFC0
003FFF00
0001C000
ENDCHAR
STARTCHAR 0109
ENCODING 265
SWIDTH 480 0
DWIDTH 24 0
BBX 20 39 3 -1
BITMAP
00FC00
00FE00
01FE00
03FF00
07CF80
0F83C0
1E01E0
1C00F0
000000
000000
000000
01FFC0
07FFE0
0FFFE0
1FFFC0
3F0040
7E0000
7C0000
780000
F80000
F80000
F80000
F00000
F00000
F00000
F00000
F00000
F00000
F80000
F80000
F80000
7C0000
7E0000
3F0020
1FC3E0
1FFFE0
07FFE0
01FFC0
001800
ENDCHAR
STARTCHAR 010A
ENCODING 266
SWIDTH 620 0
DWIDTH 31 0
BBX 27 47 3 -1
BITMAP
00018000
0003C000
0007E000
0007E000
0003C000
00018000
00000000
00000000
00000000
00000000
000FFE00
007FFFC0
01FFFFE0
03FFFFC0
07F803C0
0FC00000
1F800000
1F000000
3E000000
3E000000
7C000000
7C000000
7C000000
F8000000
F8000000
F8000000
F8000000
F8000000
F8000000
F8000000
F8000000
F8000000
F8000000
78000000
7C000000
7C000000
7C000000
3E000000
3F000000
1F800000
1FC00000
0FF000C0
07FFBFC0
03FFFFC0
00FFFFC0
003FFF00
0001C000
ENDCHAR
STARTCHAR 010B
ENCODING 267
SWIDTH 480 0
DWIDTH 24 0
BBX 19 38 3 -1
BITMAP
003800
007C00
007C00
007C00
007800
003000
000000
000000
000000
000000
01FFC0
07FFE0
0FFFE0
1FFFC0
3F0040
7E0000
7C0000
780000
F80000
F80000
F80000
F00000
F00000
F00000
F00000
F00000
F00000
F80000
F80000
F80000
7C0000
7E0000
3F0020
1FC3E0
1FFFE0
07FFE0
01FFC0
001800
ENDCHAR
STARTCHAR 010C
ENCODING 268
SWIDTH 620 0
DWIDTH 31 0
BBX 27 48 3 -1
BITMAP
00F00F00
00781E00
007C3C00
003E7C00
001FF800
000FF000
0007E000
0003C000
00000000
00000000
00000000
000FFE00
007FFFC0
01FFFFE0
03FFFFC0
07F803C0
0FC00000
1F800000
1F000000
3E000000
3E000000
7C000000
7C000000
7C000000
F8000000
F8000000
F8000000
F8000000
F8000000
F8000000
F8000000
F8000000
F8000000
F8000000
78000000
7C000000
7C000000
7C000000
3E000000
3F000000
1F800000
1FC00000
0FF000C0
07FFBFC0
03FFFFC0
00FFFFC0
003FFF00
0001C000
ENDCHAR
STARTCHAR 010D
ENCODING 269
SWIDTH 480 0
DWIDTH 24 0
BBX 20 39 3 -1
BITMAP
1E01F0
0F03E0
0787C0
03CF80
01FF00
01FE00
00FC00
007C00
000000
000000
000000
01FFC0
07FFE0
0FFFE0
1FFFC0
3F0040
7E0000
7C0000
780000
F80000
F80000
F80000
F00000
F00000
F00000
F00000
F00000
F00000
F80000
F80000
F80000
7C0000
7E0000
3F0020
1FC3E0
1FFFE0
07FFE0
01FFC0
001800
ENDCHAR
STARTCHAR 010E
ENCODING 270
SWIDTH 720 0
DWIDTH 36 0
BBX 28 47 5 0
BITMAP
07807800
03C0F000
03E1F000
01F3E000
00FFC000
007F8000
003F0000
001E0000
00000000
00000000
00000000
FFFC0000
FFFFC000
FFFFF800
FFFFFC00
F003FE00
F0007F00
F0001F80
F0000FC0
F00007C0
F00003E0
F00003E0
F00001F0
F00001F0
F00001F0
F00001F0
F00000F0
F00000F0
F00000F0
F00000F0
F00000F0
F00000F0
F00001F0
F00001F0
F00001F0
F00001F0
F00003E0
F00003E0
F00007C0
F0000FC0
F0001F80
F0007F00
F001FE00
FFFFFC00
FFFFF800
FFFFE000
FFFE0000
ENDCHAR
STARTCHAR 010F
ENCODING 271
SWIDTH 600 0
DWIDTH 30 0
BBX 31 39 3 -1
BITMAP
00001F1E
00001F1E
00001F1E
00001F3C
00001F3C
00001F38
00001F38
00001F70
00001F00
00001F00
00001F00
01FE1F00
07FF9F00
1FFFDF00
1FC7FF00
3F00FF00
7E007F00
7C003F00
78003F00
F8001F00
F8001F00
F8001F00
F0001F00
F0001F00
F0001F00
F0001F00
F0001F00
F0001F00
F8001F00
F8001F00
F8003F00
7C003F00
7C007F00
3E00FF00
3F83FF00
1FFFDF00
0FFF8F00
03FF0F00
00200000
ENDCHAR
STARTCHAR 0110
ENCODING 272
SWIDTH 720 0
DWIDTH 36 0
BBX 32 36 1 0
BITMAP
0FFFC000
0FFFFC00
0FFFFF80
0FFFFFC0
0F803FE0
0F8007F0
0F8001F8
0F8000FC
0F80007C
0F80003E
0F80003E
0F80001F
0F80001F
0F80001F
0F80001F
0F80000F
FFFFC00F
FFFFC00F
FFFFC00F
FFFFC00F
0F80000F
0F80001F
0F80001F
0F80001F
0F80001F
0F80003E
0F80003E
0F80007C
0F8000FC
0F8001F8
0F8007F0
0F801FE0
0FFFFFC0
0FFFFF80
0FFFFE00
0FFFE000
ENDCHAR
STARTCHAR 0111
ENCODING 273
SWIDTH 600 0
DWIDTH 30 0
BBX 27 39 3 -1
BITMAP
00001F00
00001F00
00001F00
00001F00
00FFFFE0
00FFFFE0
00FFFFE0
00FFFFE0
00001F00
00001F00
00001F00
01FE1F00
07FF9F00
0FFFDF00
1FFFFF00
3F00FF00
7E007F00
7C003F00
78003F00
F8001F00
F8001F00
F8001F00
F0001F00
F0001F00
F0001F00
F0001F00
F0001F00
F0001F00
F8001F00
F8001F00
F8003F00
7C003F00
7C007F00
3E00FF00
3F83FF00
1FFFDF00
0FFF8F00
03FF0F00
00200000
ENDCHAR
STARTCHAR 0112
ENCODING 274
SWIDTH 540 0
DWIDTH 27 0
BBX 20 43 5 0
BITMAP
1FFFC0
1FFFC0
1FFFC0
1FFFC0
000000
000000
000000
FFFFF0
FFFFF0
FFFFF0
FFFFF0
F00000
F00000
F00000
F00000
F00000
F00000
F00000
F00000
F00000
F00000
F00000
FFFFE0
FFFFE0
FFFFE0
FFFFE0
F00000
F00000
F00000
F00000
F00000
F00000
F00000
F00000
F00000
F00000
F00000
F00000
F00000
FFFFF0
FFFFF0
FFFFF0
FFFFF0
ENDCHAR
STARTCHAR 0113
ENCODING 275
SWIDTH 560 0
DWIDTH 28 0
BBX 23 35 3 -1
BITMAP
0FFFE0
0FFFE0
0FFFE0
0FFFE0
000000
000000
000000
01FF00
07FFC0
0FFFE0
1FC7F0
3E00F8
3C00F8
7C007C
78007C
F8003C
F8003C
F0003E
FFFFFE
FFFFFE
FFFFFE
F00000
F00000
F00000
F80000
F80000
780000
7C0000
7E0000
3F0008
1FE1F8
0FFFF8
07FFF8
01FFF0
000C00
ENDCHAR
STARTCHAR 0114
ENCODING 276
SWIDTH 540 0
DWIDTH 27 0
BBX 20 46 5 0
BITMAP
3801C0
1C01C0
1C0380
1FFF80
0FFF00
07FE00
00F000
000000
000000
000000
FFFFF0
FFFFF0
FFFFF0
FFFFF0
F00000
F00000
F00000
F00000
F00000
F00000
F00000
F00000
F00000
F00000
F00000
FFFFE0
FFFFE0
FFFFE0
FFFFE0
F00000
F00000
F00000
F00000
F00000
F00000
F00000
F00000
F00000
F00000
F00000
F00000
F00000
FFFFF0
FFFFF0
FFFFF0
FFFFF0
ENDCHAR
STARTCHAR 0115
ENCODING 277
SWIDTH 560 0
DWIDTH 28 0
BBX 23 38 3 -1
BITMAP
1C00E0
0E00E0
0E01C0
0FFFC0
07FF80
03FF00
003800
000000
000000
000000
01FF00
07FFC0
0FFFE0
1FC7F0
3E00F8
3C00F8
7C007C
78007C
F8003C
F8003C
F0003E
FFFFFE
FFFFFE
FFFFFE
F00000
F00000
F00000
F80000
F80000
780000
7C0000
7E0000
3F0008
1FE1F8
0FFFF8
07FFF8
01FFF0
000C00
ENDCHAR
STARTCHAR 0116
ENCODING 278
SWIDTH 540 0
DWIDTH 27 0
BBX 20 46 5 0
BITMAP
006000
00F800
00F800
00F800
00F800
007000
000000
000000
000000
000000
FFFFF0
FFFFF0
FFFFF0
FFFFF0
F00000
F00000
F00000
F00000
F00000
F00000
F00000
F00000
F00000
F00000
F00000
FFFFE0
FFFFE0
FFFFE0
FFFFE0
F00000
F00000
F00000
F00000
F00000
F00000
F00000
F00000
F00000
F00000
F00000
F00000
F00000
FFFFF0
FFFFF0
FFFFF0
FFFFF0
ENDCHAR
STARTCHAR 0117
ENCODING 279
SWIDTH 560 0
DWIDTH 28 0
BBX 23 38 3 -1
BITMAP
003800
007C00
007C00
007C00
007C00
003000
000000
000000
000000
000000
01FF00
07FFC0
0FFFE0
1FC7F0
3E00F8
3C00F8
7C007C
78007C
F8003C
F8003C
F0003E
FFFFFE
FFFFFE
FFFFFE
F00000
F00000
F00000
F80000
F80000
780000
7C0000
7E0000
3F0008
1FE1F8
0FFFF8
07FFF8
01FFF0
000C00
ENDCHAR
STARTCHAR 0118
ENCODING 280
SWIDTH 540 0
DWIDTH 27 0
BBX 20 47 5 -11
BITMAP
FFFFF0
FFFFF0
FFFFF0
FFFFF0
F00000
F00000
F00000
F00000
F00000
F00000
F00000
F00000
F00000
F00000
F00000
FFFFE0
FFFFE0
FFFFE0
FFFFE0
F00000
F00000
F00000
F00000
F00000
F00000
F00000
F00000
F00000
F00000
F00000
F00000
F00000
FFFFF0
FFFFF0
FFFFF0
FFFFF0
0003C0
000780
000700
000E00
000E00
001E00
001E00
001E00
000FF0
000FF0
0003F0
ENDCHAR
STARTCHAR 0119
ENCODING 281
SWIDTH 560 0
DWIDTH 28 0
BBX 23 38 3 -11
BITMAP
01FF00
07FFC0
0FFFE0
1FC7F0
3E00F8
3C00F8
7C007C
78007C
F8003C
F8003C
F0003E
FFFFFE
FFFFFE
FFFFFE
F00000
F00000
F00000
F80000
F80000
780000
7C0000
7E0000
3F0008
1FE1F8
0FFFF8
07FFF8
01FFF8
000CE0
0001C0
0003C0
000380
000780
000700
000780
000780
0007F8
0003F8
0001F8
ENDCHAR
STARTCHAR 011A
ENCODING 282
SWIDTH 540 0
DWIDTH 27 0
BBX 20 47 5 0
BITMAP
3C01E0
1E07C0
0F0F80
079F00
07FE00
03FC00
01F800
00F800
000000
000000
000000
FFFFF0
FFFFF0
FFFFF0
FFFFF0
F00000
F00000
F00000
F00000
F00000
F00000
F00000
F00000
F00000
F00000
F00000
FFFFE0
FFFFE0
FFFFE0
FFFFE0
F00000
F00000
F00000
F00000
F00000
F00000
F00000
F00000
F00000
F00000
F00000
F00000
F00000
FFFFF0
FFFFF0
FFFFF0
FFFFF0
ENDCHAR
STARTCHAR 011B
ENCODING 283
SWIDTH 560 0
DWIDTH 28 0
BBX 23 39 3 -1
BITMAP
1E01F0
0F03E0
0787C0
03CF80
01FF00
01FE00
00FC00
007C00
000000
000000
000000
01FF00
07FFC0
0FFFE0
1FC7F0
3E00F8
3C00F8
7C007C
78007C
F8003C
F8003C
F0003E
FFFFFE
FFFFFE
FFFFFE
F00000
F00000
F00000
F80000
F80000
780000
7C0000
7E0000
3F0008
1FE1F8
0FFFF8
07FFF8
01FFF0
000C00
ENDCHAR
STARTCHAR 011C
ENCODING 284
SWIDTH 720 0
DWIDTH 36 0
BBX 30 48 3 -1
BITMAP
0003F000
0003F800
0007F800
000FFC00
001F3E00
003E1F00
007C0780
007003C0
00000000
00000000
00000000
0007FF80
003FFFF0
00FFFFF8
03FFFFF8
07F800F0
0FE00010
1F800000
1F000000
3F000000
3E000000
7C000000
7C000000
7C000000
F8000000
F8000000
F8000000
F8000000
F8007FFC
F8007FFC
F8007FFC
F8007FFC
F800007C
F800007C
7800007C
7C00007C
7C00007C
7E00007C
3E00007C
3F00007C
1F80007C
0FC0007C
0FF0007C
07FF8FFC
01FFFFFC
00FFFFFC
003FFFE0
0000E000
ENDCHAR
STARTCHAR 011D
ENCODING 285
SWIDTH 600 0
DWIDTH 30 0
BBX 24 50 3 -12
BITMAP
007E00
00FE00
00FF00
01EF80
03C7C0
0783E0
0F01F0
1E0070
000000
000000
000000
03FE0F
07FF8F
0FFFCF
1FCFFF
3F00FF
7E007F
7C003F
78003F
F8001F
F8001F
F8001F
F0001F
F0001F
F0001F
F0001F
F0001F
F0001F
F8001F
F8001F
F8001F
7C003F
7C003F
3E007F
3F83FF
1FFFDF
0FFF9F
03FF1F
00201F
00001E
00001E
00001E
00003E
00003E
00007C
3800FC
3FFFF8
3FFFF0
3FFFE0
03FF00
ENDCHAR
STARTCHAR 011E
ENCODING 286
SWIDTH 720 0
DWIDTH 36 0
BBX 30 47 3 -1
BITMAP
00700380
00380380
00380700
003FFF00
001FFE00
000FFC00
0001E000
00000000
00000000
00000000
0007FF80
003FFFF0
00FFFFF8
03FFFFF8
07F800F0
0FE00010
1F800000
1F000000
3F000000
3E000000
7C000000
7C000000
7C000000
F8000000
F8000000
F8000000
F8000000
F8007FFC
F8007FFC
F8007FFC
F8007FFC
F800007C
F800007C
7800007C
7C00007C
7C00007C
7E00007C
3E00007C
3F00007C
1F80007C
0FC0007C
0FF0007C
07FF8FFC
01FFFFFC
00FFFFFC
003FFFE0
0000E000
ENDCHAR
STARTCHAR 011F
ENCODING 287
SWIDTH 600 0
DWIDTH 30 0
BBX 24 49 3 -12
BITMAP
0E0070
0E00E0
0701E0
07FFC0
03FFC0
01FF80
003800
000000
000000
000000
03FE0F
07FF8F
0FFFCF
1FCFFF
3F00FF
7E007F
7C003F
78003F
F8001F
F8001F
F8001F
F0001F
F0001F
F0001F
F0001F
F0001F
F0001F
F8001F
F8001F
F8001F
7C003F
7C003F
3E007F
3F83FF
1FFFDF
0FFF9F
03FF1F
00201F
00001E
00001E
00001E
00003E
00003E
00007C
3800FC
3FFFF8
3FFFF0
3FFFE0
03FF00
ENDCHAR
STARTCHAR 0120
ENCODING 288
SWIDTH 720 0
DWIDTH 36 0
BBX 30 47 3 -1
BITMAP
0000C000
0001F000
0001F000
0001F000
0001F000
0000E000
00000000
00000000
00000000
00000000
0007FF80
003FFFF0
00FFFFF8
03FFFFF8
07F800F0
0FE00010
1F800000
1F000000
3F000000
3E000000
7C000000
7C000000
7C000000
F8000000
F8000000
F8000000
F8000000
F8007FFC
F8007FFC
F8007FFC
F8007FFC
F800007C
F800007C
7800007C
7C00007C
7C00007C
7E00007C
3E00007C
3F00007C
1F80007C
0FC0007C
0FF0007C
07FF8FFC
01FFFFFC
00FFFFFC
003FFFE0
0000E000
ENDCHAR
STARTCHAR 0121
ENCODING 289
SWIDTH 600 0
DWIDTH 30 0
BBX 24 49 3 -12
BITMAP
001800
003C00
007C00
007C00
003C00
001800
000000
000000
000000
000000
03FE0F
07FF8F
0FFFCF
1FCFFF
3F00FF
7E007F
7C003F
78003F
F8001F
F8001F
F8001F
F0001F
F0001F
F0001F
F0001F
F0001F
F0001F
F8001F
F8001F
F8001F
7C003F
7C003F
3E007F
3F83FF
1FFFDF
0FFF9F
03FF1F
00201F
00001E
00001E
00001E
00003E
00003E
00007C
3800FC
3FFFF8
3FFFF0
3FFFE0
03FF00
ENDCHAR
STARTCHAR 0122
ENCODING 290
SWIDTH 720 0
DWIDTH 36 0
BBX 30 47 3 -11
BITMAP
0007FF80
003FFFF0
00FFFFF8
03FFFFF8
07F800F0
0FE00010
1F800000
1F000000
3F000000
3E000000
7C000000
7C000000
7C000000
F8000000
F8000000
F8000000
F8000000
F8007FFC
F8007FFC
F8007FFC
F8007FFC
F800007C
F800007C
7800007C
7C00007C
7C00007C
7E00007C
3E00007C
3F00007C
1F80007C
0FC0007C
0FF0007C
07FF8FFC
01FFFFFC
00FFFFFC
003FFFE0
0000E000
00000000
00000000
0000F000
0000F000
0001F000
0001E000
0001E000
0001C000
00038000
00038000
ENDCHAR
STARTCHAR 0123
ENCODING 291
SWIDTH 600 0
DWIDTH 30 0
BBX 24 50 3 -12
BITMAP
000E00
001E00
001C00
003C00
003C00
007800
007800
007800
000000
000000
000000
03FE0F
07FF8F
0FFFCF
1FCFFF
3F00FF
7E007F
7C003F
78003F
F8001F
F8001F
F8001F
F0001F
F0001F
F0001F
F0001F
F0001F
F0001F
F8001F
F8001F
F8001F
7C003F
7C003F
3E007F
3F83FF
1FFFDF
0FFF9F
03FF1F
00201F
00001E
00001E
00001E
00003E
00003E
00007C
3800FC
3FFFF8
3FFFF0
3FFFE0
03FF00
ENDCHAR
STARTCHAR 0124
ENCODING 292
SWIDTH 740 0
DWIDTH 37 0
BBX 27 47 5 0
BITMAP
001F0000
003F8000
007FC000
00FBE000
00F1E000
01E0F000
03C07800
07803C00
00000000
00000000
00000000
F00001E0
F00001E0
F00001E0
F00001E0
F00001E0
F00001E0
F00001E0
F00001E0
F00001E0
F00001E0
F00001E0
F00001E0
F00001E0
F00001E0
F00001E0
FFFFFFE0
FFFFFFE0
FFFFFFE0
FFFFFFE0
F00001E0
F00001E0
F00001E0
F00001E0
F00001E0
F00001E0
F00001E0
F00001E0
F00001E0
F00001E0
F00001E0
F00001E0
F00001E0
F00001E0
F00001E0
F00001E0
F00001E0
ENDCHAR
STARTCHAR 0125
ENCODING 293
SWIDTH 600 0
DWIDTH 30 0
BBX 29 50 -2 0
BITMAP
03E00000
03E00000
07F00000
0FF80000
1F7C0000
3E3E0000
7C1F0000
F00F8000
E0038000
00000000
00000000
00000000
03E00000
03E00000
03E00000
03E00000
03E00000
03E00000
03E00000
03E00000
03E00000
03E00000
03E00000
03E1FF00
03E7FFC0
03EFFFE0
03DF9FF0
03FC03F0
03F801F0
03F000F8
03F000F8
03E000F8
03E000F8
03E000F8
03E000F8
03E000F8
03E000F8
03E000F8
03E000F8
03E000F8
03E000F8
03E000F8
03E000F8
03E000F8
03E000F8
03E000F8
03E000F8
03E000F8
03E000F8
03E000F8
ENDCHAR
STARTCHAR 0126
ENCODING 294
SWIDTH 740 0
DWIDTH 37 0
BBX 37 36 0 0
BITMAP
0780000F00
0780000F00
0780000F00
0780000F00
0780000F00
0780000F00
FFFFFFFFF8
FFFFFFFFF8
FFFFFFFFF8
FFFFFFFFF8
0780000F00
0780000F00
0780000F00
0780000F00
0780000F00
07FFFFFF00
07FFFFFF00
07FFFFFF00
07FFFFFF00
0780000F00
0780000F00
0780000F00
0780000F00
0780000F00
0780000F00
0780000F00
0780000F00
0780000F00
0780000F00
0780000F00
0780000F00
0780000F00
0780000F00
0780000F00
0780000F00
0780000F00
ENDCHAR
STARTCHAR 0127
ENCODING 295
SWIDTH 600 0
DWIDTH 30 0
BBX 27 38 0 0
BITMAP
0F800000
0F800000
0F800000
0F800000
FFFFE000
FFFFE000
FFFFE000
FFFFE000
0F800000
0F800000
0F800000
0F800000
0F87FC00
0F9FFF00
0FBFFF80
0F7E7FC0
0FF00FC0
0FE007C0
0FC003E0
0FC003E0
0F8003E0
0F8003E0
0F8003E0
0F8003E0
0F8003E0
0F8003E0
0F8003E0
0F8003E0
0F8003E0
0F8003E0
0F8003E0
0F8003E0
0F8003E0
0F8003E0
0F8003E0
0F8003E0
0F8003E0
0F8003E0
ENDCHAR
STARTCHAR 0128
ENCODING 296
SWIDTH 320 0
DWIDTH 16 0
BBX 19 46 -1 0
BITMAP
0600E0
1F80E0
3FE1C0
7FFFC0
70FF80
607F80
E00C00
000000
000000
000000
1FFF00
1FFF00
1FFF00
07F800
01F000
01F000
01F000
01F000
01F000
01F000
01F000
01F000
01F000
01F000
01F000
01F000
01F000
01F000
01F000
01F000
01F000
01F000
01F000
01F000
01F000
01F000
01F000
01F000
01F000
01F000
01F000
01F000
01F000
1FFF00
1FFF00
1FFF00
ENDCHAR
STARTCHAR 0129
ENCODING 297
SWIDTH 240 0
DWIDTH 12 0
BBX 19 37 -3 0
BITMAP
0600E0
1F80C0
3FE1C0
7FFFC0
70FF80
E03F00
E00C00
000000
000000
000000
01F000
01F000
01F000
01F000
01F000
01F000
01F000
01F000
01F000
01F000
01F000
01F000
01F000
01F000
01F000
01F000
01F000
01F000
01F000
01F000
01F000
01F000
01F000
01F000
01F000
01F000
01F000
ENDCHAR
STARTCHAR 012A
ENCODING 298
SWIDTH 320 0
DWIDTH 16 0
BBX 15 43 1 0
BITMAP
FFFE
FFFE
FFFE
FFFE
0000
0000
0000
7FFC
7FFC
7FFC
1FE0
07C0
07C0
07C0
07C0
07C0
07C0
07C0
07C0
07C0
07C0
07C0
07C0
07C0
07C0
07C0
07C0
07C0
07C0
07C0
07C0
07C0
07C0
07C0
07C0
07C0
07C0
07C0
07C0
07C0
7FFC
7FFC
7FFC
ENDCHAR
STARTCHAR 012B
ENCODING 299
SWIDTH 240 0
DWIDTH 12 0
BBX 15 34 -1 0
BITMAP
FFFE
FFFE
FFFE
FFFE
0000
0000
0000
07C0
07C0
07C0
07C0
07C0
07C0
07C0
07C0
07C0
07C0
07C0
07C0
07C0
07C0
07C0
07C0
07C0
07C0
07C0
07C0
07C0
07C0
07C0
07C0
07C0
07C0
07C0
ENDCHAR
STARTCHAR 012C
ENCODING 300
SWIDTH 320 0
DWIDTH 16 0
BBX 15 46 1 0
BITMAP
C00E
E00E
F01E
7FFC
7FF8
3FF0
0780
0000
0000
0000
7FFC
7FFC
7FFC
1FE0
07C0
07C0
07C0
07C0
07C0
07C0
07C0
07C0
07C0
07C0
07C0
07C0
07C0
07C0
07C0
07C0
07C0
07C0
07C0
07C0
07C0
07C0
07C0
07C0
07C0
07C0
07C0
07C0
07C0
7FFC
7FFC
7FFC
ENDCHAR
STARTCHAR 012D
ENCODING 301
SWIDTH 240 0
DWIDTH 12 0
BBX 15 37 -1 0
BITMAP
C00E
E00E
F01E
7FFC
7FF8
3FF0
0380
0000
0000
0000
07C0
07C0
07C0
07C0
07C0
07C0
07C0
07C0
07C0
07C0
07C0
07C0
07C0
07C0
07C0
07C0
07C0
07C0
07C0
07C0
07C0
07C0
07C0
07C0
07C0
07C0
07C0
ENDCHAR
STARTCHAR 012E
ENCODING 302
SWIDTH 320 0
DWIDTH 16 0
BBX 13 47 2 -11
BITMAP
FFF8
FFF8
FFF8
3FC0
0F80
0F80
0F80
0F80
0F80
0F80
0F80
0F80
0F80
0F80
0F80
0F80
0F80
0F80
0F80
0F80
0F80
0F80
0F80
0F80
0F80
0F80
0F80
0F80
0F80
0F80
0F80
0F80
0F80
FFF8
FFF8
FFF8
00E0
01C0
0380
0780
0700
0700
0700
0780
07F8
03F8
01F8
ENDCHAR
STARTCHAR 012F
ENCODING 303
SWIDTH 240 0
DWIDTH 12 0
BBX 9 48 1 -11
BITMAP
0E00
1F00
1F00
1F00
1F00
0E00
0000
0000
0000
0000
1F00
1F00
1F00
1F00
1F00
1F00
1F00
1F00
1F00
1F00
1F00
1F00
1F00
1F00
1F00
1F00
1F00
1F00
1F00
1F00
1F00
1F00
1F00
1F00
1F00
1F00
1F00
1E00
3C00
3800
7000
7000
F000
F000
F800
7F80
7F80
1F80
ENDCHAR
STARTCHAR 0130
ENCODING 304
SWIDTH 320 0
DWIDTH 16 0
BBX 13 46 2 0
BITMAP
0700
0F80
0F80
0F80
0F80
0700
0000
0000
0000
0000
FFF8
FFF8
FFF8
3FC0
0F80
0F80
0F80
0F80
0F80
0F80
0F80
0F80
0F80
0F80
0F80
0F80
0F80
0F80
0F80
0F80
0F80
0F80
0F80
0F80
0F80
0F80
0F80
0F80
0F80
0F80
0F80
0F80
0F80
FFF8
FFF8
FFF8
ENDCHAR
STARTCHAR 0131
ENCODING 305
SWIDTH 240 0
DWIDTH 12 0
BBX 5 27 4 0
BITMAP
F8
F8
F8
F8
F8
F8
F8
F8
F8
F8
F8
F8
F8
F8
F8
F8
F8
F8
F8
F8
F8
F8
F8
F8
F8
F8
F8
ENDCHAR
STARTCHAR 0132
ENCODING 306
SWIDTH 600 0
DWIDTH 30 0
BBX 24 46 2 -10
BITMAP
FFF80F
FFF80F
FFF80F
3FC00F
0F800F
0F800F
0F800F
0F800F
0F800F
0F800F
0F800F
0F800F
0F800F
0F800F
0F800F
0F800F
0F800F
0F800F
0F800F
0F800F
0F800F
0F800F
0F800F
0F800F
0F800F
0F800F
0F800F
0F800F
0F800F
0F800F
0F800F
0F800F
0F800F
FFF80F
FFF80F
FFF80F
00000F
00001F
00001F
00001F
00003E
001DFE
001FFC
001FF8
001FE0
000200
ENDCHAR
STARTCHAR 0133
ENCODING 307
SWIDTH 500 0
DWIDTH 25 0
BBX 18 49 4 -12
BITMAP
700380
F807C0
F807C0
F807C0
F807C0
700380
000000
000000
000000
000000
F807C0
F807C0
F807C0
F807C0
F807C0
F807C0
F807C0
F807C0
F807C0
F807C0
F807C0
F807C0
F807C0
F807C0
F807C0
F807C0
F807C0
F807C0
F807C0
F807C0
F807C0
F807C0
F807C0
F807C0
F807C0
F807C0
F807C0
0007C0
0007C0
0007C0
0007C0
0007C0
000780
000780
000F80
03FF80
03FF00
03FE00
01F800
ENDCHAR
STARTCHAR 0134
ENCODING 308
SWIDTH 260 0
DWIDTH 13 0
BBX 19 57 -4 -10
BITMAP
00F800
01FC00
01FE00
03FF00
07CF80
0F07C0
1E03E0
3C00E0
000000
000000
000000
007800
007800
007800
007800
007800
007800
007800
007800
007800
007800
007800
007800
007800
007800
007800
007800
007800
007800
007800
007800
007800
007800
007800
007800
007800
007800
007800
007800
007800
007800
007800
007800
007800
007800
007800
007800
007800
00F800
00F800
00F800
01F000
EFF000
FFE000
FFC000
FF0000
100000
ENDCHAR
STARTCHAR 0135
ENCODING 309
SWIDTH 240 0
DWIDTH 12 0
BBX 18 50 -3 -12
BITMAP
01F000
03F800
07FC00
0FBC00
1F1E00
1E0F00
3C0780
7003C0
000000
000000
000000
01F000
01F000
01F000
01F000
01F000
01F000
01F000
01F000
01F000
01F000
01F000
01F000
01F000
01F000
01F000
01F000
01F000
01F000
01F000
01F000
01F000
01F000
01F000
01F000
01F000
01F000
01F000
01F000
01F000
01F000
01F000
01F000
01F000
01E000
03E000
FFE000
FFC000
FF8000
FE0000
ENDCHAR
STARTCHAR 0136
ENCODING 310
SWIDTH 600 0
DWIDTH 30 0
BBX 26 47 5 -11
BITMAP
F0000F80
F0001F00
F0003E00
F0007E00
F000FC00
F001F800
F001F000
F003E000
F007C000
F00F8000
F01F0000
F03E0000
F07C0000
F0F80000
F1F00000
F3F00000
F3F00000
F7F00000
FFF80000
FEFC0000
FC7E0000
F83E0000
F01F0000
F01F8000
F00FC000
F007C000
F003E000
F003F000
F001F000
F000F800
F0007C00
F0007E00
F0003E00
F0001F00
F0000F80
F0000FC0
00000000
00000000
00000000
003E0000
003C0000
003C0000
003C0000
00780000
00700000
00700000
00E00000
ENDCHAR
STARTCHAR 0137
ENCODING 311
SWIDTH 520 0
DWIDTH 26 0
BBX 22 49 4 -11
BITMAP
F80000
F80000
F80000
F80000
F80000
F80000
F80000
F80000
F80000
F80000
F80000
F800F8
F801F0
F803E0
F807C0
F80F80
F81F80
F83F00
F87E00
F8FC00
F8F800
F9F000
FBE000
F7E000
FFF000
FFF800
FEFC00
F87C00
F83E00
F81F00
F81F80
F80F80
F807C0
F803E0
F803F0
F801F0
F800F8
F8007C
000000
000000
000000
00F800
00F000
00F000
01E000
01E000
01C000
01C000
038000
ENDCHAR
STARTCHAR 0138
ENCODING 312
SWIDTH 520 0
DWIDTH 26 0
BBX 22 27 4 0
BITMAP
F800F8
F801F0
F803F0
F807E0
F80FC0
F80F80
F81F00
F83E00
F87C00
F8FC00
F9F800
F9F000
FBF000
FFF000
FFF800
FE7C00
FC7E00
F83E00
F81F00
F80F80
F80F80
F807C0
F803E0
F803F0
F801F0
F800F8
F8007C
ENDCHAR
STARTCHAR 0139
ENCODING 313
SWIDTH 520 0
DWIDTH 26 0
BBX 21 47 4 0
BITMAP
07C000
0F8000
0F8000
1F0000
3E0000
3C0000
780000
F00000
000000
000000
000000
780000
780000
780000
780000
780000
780000
780000
780000
780000
780000
780000
780000
780000
780000
780000
780000
780000
780000
780000
780000
780000
780000
780000
780000
780000
780000
780000
780000
780000
780000
780000
780000
7FFFF8
7FFFF8
7FFFF8
7FFFF8
ENDCHAR
STARTCHAR 013A
ENCODING 314
SWIDTH 240 0
DWIDTH 12 0
BBX 10 50 4 0
BITMAP
07C0
0FC0
1F80
1F00
3E00
3C00
7800
F000
E000
0000
0000
0000
F800
F800
F800
F800
F800
F800
F800
F800
F800
F800
F800
F800
F800
F800
F800
F800
F800
F800
F800
F800
F800
F800
F800
F800
F800
F800
F800
F800
F800
F800
F800
F800
F800
F800
F800
F800
F800
F800
ENDCHAR
STARTCHAR 013B
ENCODING 315
SWIDTH 520 0
DWIDTH 26 0
BBX 20 47 5 -11
BITMAP
F00000
F00000
F00000
F00000
F00000
F00000
F00000
F00000
F00000
F00000
F00000
F00000
F00000
F00000
F00000
F00000
F00000
F00000
F00000
F00000
F00000
F00000
F00000
F00000
F00000
F00000
F00000
F00000
F00000
F00000
F00000
F00000
FFFFF0
FFFFF0
FFFFF0
FFFFF0
000000
000000
000000
007800
007800
00F800
00F000
00F000
00E000
01C000
01C000
ENDCHAR
STARTCHAR 013C
ENCODING 316
SWIDTH 240 0
DWIDTH 12 0
BBX 7 49 3 -11
BITMAP
7C
7C
7C
7C
7C
7C
7C
7C
7C
7C
7C
7C
7C
7C
7C
7C
7C
7C
7C
7C
7C
7C
7C
7C
7C
7C
7C
7C
7C
7C
7C
7C
7C
7C
7C
7C
7C
7C
00
00
00
3E
3C
3C
3C
78
70
70
E0
ENDCHAR
STARTCHAR 013D
ENCODING 317
SWIDTH 520 0
DWIDTH 26 0
BBX 20 36 5 0
BITMAP
F000F0
F001F0
F001E0
F001E0
F001E0
F001C0
F00380
F00380
F00000
F00000
F00000
F00000
F00000
F00000
F00000
F00000
F00000
F00000
F00000
F00000
F00000
F00000
F00000
F00000
F00000
F00000
F00000
F00000
F00000
F00000
F00000
F00000
FFFFF0
FFFFF0
FFFFF0
FFFFF0
ENDCHAR
STARTCHAR 013E
ENCODING 318
SWIDTH 240 0
DWIDTH 12 0
BBX 13 38 4 0
BITMAP
F8F8
F8F8
F8F0
F8F0
F8E0
F9E0
F9C0
F9C0
F800
F800
F800
F800
F800
F800
F800
F800
F800
F800
F800
F800
F800
F800
F800
F800
F800
F800
F800
F800
F800
F800
F800
F800
F800
F800
F800
F800
F800
F800
ENDCHAR
STARTCHAR 013F
ENCODING 319
SWIDTH 520 0
DWIDTH 26 0
BBX 20 36 5 0
BITMAP
F00000
F00000
F00000
F00000
F00000
F00000
F00000
F00000
F00000
F00000
F00000
F00000
F00000
F00000
F00000
F00600
F00F00
F00F80
F00F80
F00F00
F00700
F00000
F00000
F00000
F00000
F00000
F00000
F00000
F00000
F00000
F00000
F00000
FFFFF0
FFFFF0
FFFFF0
FFFFF0
ENDCHAR
STARTCHAR 0140
ENCODING 320
SWIDTH 260 0
DWIDTH 13 0
BBX 12 38 4 0
BITMAP
F800
F800
F800
F800
F800
F800
F800
F800
F800
F800
F800
F800
F800
F800
F800
F800
F8C0
F9E0
F9F0
F9F0
F9E0
F8C0
F800
F800
F800
F800
F800
F800
F800
F800
F800
F800
F800
F800
F800
F800
F800
F800
ENDCHAR
STARTCHAR 0141
ENCODING 321
SWIDTH 520 0
DWIDTH 26 0
BBX 24 36 1 0
BITMAP
0F0000
0F0000
0F0000
0F0000
0F0000
0F0000
0F0000
0F0000
0F0000
0F0000
0F0000
0F0000
0F0000
0F0300
0F0F00
0F1F80
0F7F00
0FFC00
0FF800
0FE000
3F8000
7F0000
FF0000
FF0000
4F0000
0F0000
0F0000
0F0000
0F0000
0F0000
0F0000
0F0000
0FFFFF
0FFFFF
0FFFFF
0FFFFF
ENDCHAR
STARTCHAR 0142
ENCODING 322
SWIDTH 240 0
DWIDTH 12 0
BBX 13 38 0 0
BITMAP
0F00
0F00
0F00
0F00
0F00
0F00
0F00
0F00
0F00
0F00
0F00
0F00
0F00
0F00
0F00
0F30
0F78
0FF8
0FF0
0FC0
3F80
7F00
FF00
FF00
6F00
0F00
0F00
0F00
0F00
0F00
0F00
0F00
0F00
0F00
0F00
0F00
0F00
0F00
ENDCHAR
STARTCHAR 0143
ENCODING 323
SWIDTH 760 0
DWIDTH 38 0
BBX 28 47 5 0
BITMAP
0000F800
0001F000
0001F000
0003E000
0007C000
00078000
000F0000
001E0000
00000000
00000000
00000000
F80000F0
FC0000F0
FC0000F0
FE0000F0
FF0000F0
FF0000F0
FF8000F0
F7C000F0
F7C000F0
F3E000F0
F3F000F0
F1F000F0
F0F800F0
F0FC00F0
F07C00F0
F03E00F0
F03F00F0
F01F00F0
F00F80F0
F00F80F0
F007C0F0
F003E0F0
F003E0F0
F001F0F0
F001F8F0
F000F8F0
F0007CF0
F0007EF0
F0003EF0
F0001FF0
F0001FF0
F0000FF0
F00007F0
F00007F0
F00003F0
F00001F0
ENDCHAR
STARTCHAR 0144
ENCODING 324
SWIDTH 600 0
DWIDTH 30 0
BBX 23 38 4 0
BITMAP
0007E0
0007C0
000F80
001F00
001E00
003C00
007800
007000
000000
000000
000000
F07FC0
F1FFF0
F3FFF8
F7E7FC
FF00FC
FE007C
FC003E
FC003E
F8003E
F8003E
F8003E
F8003E
F8003E
F8003E
F8003E
F8003E
F8003E
F8003E
F8003E
F8003E
F8003E
F8003E
F8003E
F8003E
F8003E
F8003E
F8003E
ENDCHAR
STARTCHAR 0145
ENCODING 325
SWIDTH 760 0
DWIDTH 38 0
BBX 28 47 5 -11
BITMAP
F80000F0
FC0000F0
FC0000F0
FE0000F0
FF0000F0
FF0000F0
FF8000F0
F7C000F0
F7C000F0
F3E000F0
F3F000F0
F1F000F0
F0F800F0
F0FC00F0
F07C00F0
F03E00F0
F03F00F0
F01F00F0
F00F80F0
F00F80F0
F007C0F0
F003E0F0
F003E0F0
F001F0F0
F001F8F0
F000F8F0
F0007CF0
F0007EF0
F0003EF0
F0001FF0
F0001FF0
F0000FF0
F00007F0
F00007F0
F00003F0
F00001F0
00000000
00000000
00000000
00078000
00078000
000F8000
000F0000
000F0000
000E0000
001C0000
001C0000
ENDCHAR
STARTCHAR 0146
ENCODING 326
SWIDTH 600 0
DWIDTH 30 0
BBX 23 38 4 -11
BITMAP
F07FC0
F1FFF0
F3FFF8
F7E7FC
FF00FC
FE007C
FC003E
FC003E
F8003E
F8003E
F8003E
F8003E
F8003E
F8003E
F8003E
F8003E
F8003E
F8003E
F8003E
F8003E
F8003E
F8003E
F8003E
F8003E
F8003E
F8003E
F8003E
000000
000000
000000
003E00
003C00
003C00
003C00
007800
007000
007000
00E000
ENDCHAR
STARTCHAR 0147
ENCODING 327
SWIDTH 760 0
DWIDTH 38 0
BBX 28 47 5 0
BITMAP
03C03C00
01E07800
01F0F000
00F9F000
007FE000
003FC000
001F8000
000F0000
00000000
00000000
00000000
F80000F0
FC0000F0
FC0000F0
FE0000F0
FF0000F0
FF0000F0
FF8000F0
F7C000F0
F7C000F0
F3E000F0
F3F000F0
F1F000F0
F0F800F0
F0FC00F0
F07C00F0
F03E00F0
F03F00F0
F01F00F0
F00F80F0
F00F80F0
F007C0F0
F003E0F0
F003E0F0
F001F0F0
F001F8F0
F000F8F0
F0007CF0
F0007EF0
F0003EF0
F0001FF0
F0001FF0
F0000FF0
F00007F0
F00007F0
F00003F0
F00001F0
ENDCHAR
STARTCHAR 0148
ENCODING 328
SWIDTH 600 0
DWIDTH 30 0
BBX 23 38 4 0
BITMAP
1E00F0
0F03E0
07C7C0
03EF80
01FF00
00FE00
00FC00
007C00
000000
000000
000000
F07FC0
F1FFF0
F3FFF8
F7E7FC
FF00FC
FE007C
FC003E
FC003E
F8003E
F8003E
F8003E
F8003E
F8003E
F8003E
F8003E
F8003E
F8003E
F8003E
F8003E
F8003E
F8003E
F8003E
F8003E
F8003E
F8003E
F8003E
F8003E
ENDCHAR
STARTCHAR 0149
ENCODING 329
SWIDTH 680 0
DWIDTH 34 0
BBX 30 36 0 0
BITMAP
3E000000
3E000000
3E000000
3E000000
3C000000
3C000000
7C000000
78000000
78000000
78E0FF80
70F3FFE0
F0F7FFF0
E0FFE7F8
00FE00FC
00FC007C
00F8007C
00F8003C
00F8003C
00F0003C
00F0003C
00F0003C
00F0003C
00F0003C
00F0003C
00F0003C
00F0003C
00F0003C
00F0003C
00F0003C
00F0003C
00F0003C
00F0003C
00F0003C
00F0003C
00F0003C
00F0003C
ENDCHAR
STARTCHAR 014A
ENCODING 330
SWIDTH 760 0
DWIDTH 38 0
BBX 28 46 5 -10
BITMAP
F80000F0
FC0000F0
FE0000F0
FE0000F0
FF0000F0
FF8000F0
FF8000F0
F7C000F0
F7E000F0
F3E000F0
F1F000F0
F1F800F0
F0F800F0
F07C00F0
F07E00F0
F03E00F0
F01F00F0
F01F80F0
F00F80F0
F007C0F0
F007E0F0
F003E0F0
F001F0F0
F001F8F0
F000F8F0
F0007CF0
F0007CF0
F0003EF0
F0001FF0
F0000FF0
F0000FF0
F00007F0
F00003F0
F00003F0
F00001F0
F00000F0
000000F0
000000F0
000000F0
000001F0
000003E0
0001DFE0
0001FFC0
0001FF80
0001FF00
00002000
ENDCHAR
STARTCHAR 014B
ENCODING 331
SWIDTH 600 0
DWIDTH 30 0
BBX 23 39 4 -12
BITMAP
F07FC0
F1FFF0
F3FFF8
F7E7FC
FF00FC
FE007C
FC003E
FC003E
F8003E
F8003E
F8003E
F8003E
F8003E
F8003E
F8003E
F8003E
F8003E
F8003E
F8003E
F8003E
F8003E
F8003E
F8003E
F8003E
F8003E
F8003E
F8003E
00003E
00003E
00003E
00003E
00003E
00003E
00003E
00007C
000FFC
000FF8
000FF8
000FE0
ENDCHAR
STARTCHAR 014C
ENCODING 332
SWIDTH 780 0
DWIDTH 39 0
BBX 33 44 3 -1
BITMAP
007FFF0000
007FFF0000
007FFF0000
007FFF0000
0000000000
0000000000
0000000000
001FFC0000
00FFFF8000
01FFFFC000
07FFFFF000
0FF007F800
0FC001F800
1F80007C00
3F00007E00
3E00003E00
7C00001F00
7C00001F00
7C00001F00
7800000F00
F800000F80
F800000F80
F800000F80
F800000F80
F800000F80
F800000F80
F800000F80
F800000F80
F800000F80
F800000F80
7800000F00
7C00001F00
7C00001F00
7C00001F00
3E00003E00
3E00003E00
1F00007C00
1F8000FC00
0FE003F800
07FE3FF000
03FFFFE000
00FFFF8000
003FFE0000
0000800000
ENDCHAR
STARTCHAR 014D
ENCODING 333
SWIDTH 600 0
DWIDTH 30 0
BBX 25 35 3 -1
BITMAP
07FFF000
07FFF000
07FFF000
07FFF000
00000000
00000000
00000000
01FF8000
07FFE000
0FFFF000
1FE7F800
3F00FC00
3E003E00
7C003E00
78001F00
F8001F00
F8000F00
F8000F00
F0000F00
F0000F80
F0000F80
F0000F80
F0000F00
F0000F00
F8000F00
F8001F00
78001F00
7C003E00
3C003E00
3F007C00
1FC1FC00
0FFFF800
07FFE000
01FF8000
00180000
ENDCHAR
STARTCHAR 014E
ENCODING 334
SWIDTH 780 0
DWIDTH 39 0
BBX 33 47 3 -1
BITMAP
0070070000
0070070000
00780F0000
003FFE0000
003FFC0000
001FF80000
0003C00000
0000000000
0000000000
0000000000
001FFC0000
00FFFF8000
01FFFFC000
07FFFFF000
0FF007F800
0FC001F800
1F80007C00
3F00007E00
3E00003E00
7C00001F00
7C00001F00
7C00001F00
7800000F00
F800000F80
F800000F80
F800000F80
F800000F80
F800000F80
F800000F80
F800000F80
F800000F80
F800000F80
F800000F80
7800000F00
7C00001F00
7C00001F00
7C00001F00
3E00003E00
3E00003E00
1F00007C00
1F8000FC00
0FE003F800
07FE3FF000
03FFFFE000
00FFFF8000
003FFE0000
0000800000
ENDCHAR
STARTCHAR 014F
ENCODING 335
SWIDTH 600 0
DWIDTH 30 0
BBX 25 38 3 -1
BITMAP
0E007000
06007000
0700E000
07FFE000
03FFC000
01FF8000
00180000
00000000
00000000
00000000
01FF8000
07FFE000
0FFFF000
1FE7F800
3F00FC00
3E003E00
7C003E00
78001F00
F8001F00
F8000F00
F8000F00
F0000F00
F0000F80
F0000F80
F0000F80
F0000F00
F0000F00
F8000F00
F8001F00
78001F00
7C003E00
3C003E00
3F007C00
1FC1FC00
0FFFF800
07FFE000
01FF8000
00180000
ENDCHAR
STARTCHAR 0150
ENCODING 336
SWIDTH 780 0
DWIDTH 39 0
BBX 33 48 3 -1
BITMAP
000F8F8000
001F0F8000
003E1F0000
003C1E0000
00783C0000
0078780000
00F0700000
00C0E00000
0000000000
0000000000
0000000000
001FFC0000
00FFFF8000
01FFFFC000
07FFFFF000
0FF007F800
0FC001F800
1F80007C00
3F00007E00
3E00003E00
7C00001F00
7C00001F00
7C00001F00
7800000F00
F800000F80
F800000F80
F800000F80
F800000F80
F800000F80
F800000F80
F800000F80
F800000F80
F800000F80
F800000F80
7800000F00
7C00001F00
7C00001F00
7C00001F00
3E00003E00
3E00003E00
1F00007C00
1F8000FC00
0FE003F800
07FE3FF000
03FFFFE000
00FFFF8000
003FFE0000
0000800000
ENDCHAR
STARTCHAR 0151
ENCODING 337
SWIDTH 600 0
DWIDTH 30 0
BBX 25 39 3 -1
BITMAP
01F0F800
01E1F000
03E1E000
07C3E000
0783C000
0F078000
0E0F0000
1C0E0000
00000000
00000000
00000000
01FF8000
07FFE000
0FFFF000
1FE7F800
3F00FC00
3E003E00
7C003E00
78001F00
F8001F00
F8000F00
F8000F00
F0000F00
F0000F80
F0000F80
F0000F80
F0000F00
F0000F00
F8000F00
F8001F00
78001F00
7C003E00
3C003E00
3F007C00
1FC1FC00
0FFFF800
07FFE000
01FF8000
00180000
ENDCHAR
STARTCHAR 0152
ENCODING 338
SWIDTH 920 0
DWIDTH 46 0
BBX 40 37 3 -1
BITMAP
001FFFFFFF
00FFFFFFFF
01FFFFFFFF
07FFFFFFFF
0FF003C000
1FC003C000
1F8003C000
3F0003C000
3E0003C000
7C0003C000
7C0003C000
7C0003C000
780003C000
F80003C000
F80003C000
F80003FFFE
F80003FFFE
F80003FFFE
F80003FFFE
F80003C000
F80003C000
F80003C000
F80003C000
780003C000
7C0003C000
7C0003C000
7C0003C000
3E0003C000
3E0003C000
1F0003C000
1F8003C000
0FE003C000
07FF3FFFFF
03FFFFFFFF
00FFFFFFFF
003FFFFFFF
0000800000
ENDCHAR
STARTCHAR 0153
ENCODING 339
SWIDTH 940 0
DWIDTH 47 0
BBX 42 28 3 -1
BITMAP
01FF001FE000
07FFC07FF800
0FFFE0FFFC00
1FE7F1FCFE00
3F00FBE01F00
7C007FC00F00
7C003F800F80
78003F800780
F8001F000780
F8001F0007C0
F0001F0007C0
F0001FFFFFC0
F0001FFFFFC0
F0001FFFFFC0
F0001F000000
F0001F000000
F0001F000000
F8001F000000
F8001F000000
78003F800000
7C003F800000
7C007FC00000
3E00FBE00180
1F83F9FC3F80
0FFFF0FFFF80
07FFE07FFF80
01FF801FFE00
001000018000
ENDCHAR
STARTCHAR 0154
ENCODING 340
SWIDTH 620 0
DWIDTH 31 0
BBX 25 47 5 0
BITMAP
000FC000
000F8000
001F0000
003E0000
003C0000
00780000
00F00000
00E00000
00000000
00000000
00000000
FFF80000
FFFF8000
FFFFE000
FFFFF000
F00FF800
F000FC00
F0007C00
F0007C00
F0003E00
F0003E00
F0003E00
F0003E00
F0003E00
F0003C00
F0007C00
F000F800
F001F800
FFFFF000
FFFFE000
FFFF8000
FFFF0000
F00F0000
F00F8000
F007C000
F007C000
F003E000
F001F000
F001F000
F000F800
F000F800
F0007C00
F0007E00
F0003E00
F0001F00
F0001F00
F0000F80
ENDCHAR
STARTCHAR 0155
ENCODING 341
SWIDTH 400 0
DWIDTH 20 0
BBX 16 38 4 0
BITMAP
003E
007C
00FC
00F8
01F0
01E0
03C0
0780
0000
0000
0000
F07F
F0FF
F1FF
F3FE
F780
FF00
FE00
FC00
F800
F800
F800
F800
F800
F800
F800
F800
F800
F800
F800
F800
F800
F800
F800
F800
F800
F800
F800
ENDCHAR
STARTCHAR 0156
ENCODING 342
SWIDTH 620 0
DWIDTH 31 0
BBX 25 47 5 -11
BITMAP
FFF80000
FFFF8000
FFFFE000
FFFFF000
F00FF800
F000FC00
F0007C00
F0007C00
F0003E00
F0003E00
F0003E00
F0003E00
F0003E00
F0003C00
F0007C00
F000F800
F001F800
FFFFF000
FFFFE000
FFFF8000
FFFF0000
F00F0000
F00F8000
F007C000
F007C000
F003E000
F001F000
F001F000
F000F800
F000F800
F0007C00
F0007E00
F0003E00
F0001F00
F0001F00
F0000F80
00000000
00000000
00000000
003E0000
003C0000
003C0000
00380000
00780000
00700000
00700000
00E00000
ENDCHAR
STARTCHAR 0157
ENCODING 343
SWIDTH 400 0
DWIDTH 20 0
BBX 17 38 3 -11
BITMAP
783F80
787F80
78FF80
79FF00
7BC000
7F8000
7F0000
7E0000
7C0000
7C0000
7C0000
7C0000
7C0000
7C0000
7C0000
7C0000
7C0000
7C0000
7C0000
7C0000
7C0000
7C0000
7C0000
7C0000
7C0000
7C0000
7C0000
000000
000000
000000
3E0000
3C0000
3C0000
780000
780000
700000
F00000
E00000
ENDCHAR
STARTCHAR 0158
ENCODING 344
SWIDTH 620 0
DWIDTH 31 0
BBX 25 47 5 0
BITMAP
3C01E000
1E03C000
0F8F8000
07DF0000
03FE0000
01FC0000
01FC0000
00F80000
00000000
00000000
00000000
FFF80000
FFFF8000
FFFFE000
FFFFF000
F00FF800
F000FC00
F0007C00
F0007C00
F0003E00
F0003E00
F0003E00
F0003E00
F0003E00
F0003C00
F0007C00
F000F800
F001F800
FFFFF000
FFFFE000
FFFF8000
FFFF0000
F00F0000
F00F8000
F007C000
F007C000
F003E000
F001F000
F001F000
F000F800
F000F800
F0007C00
F0007E00
F0003E00
F0001F00
F0001F00
F0000F80
ENDCHAR
STARTCHAR 0159
ENCODING 345
SWIDTH 400 0
DWIDTH 20 0
BBX 16 38 4 0
BITMAP
F00F
781E
3C3C
3E78
1FF8
0FF0
07E0
03C0
0000
0000
0000
F07F
F0FF
F1FF
F3FE
F780
FF00
FE00
FC00
F800
F800
F800
F800
F800
F800
F800
F800
F800
F800
F800
F800
F800
F800
F800
F800
F800
F800
F800
ENDCHAR
STARTCHAR 015A
ENCODING 346
SWIDTH 540 0
DWIDTH 27 0
BBX 22 48 3 -1
BITMAP
0007E0
000FC0
000F80
001F00
003E00
003C00
007800
007000
000000
000000
000000
01FF80
0FFFF8
1FFFF8
3FFFF8
7E00F0
7C0010
F80000
F80000
F80000
F80000
F80000
F80000
7C0000
7E0000
3F8000
3FE000
1FF800
07FF00
01FF80
007FE0
000FF0
0003F8
0001F8
00007C
00007C
00007C
00003C
00003C
00007C
00007C
0000F8
C001F8
FF3FF0
FFFFE0
FFFFC0
7FFF00
00C000
ENDCHAR
STARTCHAR 015B
ENCODING 347
SWIDTH 460 0
DWIDTH 23 0
BBX 19 39 3 -1
BITMAP
001F00
003E00
007E00
007C00
00F800
00F000
01E000
03C000
000000
000000
000000
0FFE00
3FFFC0
7FFFC0
FE0F80
F80180
F00000
F00000
F00000
F00000
FC0000
7F0000
3FC000
1FF800
07FE00
01FF00
003F80
000FC0
0007C0
0003E0
0003E0
0003E0
0003E0
8007C0
F00FC0
FFFF80
FFFF00
7FFC00
018000
ENDCHAR
STARTCHAR 015C
ENCODING 348
SWIDTH 540 0
DWIDTH 27 0
BBX 22 48 3 -1
BITMAP
00FC00
00FE00
01FE00
03FF00
07CF80
0F87C0
1F01E0
1C00F0
000000
000000
000000
01FF80
0FFFF8
1FFFF8
3FFFF8
7E00F0
7C0010
F80000
F80000
F80000
F80000
F80000
F80000
7C0000
7E0000
3F8000
3FE000
1FF800
07FF00
01FF80
007FE0
000FF0
0003F8
0001F8
00007C
00007C
00007C
00003C
00003C
00007C
00007C
0000F8
C001F8
FF3FF0
FFFFE0
FFFFC0
7FFF00
00C000
ENDCHAR
STARTCHAR 015D
ENCODING 349
SWIDTH 460 0
DWIDTH 23 0
BBX 19 39 3 -1
BITMAP
03F000
07F000
07F800
0FFC00
1F3E00
3C1F00
780780
700380
000000
000000
000000
0FFE00
3FFFC0
7FFFC0
FE0F80
F80180
F00000
F00000
F00000
F00000
FC0000
7F0000
3FC000
1FF800
07FE00
01FF00
003F80
000FC0
0007C0
0003E0
0003E0
0003E0
0003E0
8007C0
F00FC0
FFFF80
FFFF00
7FFC00
018000
ENDCHAR
STARTCHAR 015E
ENCODING 350
SWIDTH 540 0
DWIDTH 27 0
BBX 22 48 3 -12
BITMAP
01FF80
0FFFF8
1FFFF8
3FFFF8
7E00F0
7C0010
F80000
F80000
F80000
F80000
F80000
F80000
7C0000
7E0000
3F8000
3FE000
1FF800
07FF00
01FF80
007FE0
000FF0
0003F8
0001F8
00007C
00007C
00007C
00003C
00003C
00007C
00007C
0000F8
C001F8
FF3FF0
FFFFE0
FFFFC0
7FFF00
00F000
00E000
00E000
01F800
00FC00
003E00
001E00
001E00
001E00
07FC00
07F800
07E000
ENDCHAR
STARTCHAR 015F
ENCODING 351
SWIDTH 460 0
DWIDTH 23 0
BBX 19 39 3 -12
BITMAP
0FFE00
3FFFC0
7FFFC0
FE0F80
F80180
F00000
F00000
F00000
F00000
FC0000
7F0000
3FC000
1FF800
07FE00
01FF00
003F80
000FC0
0007C0
0003E0
0003E0
0003E0
0003E0
8007C0
F00FC0
FFFF80
FFFF00
7FFC00
01E000
01C000
01C000
03F000
01F800
003C00
003C00
003C00
003C00
0FF800
0FF000
0FC000
ENDCHAR
STARTCHAR 0160
ENCODING 352
SWIDTH 540 0
DWIDTH 27 0
BBX 22 48 3 -1
BITMAP
1E00F0
0F03E0
0787C0
03CF80
03FF00
01FE00
00FC00
007C00
000000
000000
000000
01FF80
0FFFF8
1FFFF8
3FFFF8
7E00F0
7C0010
F80000
F80000
F80000
F80000
F80000
F80000
7C0000
7E0000
3F8000
3FE000
1FF800
07FF00
01FF80
007FE0
000FF0
0003F8
0001F8
00007C
00007C
00007C
00003C
00003C
00007C
00007C
0000F8
C001F8
FF3FF0
FFFFE0
FFFFC0
7FFF00
00C000
ENDCHAR
STARTCHAR 0161
ENCODING 353
SWIDTH 460 0
DWIDTH 23 0
BBX 19 39 3 -1
BITMAP
780780
3C0F00
1E1E00
1F3C00
0FFC00
07F800
03F000
01E000
000000
000000
000000
0FFE00
3FFFC0
7FFFC0
FE0F80
F80180
F00000
F00000
F00000
F00000
FC0000
7F0000
3FC000
1FF800
07FE00
01FF00
003F80
000FC0
0007C0
0003E0
0003E0
0003E0
0003E0
8007C0
F00FC0
FFFF80
FFFF00
7FFC00
018000
ENDCHAR
STARTCHAR 0162
ENCODING 354
SWIDTH 540 0
DWIDTH 27 0
BBX 27 48 0 -12
BITMAP
FFFFFFE0
FFFFFFE0
FFFFFFE0
FFFFFFE0
000F0000
000F0000
000F0000
000F0000
000F0000
000F0000
000F0000
000F0000
000F0000
000F0000
000F0000
000F0000
000F0000
000F0000
000F0000
000F0000
000F0000
000F0000
000F0000
000F0000
000F0000
000F0000
000F0000
000F0000
000F0000
000F0000
000F0000
000F0000
000F0000
000F0000
000F0000
000F0000
00070000
000E0000
000E0000
001F8000
000FC000
0001E000
0001E000
0001E000
0001E000
007FC000
007F8000
007E0000
ENDCHAR
STARTCHAR 0163
ENCODING 355
SWIDTH 360 0
DWIDTH 18 0
BBX 16 45 1 -12
BITMAP
0700
0700
0700
0F00
0F00
0F00
3FFF
FFFF
FFFF
FFFF
0F00
0F00
0F00
0F00
0F00
0F00
0F00
0F00
0F00
0F00
0F00
0F00
0F00
0F00
0F00
0F00
0F00
0F00
0F80
0FC1
07FF
03FF
01FF
0070
00E0
00C0
01F8
00FC
003E
001E
001E
001E
07FC
07F8
07E0
ENDCHAR
STARTCHAR 0164
ENCODING 356
SWIDTH 540 0
DWIDTH 27 0
BBX 27 47 0 0
BITMAP
07803C00
03E07800
01F0F000
00F9E000
007FE000
003FC000
001F8000
001F0000
00000000
00000000
00000000
FFFFFFE0
FFFFFFE0
FFFFFFE0
FFFFFFE0
000F0000
000F0000
000F0000
000F0000
000F0000
000F0000
000F0000
000F0000
000F0000
000F0000
000F0000
000F0000
000F0000
000F0000
000F0000
000F0000
000F0000
000F0000
000F0000
000F0000
000F0000
000F0000
000F0000
000F0000
000F0000
000F0000
000F0000
000F0000
000F0000
000F0000
000F0000
000F0000
ENDCHAR
STARTCHAR 0165
ENCODING 357
SWIDTH 360 0
DWIDTH 18 0
BBX 23 39 1 -1
BITMAP
00003E
00003C
00003C
000038
000078
070070
070070
0700E0
0F0000
0F0000
0F0000
3FFF00
FFFF00
FFFF00
FFFF00
0F0000
0F0000
0F0000
0F0000
0F0000
0F0000
0F0000
0F0000
0F0000
0F0000
0F0000
0F0000
0F0000
0F0000
0F0000
0F0000
0F0000
0F0000
0F8000
0FC100
07FF00
03FF00
01FF00
001000
ENDCHAR
STARTCHAR 0166
ENCODING 358
SWIDTH 540 0
DWIDTH 27 0
BBX 27 36 0 0
BITMAP
FFFFFFE0
FFFFFFE0
FFFFFFE0
FFFFFFE0
000F0000
000F0000
000F0000
000F0000
000F0000
000F0000
000F0000
000F0000
000F0000
000F0000
000F0000
000F0000
0FFFFF00
0FFFFF00
0FFFFF00
0FFFFF00
000F0000
000F0000
000F0000
000F0000
000F0000
000F0000
000F0000
000F0000
000F0000
000F0000
000F0000
000F0000
000F0000
000F0000
000F0000
000F0000
ENDCHAR
STARTCHAR 0167
ENCODING 359
SWIDTH 360 0
DWIDTH 18 0
BBX 16 34 1 -1
BITMAP
0700
0700
0700
0F00
0F00
0F00
3FFF
FFFF
FFFF
FFFF
0F00
0F00
0F00
0F00
0F00
0F00
FFFE
FFFE
FFFE
0F00
0F00
0F00
0F00
0F00
0F00
0F00
0F00
0F00
0F80
0FC1
07FF
03FF
01FF
0010
ENDCHAR
STARTCHAR 0168
ENCODING 360
SWIDTH 720 0
DWIDTH 36 0
BBX 28 47 4 -1
BITMAP
00300600
01FC0600
01FF0E00
03FFFE00
0387FC00
0703F800
0700E000
00000000
00000000
00000000
F80000F0
F80000F0
F80000F0
F80000F0
F80000F0
F80000F0
F80000F0
F80000F0
F80000F0
F80000F0
F80000F0
F80000F0
F80000F0
F80000F0
F80000F0
F80000F0
F80000F0
F80000F0
F80000F0
F80000F0
F80000F0
F80000F0
F80000F0
F80000F0
780001F0
780001F0
780001F0
7C0001E0
7C0003E0
3E0003E0
3F0007C0
1F800FC0
0FF8FF80
07FFFF00
03FFFC00
00FFF000
00060000
ENDCHAR
STARTCHAR 0169
ENCODING 361
SWIDTH 600 0
DWIDTH 30 0
BBX 23 38 4 -1
BITMAP
018038
07E030
0FF870
1FFFF0
1C3FE0
380FC0
380300
000000
000000
000000
F0003E
F0003E
F0003E
F0003E
F0003E
F0003E
F0003E
F0003E
F0003E
F0003E
F0003E
F0003E
F0003E
F0003E
F0003E
F0003E
F0003E
F0003E
F0003E
F8007E
F8007E
F800FE
7C01FE
7F07FE
3FFF9E
1FFF1E
0FFE1E
004000
ENDCHAR
STARTCHAR 016A
ENCODING 362
SWIDTH 720 0
DWIDTH 36 0
BBX 28 44 4 -1
BITMAP
01FFFC00
01FFFC00
01FFFC00
01FFFC00
00000000
00000000
00000000
F80000F0
F80000F0
F80000F0
F80000F0
F80000F0
F80000F0
F80000F0
F80000F0
F80000F0
F80000F0
F80000F0
F80000F0
F80000F0
F80000F0
F80000F0
F80000F0
F80000F0
F80000F0
F80000F0
F80000F0
F80000F0
F80000F0
F80000F0
F80000F0
780001F0
780001F0
780001F0
7C0001E0
7C0003E0
3E0003E0
3F0007C0
1F800FC0
0FF8FF80
07FFFF00
03FFFC00
00FFF000
00060000
ENDCHAR
STARTCHAR 016B
ENCODING 363
SWIDTH 600 0
DWIDTH 30 0
BBX 23 35 4 -1
BITMAP
0FFFE0
0FFFE0
0FFFE0
0FFFE0
000000
000000
000000
F0003E
F0003E
F0003E
F0003E
F0003E
F0003E
F0003E
F0003E
F0003E
F0003E
F0003E
F0003E
F0003E
F0003E
F0003E
F0003E
F0003E
F0003E
F0003E
F8007E
F8007E
F800FE
7C01FE
7F07FE
3FFF9E
1FFF1E
0FFE1E
004000
ENDCHAR
STARTCHAR 016C
ENCODING 364
SWIDTH 720 0
DWIDTH 36 0
BBX 28 47 4 -1
BITMAP
01801C00
01C01C00
01C03800
01FFF800
00FFF000
007FE000
000F0000
00000000
00000000
00000000
F80000F0
F80000F0
F80000F0
F80000F0
F80000F0
F80000F0
F80000F0
F80000F0
F80000F0
F80000F0
F80000F0
F80000F0
F80000F0
F80000F0
F80000F0
F80000F0
F80000F0
F80000F0
F80000F0
F80000F0
F80000F0
F80000F0
F80000F0
F80000F0
780001F0
780001F0
780001F0
7C0001E0
7C0003E0
3E0003E0
3F0007C0
1F800FC0
0FF8FF80
07FFFF00
03FFFC00
00FFF000
00060000
ENDCHAR
STARTCHAR 016D
ENCODING 365
SWIDTH 600 0
DWIDTH 30 0
BBX 23 38 4 -1
BITMAP
0C00E0
0E00E0
0F01E0
07FFC0
07FF80
03FF00
003800
000000
000000
000000
F0003E
F0003E
F0003E
F0003E
F0003E
F0003E
F0003E
F0003E
F0003E
F0003E
F0003E
F0003E
F0003E
F0003E
F0003E
F0003E
F0003E
F0003E
F0003E
F8007E
F8007E
F800FE
7C01FE
7F07FE
3FFF9E
1FFF1E
0FFE1E
004000
ENDCHAR
STARTCHAR 016E
ENCODING 366
SWIDTH 720 0
DWIDTH 36 0
BBX 28 51 4 -1
BITMAP
00070000
003FC000
003FE000
0070E000
00707000
00607000
00707000
0070E000
003FE000
003FC000
000F0000
00000000
00000000
00000000
F80000F0
F80000F0
F80000F0
F80000F0
F80000F0
F80000F0
F80000F0
F80000F0
F80000F0
F80000F0
F80000F0
F80000F0
F80000F0
F80000F0
F80000F0
F80000F0
F80000F0
F80000F0
F80000F0
F80000F0
F80000F0
F80000F0
F80000F0
F80000F0
780001F0
780001F0
780001F0
7C0001E0
7C0003E0
3E0003E0
3F0007C0
1F800FC0
0FF8FF80
07FFFF00
03FFFC00
00FFF000
00060000
ENDCHAR
STARTCHAR 016F
ENCODING 367
SWIDTH 600 0
DWIDTH 30 0
BBX 23 42 4 -1
BITMAP
007C00
01FE00
01FF00
038380
038380
038380
038380
038780
01FF00
00FE00
003800
000000
000000
000000
F0003E
F0003E
F0003E
F0003E
F0003E
F0003E
F0003E
F0003E
F0003E
F0003E
F0003E
F0003E
F0003E
F0003E
F0003E
F0003E
F0003E
F0003E
F0003E
F8007E
F8007E
F800FE
7C01FE
7F07FE
3FFF9E
1FFF1E
0FFE1E
004000
ENDCHAR
STARTCHAR 0170
ENCODING 368
SWIDTH 720 0
DWIDTH 36 0
BBX 28 48 4 -1
BITMAP
007C3E00
007C3C00
00F87C00
00F0F800
01E0F000
03C1E000
0381C000
07038000
00000000
00000000
00000000
F80000F0
F80000F0
F80000F0
F80000F0
F80000F0
F80000F0
F80000F0
F80000F0
F80000F0
F80000F0
F80000F0
F80000F0
F80000F0
F80000F0
F80000F0
F80000F0
F80000F0
F80000F0
F80000F0
F80000F0
F80000F0
F80000F0
F80000F0
F80000F0
780001F0
780001F0
780001F0
7C0001E0
7C0003E0
3E0003E0
3F0007C0
1F800FC0
0FF8FF80
07FFFF00
03FFFC00
00FFF000
00060000
ENDCHAR
STARTCHAR 0171
ENCODING 369
SWIDTH 600 0
DWIDTH 30 0
BBX 23 39 4 -1
BITMAP
03E1F0
03E1F0
07C3E0
0783C0
0F0780
0E0F00
1C0E00
381C00
000000
000000
000000
F0003E
F0003E
F0003E
F0003E
F0003E
F0003E
F0003E
F0003E
F0003E
F0003E
F0003E
F0003E
F0003E
F0003E
F0003E
F0003E
F0003E
F0003E
F0003E
F8007E
F8007E
F800FE
7C01FE
7F07FE
3FFF9E
1FFF1E
0FFE1E
004000
ENDCHAR
STARTCHAR 0172
ENCODING 370
SWIDTH 720 0
DWIDTH 36 0
BBX 28 47 4 -11
BITMAP
F80000F0
F80000F0
F80000F0
F80000F0
F80000F0
F80000F0
F80000F0
F80000F0
F80000F0
F80000F0
F80000F0
F80000F0
F80000F0
F80000F0
F80000F0
F80000F0
F80000F0
F80000F0
F80000F0
F80000F0
F80000F0
F80000F0
F80000F0
F80000F0
780001F0
780001F0
780001F0
7C0001E0
7C0003E0
3E0003E0
3F0007C0
1F800FC0
0FF8FF80
07FFFF00
03FFFE00
00FFFC00
00063800
00007800
00007000
0000F000
0000E000
0000E000
0000E000
0000F000
0000FF00
00007F00
00003F00
ENDCHAR
STARTCHAR 0173
ENCODING 371
SWIDTH 600 0
DWIDTH 30 0
BBX 23 38 4 -11
BITMAP
F0003E
F0003E
F0003E
F0003E
F0003E
F0003E
F0003E
F0003E
F0003E
F0003E
F0003E
F0003E
F0003E
F0003E
F0003E
F0003E
F0003E
F0003E
F0003E
F8007E
F8007E
F800FE
7C01FE
7F07FE
3FFF9E
1FFF1E
0FFE1E
004038
000070
0000F0
0000E0
0001E0
0001C0
0001C0
0001E0
0001FE
0000FE
00007E
ENDCHAR
STARTCHAR 0174
ENCODING 372
SWIDTH 920 0
DWIDTH 46 0
BBX 45 47 1 0
BITMAP
00001F800000
00001FC00000
00003FC00000
00007FE00000
0000F9F00000
0001F0F80000
0003E03C0000
0003801E0000
000000000000
000000000000
000000000000
F0000F0000F8
F8001F8000F8
F8001F8000F0
F8001F8001F0
78003FC001F0
7C003FC001E0
7C003FC001E0
7C003FE003E0
3C0079E003E0
3E0079E003C0
3E0079E003C0
1E00F8F007C0
1E00F0F007C0
1F00F0F00780
1F00F0F80780
0F01F0780F80
0F01E0780F80
0F81E07C0F00
0F83E03C0F00
0783C03C1F00
0783C03E1E00
07C3C03E1E00
07C7C01E1E00
03C7801E3E00
03C7801F3C00
03EF800F3C00
01EF000F3C00
01EF000F7C00
01EF0007F800
01EE0007F800
00FE0007F800
00FE0007F800
00FE0003F000
00FC0003F000
007C0003F000
007C0001E000
ENDCHAR
STARTCHAR 0175
ENCODING 373
SWIDTH 780 0
DWIDTH 39 0
BBX 38 38 1 0
BITMAP
0000F80000
0001FC0000
0003FE0000
0007DF0000
00078F8000
000F07C000
001E03C000
003C00E000
0000000000
0000000000
0000000000
F000F8007C
F000FC0078
F800FC0078
F801FC00F8
7801FC00F8
7801DE00F0
7C03DE00F0
3C03DE01F0
3C03CF01E0
3E078F01E0
3E078F01E0
1E078F83E0
1E0F8783C0
1F0F0783C0
1F0F0787C0
0F1F03C780
0F1E03C780
0F9E03C780
079E01EF80
07BC01EF00
07BC01EF00
07BC01EF00
03F800FF00
03F800FE00
03F800FE00
01F0007E00
01F0007C00
ENDCHAR
STARTCHAR 0176
ENCODING 374
SWIDTH 560 0
DWIDTH 28 0
BBX 28 47 0 0
BITMAP
001F8000
001F8000
003FC000
007FE000
00F9F000
01F0F800
03E03C00
03801E00
00000000
00000000
00000000
F80001F0
7C0001F0
7C0003E0
3E0003E0
3E0007C0
1F000780
1F000F80
0F800F00
0F801F00
07C01E00
03C03E00
03E03C00
01E07C00
01F0F800
00F0F800
00F9F000
0079E000
007FE000
003FC000
003FC000
001F8000
001F8000
000F0000
000F0000
000F0000
000F0000
000F0000
000F0000
000F0000
000F0000
000F0000
000F0000
000F0000
000F0000
000F0000
000F0000
ENDCHAR
STARTCHAR 0177
ENCODING 375
SWIDTH 500 0
DWIDTH 25 0
BBX 25 50 0 -12
BITMAP
003E0000
007F0000
00FF8000
00F7C000
01E3E000
03C1F000
0780F800
0F003800
00000000
00000000
00000000
F8000780
78000F80
7C000F80
7C000F00
3C001F00
3E001F00
1E003E00
1F003E00
1F003C00
0F007C00
0F807C00
07807800
0780F800
07C0F000
03C0F000
03E1F000
01E1E000
01E1E000
01F3E000
00F3C000
00F3C000
007F8000
007F8000
007F8000
003F0000
003F0000
001F0000
001E0000
003E0000
003C0000
003C0000
007C0000
00780000
00F80000
01F00000
7FE00000
7FE00000
7F800000
7F000000
ENDCHAR
STARTCHAR 0178
ENCODING 376
SWIDTH 560 0
DWIDTH 28 0
BBX 28 45 0 0
BITMAP
00E07800
01F07800
01F07800
01F07800
00400000
00000000
00000000
00000000
00000000
F80001F0
7C0001F0
7C0003E0
3E0003E0
3E0007C0
1F000780
1F000F80
0F800F00
0F801F00
07C01E00
03C03E00
03E03C00
01E07C00
01F0F800
00F0F800
00F9F000
0079E000
007FE000
003FC000
003FC000
001F8000
001F8000
000F0000
000F0000
000F0000
000F0000
000F0000
000F0000
000F0000
000F0000
000F0000
000F0000
000F0000
000F0000
000F0000
000F0000
ENDCHAR
STARTCHAR 0179
ENCODING 377
SWIDTH 560 0
DWIDTH 28 0
BBX 25 47 2 0
BITMAP
0003F000
0003E000
0007C000
000F8000
000F0000
001E0000
003C0000
00380000
00000000
00000000
00000000
FFFFFF00
FFFFFF00
FFFFFF00
FFFFFF00
00001F00
00003E00
00007C00
00007C00
0000F800
0001F000
0001F000
0003E000
0007C000
0007C000
000F8000
001F0000
001F0000
003E0000
007C0000
007C0000
00F80000
01F00000
01F00000
03E00000
07C00000
07C00000
0F800000
1F000000
1F000000
3E000000
7C000000
7C000000
FFFFFF80
FFFFFF80
FFFFFF80
FFFFFF80
ENDCHAR
STARTCHAR 017A
ENCODING 378
SWIDTH 460 0
DWIDTH 23 0
BBX 20 38 2 0
BITMAP
001F80
001F00
003E00
003C00
007800
00F000
00E000
01C000
000000
000000
000000
7FFFE0
7FFFE0
7FFFE0
7FFFE0
0003E0
0007C0
000F80
000F00
001F00
003E00
007C00
007C00
00F800
01F000
01E000
03E000
07C000
078000
0F8000
1F0000
3E0000
3C0000
7C0000
F80000
FFFFF0
FFFFF0
FFFFF0
ENDCHAR
STARTCHAR 017B
ENCODING 379
SWIDTH 560 0
DWIDTH 28 0
BBX 25 46 2 0
BITMAP
001C0000
003E0000
003E0000
003E0000
003E0000
001C0000
00000000
00000000
00000000
00000000
FFFFFF00
FFFFFF00
FFFFFF00
FFFFFF00
00001F00
00003E00
00007C00
00007C00
0000F800
0001F000
0001F000
0003E000
0007C000
0007C000
000F8000
001F0000
001F0000
003E0000
007C0000
007C0000
00F80000
01F00000
01F00000
03E00000
07C00000
07C00000
0F800000
1F000000
1F000000
3E000000
7C000000
7C000000
FFFFFF80
FFFFFF80
FFFFFF80
FFFFFF80
ENDCHAR
STARTCHAR 017C
ENCODING 380
SWIDTH 460 0
DWIDTH 23 0
BBX 20 37 2 0
BITMAP
00E000
01F000
01F000
01F000
00F000
006000
000000
000000
000000
000000
7FFFE0
7FFFE0
7FFFE0
7FFFE0
0003E0
0007C0
000F80
000F00
001F00
003E00
007C00
007C00
00F800
01F000
01E000
03E000
07C000
078000
0F8000
1F0000
3E0000
3C0000
7C0000
F80000
FFFFF0
FFFFF0
FFFFF0
ENDCHAR
STARTCHAR 017D
ENCODING 381
SWIDTH 560 0
DWIDTH 28 0
BBX 25 47 2 0
BITMAP
0F007800
0780F000
03C3E000
01F7C000
00FF8000
007F0000
007F0000
003E0000
00000000
00000000
00000000
FFFFFF00
FFFFFF00
FFFFFF00
FFFFFF00
00001F00
00003E00
00007C00
00007C00
0000F800
0001F000
0001F000
0003E000
0007C000
0007C000
000F8000
001F0000
001F0000
003E0000
007C0000
007C0000
00F80000
01F00000
01F00000
03E00000
07C00000
07C00000
0F800000
1F000000
1F000000
3E000000
7C000000
7C000000
FFFFFF80
FFFFFF80
FFFFFF80
FFFFFF80
ENDCHAR
STARTCHAR 017E
ENCODING 382
SWIDTH 460 0
DWIDTH 23 0
BBX 20 38 2 0
BITMAP
7803C0
3E0780
1F0F00
0FBE00
07FC00
03F800
01F800
01F000
000000
000000
000000
7FFFE0
7FFFE0
7FFFE0
7FFFE0
0003E0
0007C0
000F80
000F00
001F00
003E00
007C00
007C00
00F800
01F000
01E000
03E000
07C000
078000
0F8000
1F0000
3E0000
3C0000
7C0000
F80000
FFFFF0
FFFFF0
FFFFF0
ENDCHAR
STARTCHAR 017F
ENCODING 383
SWIDTH 320 0
DWIDTH 16 0
BBX 14 38 4 0
BITMAP
07FC
1FFC
3FFC
7FB8
7C00
7800
F800
F800
F800
F800
F800
F800
F800
F800
F800
F800
F800
F800
F800
F800
F800
F800
F800
F800
F800
F800
F800
F800
F800
F800
F800
F800
F800
F800
F800
F800
F800
F800
ENDCHAR
STARTCHAR 0180
ENCODING 384
SWIDTH 600 0
DWIDTH 30 0
BBX 28 39 0 -1
BITMAP
0F800000
0F800000
0F800000
0F800000
FFFFE000
FFFFE000
FFFFE000
FFFFE000
0F800000
0F800000
0F800000
0F87F800
0F9FFE00
0FBFFF00
0F7E7F80
0FF00FC0
0FE007C0
0FC003E0
0F8003E0
0F8001E0
0F8001F0
0F8001F0
0F8001F0
0F8001F0
0F8001F0
0F8001F0
0F8001F0
0F8001F0
0F8001F0
0F8001F0
0F8001E0
0FC003E0
0FC007E0
0FE00FC0
0FFC1F80
0F7FFF80
0F3FFE00
0F0FFC00
0000C000
ENDCHAR
STARTCHAR 0181
ENCODING 385
SWIDTH 720 0
DWIDTH 36 0
BBX 34 36 0 0
BITMAP
03FFFC0000
1FFFFFE000
3FFFFFFC00
7FFFFFFE00
7C7801FE00
7878003F00
F878001F00
7878000F00
7878000F80
0078000F80
0078000F80
0078000F00
0078001F00
0078001E00
0078003E00
007FFFFC00
007FFFF000
007FFFE000
007FFFFC00
007801FE00
0078003F00
0078000F80
0078000F80
00780007C0
00780007C0
00780007C0
00780007C0
00780007C0
0078000FC0
0078000F80
0078001F80
0078007F00
007FFFFE00
007FFFFC00
007FFFF800
007FFFC000
ENDCHAR
STARTCHAR 0182
ENCODING 386
SWIDTH 600 0
DWIDTH 30 0
BBX 23 36 5 0
BITMAP
FFFFF8
FFFFF8
FFFFF8
FFFFF8
F00000
F00000
F00000
F00000
F00000
F00000
F00000
F00000
F00000
F00000
F00000
FFE000
FFFF80
FFFFE0
FFFFF8
F00FFC
F000FC
F0007E
F0003E
F0003E
F0003E
F0001E
F0003E
F0003E
F0003E
F0003E
F0007C
F001FC
FFFFF8
FFFFF0
FFFFC0
FFFE00
ENDCHAR
STARTCHAR 0183
ENCODING 387
SWIDTH 600 0
DWIDTH 30 0
BBX 24 39 4 -1
BITMAP
FFFFF8
FFFFF8
FFFFF8
FFFFF8
F80000
F80000
F80000
F80000
F80000
F80000
F80000
F87F80
F9FFE0
FBFFF0
F7E7F8
FF00FC
FE007C
FC003E
F8003E
F8001E
F8001F
F8001F
F8001F
F8001F
F8001F
F8001F
F8001F
F8001F
F8001F
F8001F
F8001E
FC003E
FC007E
FE00FC
FFC1F8
F7FFF8
F3FFE0
F0FFC0
000C00
ENDCHAR
STARTCHAR 0184
ENCODING 388
SWIDTH 620 0
DWIDTH 31 0
BBX 25 37 4 -1
BITMAP
F8000000
F8000000
F8000000
F8000000
F8000000
F8000000
F8000000
F8000000
F8000000
F8000000
F8000000
F8000000
F8000000
F8000000
F8000000
FFF80000
FFFFE000
FFFFF800
FFFFFC00
F807FE00
F8003F00
F8001F00
F8000F80
F8000F80
F8000F80
F8000780
78000780
78000F80
78000F80
7C000F80
7C001F00
3F003F00
3FF3FE00
1FFFFC00
07FFF800
03FFE000
000C0000
ENDCHAR
STARTCHAR 0185
ENCODING 389
SWIDTH 600 0
DWIDTH 30 0
BBX 24 39 4 -1
BITMAP
F80000
F80000
F80000
F80000
F80000
F80000
F80000
F80000
F80000
F80000
F00000
F0FF80
F1FFE0
F3FFF0
F7E7F8
FF00FC
FC007C
FC003E
F8003E
F8001E
F8001F
F8001F
F8001F
F8001F
F8001F
F8001F
F8001F
F8001F
F8001F
78001E
7C003E
7C003E
3E007C
3F00FC
1FC1F8
0FFFF0
07FFE0
01FF80
001800
ENDCHAR
STARTCHAR 0186
ENCODING 390
SWIDTH 620 0
DWIDTH 31 0
BBX 27 37 2 -1
BITMAP
0FFF0000
FFFFC000
FFFFF000
FFFFF800
7803FC00
4000FE00
00003F00
00001F00
00001F80
00000F80
00000F80
000007C0
000007C0
000007C0
000003C0
000003C0
000003C0
000003E0
000003E0
000003E0
000003C0
000003C0
000007C0
000007C0
000007C0
00000F80
00000F80
00001F80
00001F00
00003F00
00007E00
4001FC00
7FBFF800
7FFFF000
7FFFC000
3FFF0000
00600000
ENDCHAR
STARTCHAR 0187
ENCODING 391
SWIDTH 620 0
DWIDTH 31 0
BBX 32 44 3 -1
BITMAP
0000003E
0000007F
000000FF
000001FF
000001E0
000001E0
000001E0
000FFFE0
007FFFE0
01FFFFE0
03FFFFC0
07F803C0
0FC00000
1F800000
1F000000
3E000000
3E000000
7C000000
7C000000
7C000000
F8000000
F8000000
F8000000
F8000000
F8000000
F8000000
F8000000
F8000000
F8000000
F8000000
78000000
7C000000
7C000000
7C000000
3E000000
3F000000
1F800000
1FC00000
0FF000C0
07FFBFC0
03FFFFC0
00FFFFC0
003FFF00
0001C000
ENDCHAR
STARTCHAR 0188
ENCODING 392
SWIDTH 500 0
DWIDTH 25 0
BBX 24 39 3 -1
BITMAP
00003F
00007F
0000FF
0000FF
0000F0
0000E0
0000E0
0000E0
0000E0
0000E0
0000E0
01FFE0
07FFE0
0FFFE0
1FFFC0
3F0040
7E0000
7C0000
780000
F80000
F80000
F80000
F00000
F00000
F00000
F00000
F00000
F00000
F80000
F80000
F80000
7C0000
7E0000
3F0020
1FC3E0
1FFFE0
07FFE0
01FFC0
001800
ENDCHAR
STARTCHAR 0189
ENCODING 393
SWIDTH 720 0
DWIDTH 36 0
BBX 32 36 1 0
BITMAP
0FFFC000
0FFFFC00
0FFFFF80
0FFFFFC0
0F803FE0
0F8007F0
0F8001F8
0F8000FC
0F80007C
0F80003E
0F80003E
0F80001F
0F80001F
0F80001F
0F80001F
0F80000F
FFFFC00F
FFFFC00F
FFFFC00F
FFFFC00F
0F80000F
0F80001F
0F80001F
0F80001F
0F80001F
0F80003E
0F80003E
0F80007C
0F8000FC
0F8001F8
0F8007F0
0F801FE0
0FFFFFC0
0FFFFF80
0FFFFE00
0FFFE000
ENDCHAR
STARTCHAR 018A
ENCODING 394
SWIDTH 800 0
DWIDTH 40 0
BBX 37 36 0 0
BITMAP
03FFFE0000
1FFFFFE000
3FFFFFFC00
7FFFFFFE00
7C7801FF00
7878003F80
F878000FC0
78780007E0
78780003E0
00780001F0
00780001F0
00780000F8
00780000F8
00780000F8
00780000F8
0078000078
0078000078
0078000078
0078000078
0078000078
0078000078
00780000F8
00780000F8
00780000F8
00780000F8
00780001F0
00780001F0
00780003E0
00780007E0
0078000FC0
0078003F80
007800FF00
007FFFFE00
007FFFFC00
007FFFF000
007FFF0000
ENDCHAR
STARTCHAR 018B
ENCODING 395
SWIDTH 600 0
DWIDTH 30 0
BBX 23 36 3 0
BITMAP
3FFFFE
3FFFFE
3FFFFE
3FFFFE
00003E
00003E
00003E
00003E
00003E
00003E
00003E
00003E
00003E
00003E
00003E
0017FE
03FFFE
0FFFFE
1FFFFE
3FE03E
7E003E
7C003E
F8003E
F8003E
F0003E
F0003E
F0003E
F0003E
F8003E
F8003E
FC003E
7F003E
3FFFFE
1FFFFE
0FFFFE
00FFFE
ENDCHAR
STARTCHAR 018C
ENCODING 396
SWIDTH 600 0
DWIDTH 30 0
BBX 24 39 3 -1
BITMAP
3FFFFF
3FFFFF
3FFFFF
3FFFFF
00001F
00001F
00001F
00001F
00001F
00001F
00001F
01FE1F
07FF9F
1FFFDF
1FC7FF
3F00FF
7E007F
7C003F
78003F
F8001F
F8001F
F8001F
F0001F
F0001F
F0001F
F0001F
F0001F
F0001F
F8001F
F8001F
F8003F
7C003F
7C007F
3E00FF
3F83FF
1FFFDF
0FFF8F
03FF0F
002000
ENDCHAR
STARTCHAR 018D
ENCODING 397
SWIDTH 600 0
DWIDTH 30 0
BBX 25 38 3 -11
BITMAP
00FFC000
03FFF000
0FFFF800
1FE3FC00
1F007E00
3E003F00
7C001F00
7C000F00
78000F80
78000F80
78000F80
F8000F80
78000F80
78000F80
78000F80
78000F00
7C001F00
3C001F00
3E003E00
1F007C00
0FC0F800
07E3F000
03FFE000
00FF8000
007F8000
001FC000
0007E000
0003F000
0001F000
0000F800
0000F800
0000F800
1000F000
1C01F000
3F07F000
3FFFE000
1FFFC000
07FF0000
ENDCHAR
STARTCHAR 018E
ENCODING 398
SWIDTH 540 0
DWIDTH 27 0
BBX 20 36 3 0
BITMAP
FFFFF0
FFFFF0
FFFFF0
FFFFF0
0001F0
0001F0
0001F0
0001F0
0001F0
0001F0
0001F0
0001F0
0001F0
0001F0
0001F0
7FFFF0
7FFFF0
7FFFF0
7FFFF0
0001F0
0001F0
0001F0
0001F0
0001F0
0001F0
0001F0
0001F0
0001F0
0001F0
0001F0
0001F0
0001F0
FFFFF0
FFFFF0
FFFFF0
FFFFF0
ENDCHAR
STARTCHAR 018F
ENCODING 399
SWIDTH 720 0
DWIDTH 36 0
BBX 31 37 3 -1
BITMAP
03FFF000
1FFFFC00
3FFFFF00
3FFFFF80
3E001FC0
200007E0
000003F0
000001F0
000000F8
000000F8
0000007C
0000007C
0000007C
0000003C
0000003E
0000003E
FFFFFFFE
FFFFFFFE
FFFFFFFE
FFFFFFFE
F800003E
F800003E
F800003E
F800003C
7800007C
7800007C
7C00007C
7C0000F8
3C0001F8
3E0001F0
1F0007E0
1FC00FE0
0FFDFFC0
07FFFF80
01FFFE00
007FF800
00020000
ENDCHAR
STARTCHAR 0190
ENCODING 400
SWIDTH 580 0
DWIDTH 29 0
BBX 25 37 3 -1
BITMAP
00FFC000
07FFF800
0FFFFE00
1FFFFF00
3F803F00
3E000E00
3E000000
7C000000
7C000000
7C000000
7C000000
3C000000
3E000000
1F000000
1F800000
07FC0000
03FFF800
00FFF800
07FFF800
1FFC0000
3F000000
7E000000
F8000000
F8000000
F8000000
F0000000
F0000000
F8000000
F8000000
F8000000
7C000080
7F000780
3FE07F80
1FFFFF80
0FFFFF00
03FFF800
000C0000
ENDCHAR
STARTCHAR 0191
ENCODING 401
SWIDTH 580 0
DWIDTH 29 0
BBX 29 48 -1 -12
BITMAP
003FFFF8
003FFFF8
003FFFF8
003FFFF8
003E0000
003E0000
003E0000
003E0000
003E0000
003E0000
003E0000
003E0000
003E0000
003E0000
003E0000
003FFFF0
003FFFF0
003FFFF0
003FFFF0
003E0000
003E0000
003E0000
003E0000
003E0000
003E0000
003E0000
003E0000
003E0000
003E0000
003E0000
003E0000
003E0000
003E0000
003E0000
003E0000
003E0000
003E0000
003E0000
003E0000
F03E0000
F03E0000
F03E0000
F83E0000
F87C0000
7FFC0000
7FF80000
3FF00000
0FC00000
ENDCHAR
STARTCHAR 0192
ENCODING 402
SWIDTH 400 0
DWIDTH 20 0
BBX 24 50 -1 -12
BITMAP
0001FE
0007FF
000FFE
001FCE
001F00
003E00
003E00
003C00
003C00
003C00
003C00
007FF8
07FFF8
07FFF8
07FFF8
003C00
003C00
003C00
003C00
003C00
003C00
003C00
003C00
003C00
003C00
003C00
003C00
003C00
003C00
003C00
003C00
003C00
003C00
003C00
003C00
003C00
003C00
003C00
003C00
003C00
003C00
003C00
F03C00
F03C00
F03C00
787C00
7FF800
3FF800
3FF000
0FE000
ENDCHAR
STARTCHAR 0193
ENCODING 403
SWIDTH 720 0
DWIDTH 36 0
BBX 34 44 3 -1
BITMAP
0000000780
0000001FC0
0000003FC0
0000003FC0
0000003C00
0000007800
0000007800
0007FFF800
003FFFF800
00FFFFF800
03FFFFF800
07F800F000
0FE0001000
1F80000000
1F00000000
3F00000000
3E00000000
7C00000000
7C00000000
7C00000000
F800000000
F800000000
F800000000
F800000000
F8007FFC00
F8007FFC00
F8007FFC00
F8007FFC00
F800007C00
F800007C00
7800007C00
7C00007C00
7C00007C00
7E00007C00
3E00007C00
3F00007C00
1F80007C00
0FC0007C00
0FF0007C00
07FF8FFC00
01FFFFFC00
00FFFFFC00
003FFFE000
0000E00000
ENDCHAR
STARTCHAR 0194
ENCODING 404
SWIDTH 560 0
DWIDTH 28 0
BBX 28 48 0 -12
BITMAP
F80000F0
F80001F0
7C0001F0
7C0001E0
3C0003E0
3E0003C0
3E0007C0
1E0007C0
1F000780
0F000F80
0F800F80
0F800F00
07801F00
07C01E00
03C03E00
03C03E00
03E03C00
01E07C00
01F07800
01F0F800
00F0F800
00F8F000
0079F000
0079E000
007DE000
003DE000
003FC000
001FC000
001FC000
001F8000
000F8000
001F8000
001FC000
003FC000
003FC000
003DE000
0079E000
0079E000
0078F000
0078F000
00F8F000
00F8F000
0078F000
0079F000
007FE000
003FE000
003FC000
000F8000
ENDCHAR
STARTCHAR 0195
ENCODING 405
SWIDTH 920 0
DWIDTH 46 0
BBX 39 39 4 -1
BITMAP
F800000000
F800000000
F800000000
F800000000
F800000000
F800000000
F800000000
F800000000
F800000000
F800000000
F800000000
F87F80003E
F9FFE0003E
FBFFF0003E
F7EFF0003E
FF01F8003E
FE00F8003E
FC0078003E
F8007C003E
F8007C003E
F8007C003E
F8007C003E
F8007C003E
F8007C003E
F8007C003E
F8007C003E
F8007C003E
F8007C003E
F8007C003E
F8007C003E
F8007C003C
F8007C003C
F8003E007C
F8003F00FC
F8001FC3F8
F8001FFFF8
F8000FFFE0
F80003FFC0
0000001800
ENDCHAR
STARTCHAR 0196
ENCODING 406
SWIDTH 340 0
DWIDTH 17 0
BBX 13 37 4 -1
BITMAP
F800
F800
F800
F800
F800
F800
F800
F800
F800
F800
F800
F800
F800
F800
F800
F800
F800
F800
F800
F800
F800
F800
F800
F800
F800
F800
F800
F800
F800
7800
7800
7C00
7FF8
3FF8
3FF8
0FF8
0180
ENDCHAR
STARTCHAR 0197
ENCODING 407
SWIDTH 320 0
DWIDTH 16 0
BBX 13 36 2 0
BITMAP
FFF8
FFF8
FFF8
3FC0
0F80
0F80
0F80
0F80
0F80
0F80
0F80
0F80
0F80
0F80
0F80
0F80
FFF8
FFF8
FFF8
FFF8
0F80
0F80
0F80
0F80
0F80
0F80
0F80
0F80
0F80
0F80
0F80
0F80
0F80
FFF8
FFF8
FFF8
ENDCHAR
STARTCHAR 0198
ENCODING 408
SWIDTH 600 0
DWIDTH 30 0
BBX 26 36 5 0
BITMAP
F0000F80
F0003F80
F0007F80
F0007F80
F000F800
F001F000
F003E000
F007C000
F00F8000
F00F8000
F01F0000
F03E0000
F07C0000
F0F80000
F0F00000
F1F00000
F3F00000
F7F80000
FFF80000
FF7C0000
FE7E0000
FC3F0000
F81F0000
F00F8000
F00FC000
F007C000
F003E000
F001F000
F001F800
F000F800
F0007C00
F0007E00
F0003E00
F0001F00
F0000F80
F0000FC0
ENDCHAR
STARTCHAR 0199
ENCODING 409
SWIDTH 520 0
DWIDTH 26 0
BBX 22 38 4 0
BITMAP
1FC000
3FC000
7FC000
7FC000
F80000
F80000
F80000
F80000
F80000
F80000
F80000
F800F8
F801F0
F803E0
F807C0
F80F80
F81F80
F83F00
F87E00
F8FC00
F8F800
F9F000
FBE000
F7E000
FFF000
FFF800
FEFC00
F87C00
F83E00
F81F00
F81F80
F80F80
F807C0
F803E0
F803F0
F801F0
F800F8
F8007C
ENDCHAR
STARTCHAR 019A
ENCODING 410
SWIDTH 240 0
DWIDTH 12 0
BBX 11 38 1 0
BITMAP
1F00
1F00
1F00
1F00
1F00
1F00
1F00
1F00
1F00
1F00
1F00
1F00
1F00
1F00
1F00
1F00
1F00
FFE0
FFE0
FFE0
1F00
1F00
1F00
1F00
1F00
1F00
1F00
1F00
1F00
1F00
1F00
1F00
1F00
1F00
1F00
1F00
1F00
1F00
ENDCHAR
STARTCHAR 019B
ENCODING 411
SWIDTH 540 0
DWIDTH 27 0
BBX 27 39 0 -1
BITMAP
3FC00000
3FE00000
3FF00000
23F1E000
00FFE000
007FE000
07FF8000
0FFC0000
0FFE0000
063E0000
001E0000
001F0000
001F0000
003F0000
003F8000
003F8000
007F8000
007BC000
00F3C000
00F3E000
01F1E000
01E1E000
03E1F000
03E0F000
03C0F000
07C0F800
07807800
0F807800
0F007C00
1F003C00
1F003C00
1E003E00
3E001E00
3C001F00
7C001F00
78000FE0
F8000FE0
F00007E0
00000080
ENDCHAR
STARTCHAR 019C
ENCODING 412
SWIDTH 1020 0
DWIDTH 51 0
BBX 43 37 4 -1
BITMAP
F8001F0003E0
F8001F0003E0
F8001F0003E0
F8001F0003E0
F8001F0003E0
F8001F0003E0
F8001F0003E0
F8001F0003E0
F8001F0003E0
F8001F0003E0
F8001F0003E0
F8001F0003E0
F8001F0003E0
F8001F0003E0
F8001F0003E0
F8001F0003E0
F8001F0003E0
F8001F0003E0
F8001F0003E0
F8001F0003E0
F8001F0003E0
F8001F0003E0
F8001F0003E0
F8001F0003E0
F8001F0003E0
F8001F0003E0
78001F0003E0
78001F0007E0
78003F0007E0
7C003F000FE0
7C007F800FE0
7E00FFC01FE0
3FCFE7F9FFE0
1FFFC7FFF9E0
1FFF83FFF1E0
07FE00FFC1E0
006000080000
ENDCHAR
STARTCHAR 019D
ENCODING 413
SWIDTH 760 0
DWIDTH 38 0
BBX 34 48 -1 -12
BITMAP
03E00003C0
03F00003C0
03F00003C0
03F80003C0
03FC0003C0
03FC0003C0
03FE0003C0
03DF0003C0
03DF0003C0
03CF8003C0
03CFC003C0
03C7C003C0
03C3E003C0
03C3F003C0
03C1F003C0
03C0F803C0
03C0FC03C0
03C07C03C0
03C03E03C0
03C03E03C0
03C01F03C0
03C00F83C0
03C00F83C0
03C007C3C0
03C007E3C0
03C003E3C0
03C001F3C0
03C001FBC0
03C000FBC0
03C0007FC0
03C0007FC0
03C0003FC0
03C0001FC0
03C0001FC0
03C0000FC0
03C00007C0
03C0000000
03C0000000
03C0000000
03C0000000
03C0000000
03C0000000
07C0000000
07C0000000
FF80000000
FF80000000
FF00000000
7C00000000
ENDCHAR
STARTCHAR 019E
ENCODING 414
SWIDTH 600 0
DWIDTH 30 0
BBX 22 39 4 -12
BITMAP
F07FC0
F1FFE0
F3FFF0
F7E7F8
FF00FC
FE007C
FC007C
FC003C
F8003C
F8003C
F8003C
F8003C
F8003C
F8003C
F8003C
F8003C
F8003C
F8003C
F8003C
F8003C
F8003C
F8003C
F8003C
F8003C
F8003C
F8003C
F8003C
00003C
00003C
00003C
00003C
00003C
00003C
00003C
00003C
00003C
00003C
00003C
00003C
ENDCHAR
STARTCHAR 019F
ENCODING 415
SWIDTH 780 0
DWIDTH 39 0
BBX 33 37 3 -1
BITMAP
001FFC0000
00FFFF8000
01FFFFC000
07FFFFF000
0FF007F800
0FC001F800
1F8000FC00
3F00007E00
3E00003E00
7C00001F00
7C00001F00
7C00001F00
7800000F00
F800000F80
F800000F80
F800000F80
FFFFFFFF80
FFFFFFFF80
FFFFFFFF80
FFFFFFFF80
F800000F80
F800000F80
F800000F80
7800000F00
7C00001F00
7C00001F00
7C00001F00
3E00003E00
3E00003E00
1F00007C00
1F8000FC00
0FE003F800
07FE3FF000
03FFFFE000
00FFFF8000
003FFE0000
0000800000
ENDCHAR
STARTCHAR 01A0
ENCODING 416
SWIDTH 780 0
DWIDTH 39 0
BBX 37 39 3 -1
BITMAP
00000000F8
00000000F8
001FFC00F8
00FFFF80F0
01FFFFC0F0
07FFFFF1F0
0FF007FBE0
0FC001FFC0
1F80007F80
3F00007E00
3E00003E00
7C00001F00
7C00001F00
7C00001F00
7800000F00
F800000F80
F800000F80
F800000F80
F800000F80
F800000F80
F800000F80
F800000F80
F800000F80
F800000F80
F800000F80
7800000F00
7C00001F00
7C00001F00
7C00001F00
3E00003E00
3E00003E00
1F00007C00
1F8000FC00
0FE003F800
07FE3FF000
03FFFFE000
00FFFF8000
003FFE0000
0000800000
ENDCHAR
STARTCHAR 01A1
ENCODING 417
SWIDTH 600 0
DWIDTH 30 0
BBX 29 32 3 -1
BITMAP
000000F8
000000F8
000000F8
000000F8
01FF80F0
07FFE1F0
0FFFF3E0
1FE7FFC0
3F00FF80
3C003F00
7C003E00
78001F00
F8001F00
F8000F00
F0000F00
F0000F00
F0000F80
F0000F80
F0000F80
F0000F00
F0000F00
F8000F00
F8001F00
78001F00
7C001E00
3C003E00
3E007C00
1FC1FC00
0FFFF800
07FFE000
01FF8000
00180000
ENDCHAR
STARTCHAR 01A2
ENCODING 418
SWIDTH 1060 0
DWIDTH 53 0
BBX 46 37 3 -1
BITMAP
003FF800FF80
00FFFE03FFE0
03FFFF87FFF0
07FFFFCFFFF8
0FE00FFE01F8
1F8003FC00FC
1F0001F8007C
3F0000F8007C
3E00007C003C
7C00007C003C
7C00003C003C
7C00003E003C
7800003E003C
F800003E003C
F800003E003C
F800001E003C
F800001E003C
F800001E003C
F800001E003C
F800001E003C
F800001E003C
F800003E003C
F800003E003C
7800003E003C
7C00003E003C
7C00003C003C
7C00007C003C
3E00007C003C
3E0000F8003C
1F0001F8003C
1F8003F0003C
0FE007E0003C
07FE7FC0003C
03FFFF80003C
01FFFF00003C
007FFC00003C
000100000000
ENDCHAR
STARTCHAR 01A3
ENCODING 419
SWIDTH 840 0
DWIDTH 42 0
BBX 35 39 3 -12
BITMAP
01FF01FE00
07FFC3FF80
0FFFE7FFC0
1FCFFF9FC0
3F01FE07E0
7C007C03E0
7C007C03E0
78003C01E0
F8003E01E0
F8003E01E0
F0001E01E0
F0001E01E0
F0001E01E0
F0001E01E0
F0001E01E0
F0001E01E0
F0001E01E0
F8003E01E0
F8003E01E0
78003C01E0
7C007C01E0
7C007C01E0
3E00F801E0
1F83F001E0
0FFFF001E0
07FFC001E0
01FF8001E0
00100001E0
00000001E0
00000001E0
00000001E0
00000001E0
00000001E0
00000001E0
00000001E0
00000001E0
00000001E0
00000001E0
00000001E0
ENDCHAR
STARTCHAR 01A4
ENCODING 420
SWIDTH 680 0
DWIDTH 34 0
BBX 32 36 0 0
BITMAP
03FFFC00
1FFFFFC0
3FFFFFF0
7FFFFFF8
7C7807FC
787800FC
F878003E
7878003E
7878001F
0078001F
0078001F
0078001F
0078001F
0078001E
0078003E
0078003E
0078007C
007801FC
007FFFF8
007FFFF0
007FFFC0
007FFE00
00780000
00780000
00780000
00780000
00780000
00780000
00780000
00780000
00780000
00780000
00780000
00780000
00780000
00780000
ENDCHAR
STARTCHAR 01A5
ENCODING 421
SWIDTH 600 0
DWIDTH 30 0
BBX 24 50 4 -12
BITMAP
1FC000
3FC000
7FC000
7FC000
F80000
F80000
F80000
F80000
F80000
F80000
F80000
F87F80
F9FFE0
F3FFF0
F7E7F8
FF00FC
FE007C
FC003E
F8003E
F8001E
F8001F
F8001F
F8001F
F8001F
F8001F
F8001F
F8001F
F8001F
F8001F
F8001F
F8003E
FC003E
FC007E
FE00FC
FFC1F8
F7FFF0
F9FFE0
F8FFC0
F80C00
F80000
F80000
F80000
F80000
F80000
F80000
F80000
F80000
F80000
F80000
F80000
ENDCHAR
STARTCHAR 01A6
ENCODING 422
SWIDTH 620 0
DWIDTH 31 0
BBX 25 41 5 -5
BITMAP
F0000000
F0000000
F0000000
F0000000
F0000000
FFF80000
FFFF8000
FFFFE000
FFFFF000
F00FF800
F000FC00
F0007C00
F0007C00
F0003E00
F0003E00
F0003E00
F0003E00
F0003E00
F0003C00
F0007C00
F000F800
F001F800
FFFFF000
FFFFE000
FFFF8000
FFFF0000
F00F0000
F00F8000
F007C000
F007C000
F003E000
F001F000
F001F000
F000F800
F000F800
F0007C00
00007E00
00003E00
00001F00
00001F00
00000F80
ENDCHAR
STARTCHAR 01A7
ENCODING 423
SWIDTH 540 0
DWIDTH 27 0
BBX 23 37 2 -1
BITMAP
03FF00
1FFFE0
1FFFF0
1FFFF8
0E00FC
00007C
00003E
00003E
00003E
00003E
00003E
00003E
00007C
0000FC
0003F8
000FF8
003FF0
01FFC0
07FF00
0FFC00
1FE000
3F8000
7E0000
7C0000
780000
F80000
F80000
F80000
F80000
780000
7C0002
3F001E
3FF3FE
1FFFFE
07FFFE
01FFF0
000C00
ENDCHAR
STARTCHAR 01A8
ENCODING 424
SWIDTH 460 0
DWIDTH 23 0
BBX 19 28 2 -1
BITMAP
0FFE00
3FFF80
3FFFC0
3F0FE0
1003E0
0001E0
0001E0
0001E0
0003E0
0007E0
001FC0
007F80
03FF00
0FFC00
1FF000
3F8000
7E0000
7C0000
F80000
F80000
F80000
F80000
7C0020
7E01E0
3FFFE0
1FFFE0
07FFC0
003000
ENDCHAR
STARTCHAR 01A9
ENCODING 425
SWIDTH 560 0
DWIDTH 28 0
BBX 25 36 2 0
BITMAP
FFFFFF00
FFFFFF00
FFFFFF00
FFFFFF00
7C000000
3E000000
3F000000
1F800000
0FC00000
07E00000
03E00000
01F00000
01F80000
00FC0000
007E0000
003F0000
001F0000
000F0000
001F0000
003E0000
007C0000
00780000
00F80000
01F00000
03E00000
07C00000
07800000
0F800000
1F000000
3E000000
7C000000
78000000
FFFFFF80
FFFFFF80
FFFFFF80
FFFFFF80
ENDCHAR
STARTCHAR 01AA
ENCODING 426
SWIDTH 340 0
DWIDTH 17 0
BBX 20 50 0 -12
BITMAP
3F8000
7FE000
FFE000
FBF000
F0F000
F0F000
F0F000
FFF000
FFF000
7FF000
1FF000
00F000
00F000
00F000
00F000
00F000
00F000
00F000
00F000
00F000
00F000
00F000
00F000
00F000
00F000
00F000
00F000
00F000
00F000
00F000
00F000
00F000
00F000
00F000
00F000
00F000
00F000
00F000
00F000
00F000
00F000
00F000
00F000
00F800
00F800
00FC00
007FF0
007FF0
003FF0
000FE0
ENDCHAR
STARTCHAR 01AB
ENCODING 427
SWIDTH 360 0
DWIDTH 18 0
BBX 16 45 1 -12
BITMAP
0700
0700
0700
0F00
0F00
0F00
3FFF
FFFF
FFFF
FFFF
0F00
0F00
0F00
0F00
0F00
0F00
0F00
0F00
0F00
0F00
0F00
0F00
0F00
0F00
0F00
0F00
0F00
0F00
0F80
0FC1
07FF
03FF
01FF
003F
000F
000F
000F
000F
000F
000F
001F
01FE
01FE
01FC
01F8
ENDCHAR
STARTCHAR 01AC
ENCODING 428
SWIDTH 560 0
DWIDTH 28 0
BBX 28 36 0 0
BITMAP
03FFFFF0
1FFFFFF0
3FFFFFF0
7FFFFFF0
7C078000
78078000
F8078000
78078000
78078000
00078000
00078000
00078000
00078000
00078000
00078000
00078000
00078000
00078000
00078000
00078000
00078000
00078000
00078000
00078000
00078000
00078000
00078000
00078000
00078000
00078000
00078000
00078000
00078000
00078000
00078000
00078000
ENDCHAR
STARTCHAR 01AD
ENCODING 429
SWIDTH 360 0
DWIDTH 18 0
BBX 16 39 1 -1
BITMAP
01FE
03FE
07FE
0FFE
0F80
0F00
0F00
0F00
0F00
0F00
0F00
3FFF
FFFF
FFFF
FFFF
0F00
0F00
0F00
0F00
0F00
0F00
0F00
0F00
0F00
0F00
0F00
0F00
0F00
0F00
0F00
0F00
0F00
0F00
0F80
0FC1
07FF
03FF
01FF
0010
ENDCHAR
STARTCHAR 01AE
ENCODING 430
SWIDTH 540 0
DWIDTH 27 0
BBX 27 48 0 -12
BITMAP
FFFFFFE0
FFFFFFE0
FFFFFFE0
FFFFFFE0
000F0000
000F0000
000F0000
000F0000
000F0000
000F0000
000F0000
000F0000
000F0000
000F0000
000F0000
000F0000
000F0000
000F0000
000F0000
000F0000
000F0000
000F0000
000F0000
000F0000
000F0000
000F0000
000F0000
000F0000
000F0000
000F0000
000F0000
000F0000
000F0000
000F0000
000F0000
000F0000
000F0000
000F0000
000F0000
000F0000
000F0000
000F0000
000F8000
000F8000
000FFC00
0007FC00
0003FC00
0001F800
ENDCHAR
STARTCHAR 01AF
ENCODING 431
SWIDTH 780 0
DWIDTH 39 0
BBX 37 39 4 -1
BITMAP
00000000F8
00000000F8
F80000F0F0
F80000F0F0
F80000F1F0
F80000F1E0
F80000F3E0
F80000FFC0
F80000FF80
F80000FE00
F80000F000
F80000F000
F80000F000
F80000F000
F80000F000
F80000F000
F80000F000
F80000F000
F80000F000
F80000F000
F80000F000
F80000F000
F80000F000
F80000F000
F80000F000
F80000F000
780001F000
780001F000
780001F000
7C0001F000
7C0003E000
3E0003E000
3F0007C000
1F800FC000
0FF8FF8000
07FFFF0000
03FFFE0000
00FFF80000
0006000000
ENDCHAR
STARTCHAR 01B0
ENCODING 432
SWIDTH 660 0
DWIDTH 33 0
BBX 31 32 4 -1
BITMAP
0000003E
0000003E
0000003E
0000003E
F0003E3C
F0003E7C
F0003EF8
F0003FF8
F0003FF0
F0003FC0
F0003E00
F0003E00
F0003E00
F0003E00
F0003E00
F0003E00
F0003E00
F0003E00
F0003E00
F0003E00
F0003E00
F0003E00
F0003E00
F8007E00
F8007E00
F800FE00
7C01FE00
7F07FE00
3FFF9E00
1FFF1E00
0FFE1E00
00400000
ENDCHAR
STARTCHAR 01B1
ENCODING 433
SWIDTH 780 0
DWIDTH 39 0
BBX 35 37 2 -1
BITMAP
FFFC07FFE0
FFFC07FFE0
FFFC07FFE0
FFFC07FFE0
00F803E000
01F001F000
03E000F800
07C0007C00
0780003C00
0F80003E00
1F00001F00
1F00001F00
1E00000F00
3E00000F80
3E00000F80
3C00000780
7C000007C0
7C000007C0
7C000007C0
7C000007C0
7C000007C0
7C000007C0
7C000007C0
7C000007C0
7C000007C0
3E00000F80
3E00000F80
3E00000F80
1F00001F00
1F80003F00
0FC0007E00
07F001FC00
03FF1FF800
01FFFFF000
00FFFFE000
001FFF0000
0001600000
ENDCHAR
STARTCHAR 01B2
ENCODING 434
SWIDTH 720 0
DWIDTH 36 0
BBX 28 37 4 -1
BITMAP
F8003F80
F8007FC0
F8007FE0
F8007FE0
F80001F0
F80001F0
F80001F0
F80000F0
F80000F0
F80000F0
F80000F0
F80000F0
F80000F0
F80000F0
F80000F0
F80000F0
F80000F0
F80000F0
F80000F0
F80000F0
F80000F0
F80000F0
F80000F0
F80000F0
780001F0
780001F0
780001F0
7C0001E0
7C0003E0
3E0003E0
3F0007C0
1F800FC0
0FF8FF80
07FFFF00
03FFFC00
00FFF000
00060000
ENDCHAR
STARTCHAR 01B3
ENCODING 435
SWIDTH 560 0
DWIDTH 28 0
BBX 29 36 0 0
BITMAP
F80001F8
7C0003F8
7C0007F8
3E0007F8
3E000F80
1F000F00
1F001F00
0F801E00
0F803E00
07C03E00
03C07C00
03E07C00
01E07800
01F0F800
00F0F000
00F9F000
0079E000
007FE000
003FC000
003FC000
001F8000
001F8000
000F0000
000F0000
000F0000
000F0000
000F0000
000F0000
000F0000
000F0000
000F0000
000F0000
000F0000
000F0000
000F0000
000F0000
ENDCHAR
STARTCHAR 01B4
ENCODING 436
SWIDTH 540 0
DWIDTH 27 0
BBX 27 39 0 -12
BITMAP
F80003E0
780007E0
7C000FE0
7C000F80
3C001F00
3E001E00
1E001E00
1F003E00
1F003C00
0F007C00
0F807800
07807800
0780F800
07C0F000
03C0F000
03E1F000
01E1E000
01E1E000
01F3C000
00F3C000
00F3C000
007F8000
007F8000
007F8000
003F0000
003F0000
001F0000
001E0000
003E0000
003C0000
003C0000
007C0000
00780000
00F80000
01F00000
7FE00000
7FE00000
7F800000
7F000000
ENDCHAR
STARTCHAR 01B5
ENCODING 437
SWIDTH 560 0
DWIDTH 28 0
BBX 25 36 2 0
BITMAP
FFFFFF00
FFFFFF00
FFFFFF00
FFFFFF00
00001F00
00003E00
00007C00
00007C00
0000F800
0001F000
0001F000
0003E000
0007C000
0007C000
000F8000
001F0000
3FFFFC00
3FFFFC00
3FFFFC00
007C0000
00F80000
01F00000
01F00000
03E00000
07C00000
07C00000
0F800000
1F000000
1F000000
3E000000
7C000000
7C000000
FFFFFF80
FFFFFF80
FFFFFF80
FFFFFF80
ENDCHAR
STARTCHAR 01B6
ENCODING 438
SWIDTH 460 0
DWIDTH 23 0
BBX 20 27 2 0
BITMAP
7FFFE0
7FFFE0
7FFFE0
7FFFE0
0003E0
0007C0
000F80
000F00
001F00
003E00
007C00
7FFFE0
7FFFE0
7FFFE0
7FFFE0
03E000
07C000
078000
0F8000
1F0000
3E0000
3C0000
7C0000
F80000
FFFFF0
FFFFF0
FFFFF0
ENDCHAR
STARTCHAR 01B7
ENCODING 439
SWIDTH 580 0
DWIDTH 29 0
BBX 24 37 2 -1
BITMAP
7FFFFE
7FFFFE
7FFFFE
7FFFFE
00007C
0000F8
0001F0
0003E0
0007C0
000F80
001F00
003E00
007C00
00F800
01F000
03E000
07FF80
07FFE0
07FFF8
001FFC
0000FE
00003F
00001F
00001F
00000F
00000F
00000F
00000F
00001F
00001F
00003E
C000FE
FE07FC
FFFFF8
FFFFE0
3FFF80
006000
ENDCHAR
STARTCHAR 01B8
ENCODING 440
SWIDTH 580 0
DWIDTH 29 0
BBX 24 37 3 -1
BITMAP
7FFFFE
7FFFFE
7FFFFE
7FFFFE
3E0000
1F0000
0F8000
07C000
03E000
01F000
00F800
007C00
003E00
001F00
00FF80
03FF80
0FFF80
1FFF80
3F8000
7E0000
7C0000
F80000
F80000
F80000
F00000
F00000
F80000
F80000
F80000
FC0000
7E0000
7F0003
3FE07F
1FFFFF
07FFFF
01FFFC
000E00
ENDCHAR
STARTCHAR 01B9
ENCODING 441
SWIDTH 480 0
DWIDTH 24 0
BBX 22 39 2 -12
BITMAP
7FFFFC
7FFFFC
7FFFFC
7FFFFC
3E0000
1F0000
0F8000
078000
03C000
01E000
01F000
00F800
007C00
003E00
001F00
000F80
01FF80
07FF80
0FFF80
1FE000
3F0000
7C0000
780000
F80000
F00000
F00000
F00000
F00000
F00000
F00000
F80000
F80000
7C0000
7E0000
3F801C
1FFFFC
0FFFFC
03FFFC
00FFC0
ENDCHAR
STARTCHAR 01BA
ENCODING 442
SWIDTH 480 0
DWIDTH 24 0
BBX 21 39 1 -12
BITMAP
FFFFF0
FFFFF0
FFFFF0
FFFFF0
0007E0
000FC0
001F80
003E00
007C00
00F800
03F000
07E000
07FF00
07FFC0
07FFE0
000FF0
0001F8
0000F8
000078
000078
000078
000078
000078
000078
0000F8
0001F0
0007F0
07FFE0
1FFFC0
3FFF00
7FF800
780000
F80000
F80000
7801C0
7FFFC0
3FFFC0
1FFFC0
07FE00
ENDCHAR
STARTCHAR 01BB
ENCODING 443
SWIDTH 560 0
DWIDTH 28 0
BBX 24 38 2 0
BITMAP
03FF00
0FFFC0
1FFFE0
7FFFF0
7E03F0
3801F8
1000F8
0000F8
0000F8
0000F8
0000F8
0000F8
0000F8
0000F0
0001F0
0001F0
0003E0
3FFFFF
3FFFFF
3FFFFF
3FFFFF
001F00
003E00
007C00
00F800
01F800
01F000
03E000
07C000
0F8000
1F0000
1F0000
3E0000
7C0000
FFFFFF
FFFFFF
FFFFFF
FFFFFF
ENDCHAR
STARTCHAR 01BC
ENCODING 444
SWIDTH 580 0
DWIDTH 29 0
BBX 24 37 2 -1
BITMAP
FFFFFE
FFFFFE
FFFFFE
FFFFFE
078000
078000
078000
078000
078000
078000
078000
078000
078000
078000
07FF00
07FFE0
07FFF0
07FFF8
0000FC
00007E
00003F
00001F
00001F
00000F
00000F
00000F
00000F
00001F
00001F
00003F
00003E
C000FE
FE07FC
FFFFF8
FFFFE0
3FFF80
006000
ENDCHAR
STARTCHAR 01BD
ENCODING 445
SWIDTH 480 0
DWIDTH 24 0
BBX 20 28 2 -1
BITMAP
FFFFE0
FFFFE0
FFFFE0
FFFFE0
0F0000
0F0000
0F0000
0F0000
0F0000
0F0000
0FFE00
0FFF80
0FFFC0
003FE0
0003F0
0001F0
0000F0
0000F0
0000F0
0000F0
0000F0
0001F0
8003E0
F80FE0
FFFFC0
FFFF00
7FFE00
018000
ENDCHAR
STARTCHAR 01BE
ENCODING 446
SWIDTH 460 0
DWIDTH 23 0
BBX 19 34 2 -1
BITMAP
038000
038000
038000
038000
078000
078000
1FFF80
FFFF80
FFFF80
FFFF80
078000
078000
078000
078000
078000
078000
07C000
07E000
03F800
03FE00
00FF80
003FC0
000FC0
0007E0
0003E0
0001E0
0001E0
0003E0
8003C0
F80FC0
FFFF80
FFFF00
7FFC00
018000
ENDCHAR
STARTCHAR 01BF
ENCODING 447
SWIDTH 580 0
DWIDTH 29 0
BBX 23 39 4 -12
BITMAP
F0FF80
F1FFE0
F3FFF0
F7C7F8
FF01F8
FC007C
FC007C
F8003E
F8003E
F8003E
F8003E
F8003E
F8003E
F8003E
F8003E
F8003C
F8007C
F8007C
F800F8
F801F0
F803F0
F80FE0
F83FC0
F9FF00
FFFE00
FFF800
FFC000
F80000
F80000
F80000
F80000
F80000
F80000
F80000
F80000
F80000
F80000
F80000
F80000
ENDCHAR
STARTCHAR 01C0
ENCODING 448
SWIDTH 320 0
DWIDTH 16 0
BBX 4 38 6 0
BITMAP
F0
F0
F0
F0
F0
F0
F0
F0
F0
F0
F0
F0
F0
F0
F0
F0
F0
F0
F0
F0
F0
F0
F0
F0
F0
F0
F0
F0
F0
F0
F0
F0
F0
F0
F0
F0
F0
F0
ENDCHAR
STARTCHAR 01C1
ENCODING 449
SWIDTH 540 0
DWIDTH 27 0
BBX 15 38 6 0
BITMAP
F01E
F01E
F01E
F01E
F01E
F01E
F01E
F01E
F01E
F01E
F01E
F01E
F01E
F01E
F01E
F01E
F01E
F01E
F01E
F01E
F01E
F01E
F01E
F01E
F01E
F01E
F01E
F01E
F01E
F01E
F01E
F01E
F01E
F01E
F01E
F01E
F01E
F01E
ENDCHAR
STARTCHAR 01C2
ENCODING 450
SWIDTH 500 0
DWIDTH 25 0
BBX 20 38 3 0
BITMAP
00F000
00F000
00F000
00F000
00F000
00F000
00F000
00F000
00F000
00F000
00F000
00F000
00F000
FFFFF0
FFFFF0
FFFFF0
00F000
00F000
00F000
00F000
00F000
FFFFF0
FFFFF0
FFFFF0
FFFFF0
00F000
00F000
00F000
00F000
00F000
00F000
00F000
00F000
00F000
00F000
00F000
00F000
00F000
ENDCHAR
STARTCHAR 01C3
ENCODING 451
SWIDTH 260 0
DWIDTH 13 0
BBX 6 37 4 -1
BITMAP
F8
F8
F8
F8
F8
F8
F8
F8
F8
78
78
78
78
78
78
78
78
78
78
70
70
70
70
70
70
70
00
00
00
00
78
F8
FC
FC
FC
F8
70
ENDCHAR
STARTCHAR 01C4
ENCODING 452
SWIDTH 1280 0
DWIDTH 64 0
BBX 58 47 5 0
BITMAP
0000000007803C00
0000000003C07800
0000000001E1F000
0000000000FBE000
00000000007FC000
00000000003F8000
00000000003F8000
00000000001F0000
0000000000000000
0000000000000000
0000000000000000
FFFC00007FFFFF80
FFFFC0007FFFFF80
FFFFF8007FFFFF80
FFFFFC007FFFFF80
F003FE0000000F80
F0007F0000001F00
F0001F8000003E00
F0000FC000003E00
F00007C000007C00
F00003E00000F800
F00003E00000F800
F00001F00001F000
F00001F00003E000
F00001F00003E000
F00001F00007C000
F00000F0000F8000
F00000F0000F8000
F00000F0001F0000
F00000F0003E0000
F00000F0003E0000
F00000F0007C0000
F00001F000F80000
F00001F000F80000
F00001F001F00000
F00001F003E00000
F00003E003E00000
F00003E007C00000
F00007C00F800000
F0000FC00F800000
F0001F801F000000
F0007F003E000000
F001FE003E000000
FFFFFC007FFFFFC0
FFFFF8007FFFFFC0
FFFFE0007FFFFFC0
FFFE00007FFFFFC0
ENDCHAR
STARTCHAR 01C5
ENCODING 453
SWIDTH 1200 0
DWIDTH 60 0
BBX 53 38 5 0
BITMAP
000000001E01F0
000000000F03E0
FFFC00000787C0
FFFFC00003CF80
FFFFF80001FF00
FFFFFC0001FE00
F003FE0000FC00
F0007F00007C00
F0001F80000000
F0000FC0000000
F00007C0000000
F00003E03FFFF8
F00003E03FFFF8
F00001F03FFFF8
F00001F03FFFF8
F00001F00001F0
F00001F00003E0
F00000F00003E0
F00000F00007C0
F00000F0000F80
F00000F0000F00
F00000F0001F00
F00000F0003E00
F00001F0003C00
F00001F0007C00
F00001F000F800
F00001F001F000
F00003E001F000
F00003E003E000
F00007C007C000
F0000FC0078000
F0001F800F8000
F0007F001F0000
F001FE001E0000
FFFFFC003E0000
FFFFF8007FFFF8
FFFFE0007FFFF8
FFFE00007FFFF8
ENDCHAR
STARTCHAR 01C6
ENCODING 454
SWIDTH 1080 0
DWIDTH 54 0
BBX 49 39 3 -1
BITMAP
00001F01E00F00
00001F00F03E00
00001F007C7C00
00001F003EF800
00001F001FF000
00001F000FE000
00001F000FC000
00001F0007C000
00001F00000000
00001F00000000
00001F00000000
01FE1F01FFFF80
07FF9F01FFFF80
1FFFDF01FFFF80
1FC7FF01FFFF80
3F00FF00001F00
7E007F00001F00
7C003F00003E00
78003F00007C00
F8001F00007800
F8001F0000F800
F8001F0001F000
F0001F0001E000
F0001F0003E000
F0001F0007C000
F0001F000F8000
F0001F000F0000
F0001F001F0000
F8001F003E0000
F8001F003C0000
F8003F007C0000
7C003F00F80000
7C007F00F00000
3E00FF01F00000
3F83FF03E00000
1FFFDF03FFFF80
0FFF8F03FFFF80
03FF0F03FFFF80
00200000000000
ENDCHAR
STARTCHAR 01C7
ENCODING 455
SWIDTH 780 0
DWIDTH 39 0
BBX 30 46 5 -10
BITMAP
F000003C
F000003C
F000003C
F000003C
F000003C
F000003C
F000003C
F000003C
F000003C
F000003C
F000003C
F000003C
F000003C
F000003C
F000003C
F000003C
F000003C
F000003C
F000003C
F000003C
F000003C
F000003C
F000003C
F000003C
F000003C
F000003C
F000003C
F000003C
F000003C
F000003C
F000003C
F000003C
FFFFF03C
FFFFF03C
FFFFF03C
FFFFF03C
0000003C
0000003C
0000007C
0000007C
000000F8
000077F8
00007FF0
00007FE0
00007FC0
00000C00
ENDCHAR
STARTCHAR 01C8
ENCODING 456
SWIDTH 780 0
DWIDTH 39 0
BBX 30 49 5 -12
BITMAP
00000038
F000007C
F000007C
F000007C
F000007C
F0000018
F0000000
F0000000
F0000000
F0000000
F000007C
F000007C
F000007C
F000007C
F000007C
F000007C
F000007C
F000007C
F000007C
F000007C
F000007C
F000007C
F000007C
F000007C
F000007C
F000007C
F000007C
F000007C
F000007C
F000007C
F000007C
F000007C
F000007C
FFFFF07C
FFFFF07C
FFFFF07C
FFFFF07C
0000007C
0000007C
0000007C
0000007C
0000007C
0000007C
0000007C
000000F8
00003FF8
00003FF0
00003FE0
00001FC0
ENDCHAR
STARTCHAR 01C9
ENCODING 457
SWIDTH 500 0
DWIDTH 25 0
BBX 18 50 4 -12
BITMAP
F80000
F80380
F807C0
F807C0
F807C0
F807C0
F80380
F80000
F80000
F80000
F80000
F807C0
F807C0
F807C0
F807C0
F807C0
F807C0
F807C0
F807C0
F807C0
F807C0
F807C0
F807C0
F807C0
F807C0
F807C0
F807C0
F807C0
F807C0
F807C0
F807C0
F807C0
F807C0
F807C0
F807C0
F807C0
F807C0
F807C0
0007C0
0007C0
0007C0
0007C0
0007C0
000780
000780
000F80
03FF80
03FF00
03FE00
01F800
ENDCHAR
STARTCHAR 01CA
ENCODING 458
SWIDTH 1020 0
DWIDTH 51 0
BBX 42 46 5 -10
BITMAP
F80000F003C0
FC0000F003C0
FC0000F003C0
FE0000F003C0
FF0000F003C0
FF0000F003C0
FF8000F003C0
F7C000F003C0
F7C000F003C0
F3E000F003C0
F3F000F003C0
F1F000F003C0
F0F800F003C0
F0FC00F003C0
F07C00F003C0
F03E00F003C0
F03F00F003C0
F01F00F003C0
F00F80F003C0
F00F80F003C0
F007C0F003C0
F003E0F003C0
F003E0F003C0
F001F0F003C0
F001F8F003C0
F000F8F003C0
F0007CF003C0
F0007EF003C0
F0003EF003C0
F0001FF003C0
F0001FF003C0
F0000FF003C0
F00007F003C0
F00007F003C0
F00003F003C0
F00001F003C0
0000000003C0
0000000007C0
0000000007C0
0000000007C0
000000000F80
000000077F80
00000007FF00
00000007FE00
00000007F800
000000008000
ENDCHAR
STARTCHAR 01CB
ENCODING 459
SWIDTH 1000 0
DWIDTH 50 0
BBX 42 49 5 -12
BITMAP
000000000380
F80000F007C0
FC0000F007C0
FC0000F007C0
FE0000F007C0
FF0000F00380
FF0000F00000
FF8000F00000
F7C000F00000
F7C000F00000
F3E000F007C0
F3F000F007C0
F1F000F007C0
F0F800F007C0
F0FC00F007C0
F07C00F007C0
F03E00F007C0
F03F00F007C0
F01F00F007C0
F00F80F007C0
F00F80F007C0
F007C0F007C0
F003E0F007C0
F003E0F007C0
F001F0F007C0
F001F8F007C0
F000F8F007C0
F0007CF007C0
F0007EF007C0
F0003EF007C0
F0001FF007C0
F0001FF007C0
F0000FF007C0
F00007F007C0
F00007F007C0
F00003F007C0
F00001F007C0
0000000007C0
0000000007C0
0000000007C0
0000000007C0
0000000007C0
0000000007C0
000000000780
000000000F80
00000003FF80
00000003FF00
00000003FE00
00000003F800
ENDCHAR
STARTCHAR 01CC
ENCODING 460
SWIDTH 860 0
DWIDTH 43 0
BBX 36 49 4 -12
BITMAP
00000000E0
00000001F0
00000001F0
00000001F0
00000001F0
00000000E0
0000000000
0000000000
0000000000
0000000000
F07FC001F0
F1FFF001F0
F3FFF801F0
F7E7FC01F0
FF00FC01F0
FE007C01F0
FC003E01F0
FC003E01F0
F8003E01F0
F8003E01F0
F8003E01F0
F8003E01F0
F8003E01F0
F8003E01F0
F8003E01F0
F8003E01F0
F8003E01F0
F8003E01F0
F8003E01F0
F8003E01F0
F8003E01F0
F8003E01F0
F8003E01F0
F8003E01F0
F8003E01F0
F8003E01F0
F8003E01F0
00000001F0
00000001F0
00000001F0
00000001F0
00000001F0
00000001E0
00000001E0
00000003E0
000000FFE0
000000FFC0
000000FF80
0000007E00
ENDCHAR
STARTCHAR 01CD
ENCODING 461
SWIDTH 620 0
DWIDTH 31 0
BBX 32 47 0 0
BITMAP
01E00F00
00F81E00
007C3C00
003E7800
001FF800
000FF000
0007E000
0007C000
00000000
00000000
00000000
0003C000
0007E000
0007E000
0007E000
000FF000
000FF000
001EF000
001E7800
001E7800
003E7C00
003C3C00
003C3C00
00783E00
00781E00
00F81F00
00F00F00
00F00F00
01F00F80
01E00780
03E007C0
03C007C0
03FFFFC0
07FFFFE0
07FFFFE0
0FFFFFE0
0F8001F0
0F0000F0
1F0000F8
1E0000F8
1E000078
3E00007C
3C00003C
7C00003E
7C00003E
7800001E
F800001F
ENDCHAR
STARTCHAR 01CE
ENCODING 462
SWIDTH 560 0
DWIDTH 28 0
BBX 22 39 2 -1
BITMAP
0F00F0
0781E0
03C3C0
03E7C0
01FF80
00FF00
007E00
003C00
000000
000000
000000
01FF80
0FFFE0
1FFFF0
0FC3F8
0E00F8
00007C
00007C
00003C
00003C
00003C
00003C
00FFFC
07FFFC
1FFFFC
3FC03C
7E003C
7C003C
78003C
F8007C
F8007C
F8007C
F800FC
7C01FC
7E07BC
3FFFBC
1FFE3C
0FFC1C
008000
ENDCHAR
STARTCHAR 01CF
ENCODING 463
SWIDTH 320 0
DWIDTH 16 0
BBX 17 47 0 0
BITMAP
F00780
780F00
3C3E00
1F7C00
0FF800
07F000
07F000
03E000
000000
000000
000000
3FFE00
3FFE00
3FFE00
0FF000
03E000
03E000
03E000
03E000
03E000
03E000
03E000
03E000
03E000
03E000
03E000
03E000
03E000
03E000
03E000
03E000
03E000
03E000
03E000
03E000
03E000
03E000
03E000
03E000
03E000
03E000
03E000
03E000
03E000
3FFE00
3FFE00
3FFE00
ENDCHAR
STARTCHAR 01D0
ENCODING 464
SWIDTH 240 0
DWIDTH 12 0
BBX 17 38 -2 0
BITMAP
F00780
781F00
3E3E00
1F7C00
0FF800
07F000
07E000
03E000
000000
000000
000000
03E000
03E000
03E000
03E000
03E000
03E000
03E000
03E000
03E000
03E000
03E000
03E000
03E000
03E000
03E000
03E000
03E000
03E000
03E000
03E000
03E000
03E000
03E000
03E000
03E000
03E000
03E000
ENDCHAR
STARTCHAR 01D1
ENCODING 465
SWIDTH 780 0
DWIDTH 39 0
BBX 33 48 3 -1
BITMAP
00F0078000
00780F0000
003E3E0000
001F7C0000
000FF80000
0007F00000
0007F00000
0003E00000
0000000000
0000000000
0000000000
001FFC0000
00FFFF8000
01FFFFC000
07FFFFF000
0FF007F800
0FC001F800
1F80007C00
3F00007E00
3E00003E00
7C00001F00
7C00001F00
7C00001F00
7800000F00
F800000F80
F800000F80
F800000F80
F800000F80
F800000F80
F800000F80
F800000F80
F800000F80
F800000F80
F800000F80
7800000F00
7C00001F00
7C00001F00
7C00001F00
3E00003E00
3E00003E00
1F00007C00
1F8000FC00
0FE003F800
07FE3FF000
03FFFFE000
00FFFF8000
003FFE0000
0000800000
ENDCHAR
STARTCHAR 01D2
ENCODING 466
SWIDTH 600 0
DWIDTH 30 0
BBX 25 39 3 -1
BITMAP
0F00F000
0781E000
03C3E000
01E7C000
01FF8000
00FF0000
007E0000
003C0000
00000000
00000000
00000000
01FF8000
07FFE000
0FFFF000
1FE7F800
3F00FC00
3E003E00
7C003E00
78001F00
F8001F00
F8000F00
F8000F00
F0000F00
F0000F80
F0000F80
F0000F80
F0000F00
F0000F00
F8000F00
F8001F00
78001F00
7C003E00
3C003E00
3F007C00
1FC1FC00
0FFFF800
07FFE000
01FF8000
00180000
ENDCHAR
STARTCHAR 01D3
ENCODING 467
SWIDTH 720 0
DWIDTH 36 0
BBX 28 48 4 -1
BITMAP
03C01E00
01E07C00
00F0F800
0079F000
003FE000
003FC000
001F8000
000F8000
00000000
00000000
00000000
F80000F0
F80000F0
F80000F0
F80000F0
F80000F0
F80000F0
F80000F0
F80000F0
F80000F0
F80000F0
F80000F0
F80000F0
F80000F0
F80000F0
F80000F0
F80000F0
F80000F0
F80000F0
F80000F0
F80000F0
F80000F0
F80000F0
F80000F0
F80000F0
780001F0
780001F0
780001F0
7C0001E0
7C0003E0
3E0003E0
3F0007C0
1F800FC0
0FF8FF80
07FFFF00
03FFFC00
00FFF000
00060000
ENDCHAR
STARTCHAR 01D4
ENCODING 468
SWIDTH 600 0
DWIDTH 30 0
BBX 23 39 4 -1
BITMAP
1E00F0
0F03E0
07C7C0
03EF80
01FF00
00FE00
00FC00
007C00
000000
000000
000000
F0003E
F0003E
F0003E
F0003E
F0003E
F0003E
F0003E
F0003E
F0003E
F0003E
F0003E
F0003E
F0003E
F0003E
F0003E
F0003E
F0003E
F0003E
F0003E
F8007E
F8007E
F800FE
7C01FE
7F07FE
3FFF9E
1FFF1E
0FFE1E
004000
ENDCHAR
STARTCHAR 01D5
ENCODING 469
SWIDTH 720 0
DWIDTH 36 0
BBX 28 52 4 -1
BITMAP
01FFFC00
01FFFC00
01FFFC00
01FFFC00
00000000
00000000
00000000
00E03000
01F07800
01F07800
01F07800
00E07800
00000000
00000000
00000000
F80000F0
F80000F0
F80000F0
F80000F0
F80000F0
F80000F0
F80000F0
F80000F0
F80000F0
F80000F0
F80000F0
F80000F0
F80000F0
F80000F0
F80000F0
F80000F0
F80000F0
F80000F0
F80000F0
F80000F0
F80000F0
F80000F0
F80000F0
F80000F0
780001F0
780001F0
780001F0
7C0001E0
7C0003E0
3E0003E0
3F0007C0
1F800FC0
0FF8FF80
07FFFF00
03FFFC00
00FFF000
00060000
ENDCHAR
STARTCHAR 01D6
ENCODING 470
SWIDTH 600 0
DWIDTH 30 0
BBX 23 43 4 -1
BITMAP
0FFFE0
0FFFE0
0FFFE0
0FFFE0
000000
000000
000000
0701C0
0783C0
0F83C0
0783C0
0701C0
000000
000000
000000
F0003E
F0003E
F0003E
F0003E
F0003E
F0003E
F0003E
F0003E
F0003E
F0003E
F0003E
F0003E
F0003E
F0003E
F0003E
F0003E
F0003E
F0003E
F0003E
F8007E
F8007E
F800FE
7C01FE
7F07FE
3FFF9E
1FFF1E
0FFE1E
004000
ENDCHAR
STARTCHAR 01D7
ENCODING 471
SWIDTH 720 0
DWIDTH 36 0
BBX 28 53 4 -1
BITMAP
0000F800
0001F800
0001F000
0003C000
00078000
000F0000
000E0000
00000000
00E03000
01F07800
01F07800
01F07800
00E07800
00000000
00000000
00000000
F80000F0
F80000F0
F80000F0
F80000F0
F80000F0
F80000F0
F80000F0
F80000F0
F80000F0
F80000F0
F80000F0
F80000F0
F80000F0
F80000F0
F80000F0
F80000F0
F80000F0
F80000F0
F80000F0
F80000F0
F80000F0
F80000F0
F80000F0
F80000F0
780001F0
780001F0
780001F0
7C0001E0
7C0003E0
3E0003E0
3F0007C0
1F800FC0
0FF8FF80
07FFFF00
03FFFC00
00FFF000
00060000
ENDCHAR
STARTCHAR 01D8
ENCODING 472
SWIDTH 600 0
DWIDTH 30 0
BBX 23 45 4 -1
BITMAP
0003E0
0007C0
000FC0
000F80
001F00
003C00
007800
007000
000000
0701C0
0783C0
0F83C0
0783C0
0701C0
000000
000000
000000
F0003E
F0003E
F0003E
F0003E
F0003E
F0003E
F0003E
F0003E
F0003E
F0003E
F0003E
F0003E
F0003E
F0003E
F0003E
F0003E
F0003E
F0003E
F0003E
F8007E
F8007E
F800FE
7C01FE
7F07FE
3FFF9E
1FFF1E
0FFE1E
004000
ENDCHAR
STARTCHAR 01D9
ENCODING 473
SWIDTH 720 0
DWIDTH 36 0
BBX 28 54 4 -1
BITMAP
03C01E00
01E07C00
00F0F800
007DF000
003FE000
003FC000
001F8000
000F8000
00000000
00E03000
01F07800
01F07800
01F07800
00E07800
00000000
00000000
00000000
F80000F0
F80000F0
F80000F0
F80000F0
F80000F0
F80000F0
F80000F0
F80000F0
F80000F0
F80000F0
F80000F0
F80000F0
F80000F0
F80000F0
F80000F0
F80000F0
F80000F0
F80000F0
F80000F0
F80000F0
F80000F0
F80000F0
F80000F0
F80000F0
780001F0
780001F0
780001F0
7C0001E0
7C0003E0
3E0003E0
3F0007C0
1F800FC0
0FF8FF80
07FFFF00
03FFFC00
00FFF000
00060000
ENDCHAR
STARTCHAR 01DA
ENCODING 474
SWIDTH 600 0
DWIDTH 30 0
BBX 23 45 4 -1
BITMAP
1E00F0
0F03E0
07C7C0
03EF80
01FF00
00FE00
007C00
000000
000000
0701C0
0783C0
0F83C0
0783C0
0701C0
000000
000000
000000
F0003E
F0003E
F0003E
F0003E
F0003E
F0003E
F0003E
F0003E
F0003E
F0003E
F0003E
F0003E
F0003E
F0003E
F0003E
F0003E
F0003E
F0003E
F0003E
F8007E
F8007E
F800FE
7C01FE
7F07FE
3FFF9E
1FFF1E
0FFE1E
004000
ENDCHAR
STARTCHAR 01DB
ENCODING 475
SWIDTH 720 0
DWIDTH 36 0
BBX 28 53 4 -1
BITMAP
01F80000
00F80000
007C0000
003E0000
001F0000
000F0000
00038000
00000000
00E03000
01F07800
01F07800
01F07800
00E07800
00000000
00000000
00000000
F80000F0
F80000F0
F80000F0
F80000F0
F80000F0
F80000F0
F80000F0
F80000F0
F80000F0
F80000F0
F80000F0
F80000F0
F80000F0
F80000F0
F80000F0
F80000F0
F80000F0
F80000F0
F80000F0
F80000F0
F80000F0
F80000F0
F80000F0
F80000F0
780001F0
780001F0
780001F0
7C0001E0
7C0003E0
3E0003E0
3F0007C0
1F800FC0
0FF8FF80
07FFFF00
03FFFC00
00FFF000
00060000
ENDCHAR
STARTCHAR 01DC
ENCODING 476
SWIDTH 600 0
DWIDTH 30 0
BBX 23 45 4 -1
BITMAP
0F8000
0FC000
07E000
03E000
01F000
00F800
003C00
001C00
000000
0701C0
0783C0
0F83C0
0783C0
0701C0
000000
000000
000000
F0003E
F0003E
F0003E
F0003E
F0003E
F0003E
F0003E
F0003E
F0003E
F0003E
F0003E
F0003E
F0003E
F0003E
F0003E
F0003E
F0003E
F0003E
F0003E
F8007E
F8007E
F800FE
7C01FE
7F07FE
3FFF9E
1FFF1E
0FFE1E
004000
ENDCHAR
STARTCHAR 01DD
ENCODING 477
SWIDTH 560 0
DWIDTH 28 0
BBX 22 28 3 -1
BITMAP
1FFE00
7FFF80
7FFFC0
7FBFE0
6003F0
0001F8
0000F8
00007C
00007C
00007C
00003C
00003C
00003C
FFFFFC
FFFFFC
FFFFFC
F0003C
F0003C
F0007C
F8007C
F80078
7C00F8
7C01F0
3F07E0
1FFFE0
0FFF80
03FF00
002000
ENDCHAR
STARTCHAR 01DE
ENCODING 478
SWIDTH 620 0
DWIDTH 31 0
BBX 32 51 0 0
BITMAP
00FFFE00
00FFFE00
00FFFE00
00FFFE00
00000000
00000000
00000000
00381C00
00783E00
00783E00
00783E00
00381C00
00000000
00000000
00000000
0003C000
0007E000
0007E000
0007E000
000FF000
000FF000
001EF000
001E7800
001E7800
003E7C00
003C3C00
003C3C00
00783E00
00781E00
00F81F00
00F00F00
00F00F00
01F00F80
01E00780
03E007C0
03C007C0
03FFFFC0
07FFFFE0
07FFFFE0
0FFFFFE0
0F8001F0
0F0000F0
1F0000F8
1E0000F8
1E000078
3E00007C
3C00003C
7C00003E
7C00003E
7800001E
F800001F
ENDCHAR
STARTCHAR 01DF
ENCODING 479
SWIDTH 560 0
DWIDTH 28 0
BBX 22 43 2 -1
BITMAP
07FFE0
07FFE0
07FFE0
07FFE0
000000
000000
000000
0381C0
07C3E0
07C3E0
07C3E0
0381C0
000000
000000
000000
01FF80
0FFFE0
1FFFF0
0FC3F8
0E00F8
00007C
00007C
00003C
00003C
00003C
00003C
00FFFC
07FFFC
1FFFFC
3FC03C
7E003C
7C003C
78003C
F8007C
F8007C
F8007C
F800FC
7C01FC
7E07BC
3FFFBC
1FFE3C
0FFC1C
008000
ENDCHAR
STARTCHAR 01E0
ENCODING 480
SWIDTH 620 0
DWIDTH 31 0
BBX 32 50 0 0
BITMAP
00FFFE00
00FFFE00
00FFFE00
00FFFE00
00000000
00000000
0003C000
0003C000
0007C000
0007C000
0003C000
00000000
00000000
00000000
0003C000
0007E000
0007E000
0007E000
000FF000
000FF000
001EF000
001E7800
001E7800
003E7C00
003C3C00
003C3C00
00783E00
00781E00
00F81F00
00F00F00
00F00F00
01F00F80
01E00780
03E007C0
03C007C0
03FFFFC0
07FFFFE0
07FFFFE0
0FFFFFE0
0F8001F0
0F0000F0
1F0000F8
1E0000F8
1E000078
3E00007C
3C00003C
7C00003E
7C00003E
7800001E
F800001F
ENDCHAR
STARTCHAR 01E1
ENCODING 481
SWIDTH 560 0
DWIDTH 28 0
BBX 22 43 2 -1
BITMAP
07FFE0
07FFE0
07FFE0
07FFE0
000000
000000
001800
003C00
007E00
007E00
003C00
001800
000000
000000
000000
01FF80
0FFFE0
1FFFF0
0FC3F8
0E00F8
00007C
00007C
00003C
00003C
00003C
00003C
00FFFC
07FFFC
1FFFFC
3FC03C
7E003C
7C003C
78003C
F8007C
F8007C
F8007C
F800FC
7C01FC
7E07BC
3FFFBC
1FFE3C
0FFC1C
008000
ENDCHAR
STARTCHAR 01E2
ENCODING 482
SWIDTH 880 0
DWIDTH 44 0
BBX 41 43 0 0
BITMAP
00007FFF0000
00007FFF0000
00007FFF0000
00007FFF0000
000000000000
000000000000
000000000000
00007FFFFF80
0000FFFFFF80
0000FFFFFF80
0001FFFFFF80
0001E3E00000
0003E3E00000
0003E3E00000
0007C3E00000
0007C3E00000
000783E00000
000F83E00000
000F03E00000
001F03E00000
001E03E00000
003E03E00000
003C03FFFF00
007C03FFFF00
007803FFFF00
00F803FFFF00
00F003E00000
01F003E00000
01FFFFE00000
03FFFFE00000
03FFFFE00000
07FFFFE00000
07C003E00000
0F8003E00000
0F8003E00000
1F0003E00000
1F0003E00000
1E0003E00000
3E0003E00000
3C0003FFFF80
7C0003FFFF80
780003FFFF80
F80003FFFF80
ENDCHAR
STARTCHAR 01E3
ENCODING 483
SWIDTH 860 0
DWIDTH 43 0
BBX 39 35 2 -1
BITMAP
000FFFE000
000FFFE000
000FFFE000
000FFFE000
0000000000
0000000000
0000000000
03FF00FF00
0FFFC3FFC0
1FFFE7FFE0
1F87FFE3F0
0C01FF00F8
0000FE0078
00007E007C
00007C003C
00007C003C
00007C003C
00007C003E
00FFFFFFFE
07FFFFFFFE
1FFFFFFFFE
3FC07C0000
7E007C0000
7C007C0000
78007C0000
F8007C0000
F800FC0000
F800FE0000
F801FF0000
7C03DF8008
7E0FCFE0F8
3FFF87FFF8
1FFF03FFF8
0FFC00FFF0
0080000C00
ENDCHAR
STARTCHAR 01E4
ENCODING 484
SWIDTH 720 0
DWIDTH 36 0
BBX 33 37 3 -1
BITMAP
0007FF8000
003FFFF000
00FFFFF800
03FFFFF800
07F800F000
0FE0001000
0F80000000
1F00000000
3E00000000
3E00000000
7C00000000
7C00000000
7800000000
F800000000
F800000000
F800000000
F800000000
F8007FFC00
F8007FFC00
F8007FFC00
F8007FFC00
F800007C00
F800007C00
7800007C00
7C00007C00
7C003FFF80
7C003FFF80
3E003FFF80
3F00007C00
1F80007C00
1FC0007C00
0FF0007C00
07FF8FFC00
03FFFFFC00
00FFFFFC00
003FFFC000
0000600000
ENDCHAR
STARTCHAR 01E5
ENCODING 485
SWIDTH 600 0
DWIDTH 30 0
BBX 26 39 3 -12
BITMAP
03FE0F00
07FF8F00
1FFFCF00
3FCFFF00
3F00FF00
7C007F00
7C003F00
F8003F00
F8001F00
F8001F00
F0001F00
F0001F00
F0001F00
F0001F00
F0001F00
F0001F00
F8001F00
F8001F00
F8001F00
7C003F00
7C007F00
3F00FF00
1FFFFF00
1FFFDF00
07FF9F00
01FE1F00
00001F00
00001F00
00001F00
003FFFC0
003FFFC0
003FFFC0
00003E00
00003E00
3800FC00
3FFFF800
3FFFF000
3FFFE000
03FF0000
ENDCHAR
STARTCHAR 01E6
ENCODING 486
SWIDTH 720 0
DWIDTH 36 0
BBX 30 48 3 -1
BITMAP
007803C0
003C0F80
001E1F00
000F3E00
000FFC00
0007F800
0003F000
0001F000
00000000
00000000
00000000
0007FF80
003FFFF0
00FFFFF8
03FFFFF8
07F800F0
0FE00010
1F800000
1F000000
3F000000
3E000000
7C000000
7C000000
7C000000
F8000000
F8000000
F8000000
F8000000
F8007FFC
F8007FFC
F8007FFC
F8007FFC
F800007C
F800007C
7800007C
7C00007C
7C00007C
7E00007C
3E00007C
3F00007C
1F80007C
0FC0007C
0FF0007C
07FF8FFC
01FFFFFC
00FFFFFC
003FFFE0
0000E000
ENDCHAR
STARTCHAR 01E7
ENCODING 487
SWIDTH 600 0
DWIDTH 30 0
BBX 24 50 3 -12
BITMAP
0F00F0
0F81E0
07C3C0
03E780
01FF00
00FF00
007E00
007C00
000000
000000
000000
03FE0F
07FF8F
0FFFCF
1FCFFF
3F00FF
7E007F
7C003F
78003F
F8001F
F8001F
F8001F
F0001F
F0001F
F0001F
F0001F
F0001F
F0001F
F8001F
F8001F
F8001F
7C003F
7C003F
3E007F
3F83FF
1FFFDF
0FFF9F
03FF1F
00201F
00001E
00001E
00001E
00003E
00003E
00007C
3800FC
3FFFF8
3FFFF0
3FFFE0
03FF00
ENDCHAR
STARTCHAR 01E8
ENCODING 488
SWIDTH 600 0
DWIDTH 30 0
BBX 26 47 5 0
BITMAP
0F00F000
0781E000
07C3C000
03E7C000
01FF8000
00FF0000
007E0000
003C0000
00000000
00000000
00000000
F0000F80
F0001F00
F0003E00
F0007E00
F000FC00
F001F800
F001F000
F003E000
F007C000
F00F8000
F01F0000
F03E0000
F07C0000
F0F80000
F1F00000
F3F00000
F3F00000
F7F00000
FFF80000
FEFC0000
FC7E0000
F83E0000
F01F0000
F01F8000
F00FC000
F007C000
F003E000
F003F000
F001F000
F000F800
F0007C00
F0007E00
F0003E00
F0001F00
F0000F80
F0000FC0
ENDCHAR
STARTCHAR 01E9
ENCODING 489
SWIDTH 520 0
DWIDTH 26 0
BBX 28 50 -2 0
BITMAP
E0038000
F00F8000
7C1F0000
3E3E0000
1F7C0000
0FF80000
07F00000
07E00000
03E00000
00000000
00000000
00000000
03E00000
03E00000
03E00000
03E00000
03E00000
03E00000
03E00000
03E00000
03E00000
03E00000
03E00000
03E003E0
03E007C0
03E00F80
03E01F00
03E03E00
03E07E00
03E0FC00
03E1F800
03E3F000
03E3E000
03E7C000
03EF8000
03DF8000
03FFC000
03FFE000
03FBF000
03E1F000
03E0F800
03E07C00
03E07E00
03E03E00
03E01F00
03E00F80
03E00FC0
03E007C0
03E003E0
03E001F0
ENDCHAR
STARTCHAR 01EA
ENCODING 490
SWIDTH 780 0
DWIDTH 39 0
BBX 33 47 3 -11
BITMAP
001FFC0000
00FFFF8000
01FFFFC000
07FFFFF000
0FF007F800
0FC001F800
1F80007C00
3F00007E00
3E00003E00
7C00001F00
7C00001F00
7C00001F00
7800000F00
F800000F80
F800000F80
F800000F80
F800000F80
F800000F80
F800000F80
F800000F80
F800000F80
F800000F80
F800000F80
7800000F00
7C00001F00
7C00001F00
7C00001F00
3E00003E00
3E00003E00
1F00007C00
1F8000FC00
0FE003F800
07FE3FF000
03FFFFE000
00FFFF8000
003FFE0000
0000E00000
0001C00000
0003C00000
0003800000
0007800000
0007000000
0007000000
0007800000
0007F80000
0003F80000
0001F80000
ENDCHAR
STARTCHAR 01EB
ENCODING 491
SWIDTH 600 0
DWIDTH 30 0
BBX 25 38 3 -11
BITMAP
01FF8000
07FFE000
0FFFF000
1FE7F800
3F00FC00
3E003E00
7C003E00
78001F00
F8001F00
F8000F00
F8000F00
F0000F00
F0000F80
F0000F80
F0000F80
F0000F00
F0000F00
F8000F00
F8001F00
78001F00
7C003E00
3C003E00
3F007C00
1FC1FC00
0FFFF800
07FFE000
01FF8000
001E0000
001C0000
00380000
00780000
00700000
00700000
00F00000
00780000
007F8000
003F8000
001F8000
ENDCHAR
STARTCHAR 01EC
ENCODING 492
SWIDTH 780 0
DWIDTH 39 0
BBX 33 54 3 -11
BITMAP
007FFF0000
007FFF0000
007FFF0000
007FFF0000
0000000000
0000000000
0000000000
001FFC0000
00FFFF8000
01FFFFC000
07FFFFF000
0FF007F800
0FC001F800
1F80007C00
3F00007E00
3E00003E00
7C00001F00
7C00001F00
7C00001F00
7800000F00
F800000F80
F800000F80
F800000F80
F800000F80
F800000F80
F800000F80
F800000F80
F800000F80
F800000F80
F800000F80
7800000F00
7C00001F00
7C00001F00
7C00001F00
3E00003E00
3E00003E00
1F00007C00
1F8000FC00
0FE003F800
07FE3FF000
03FFFFE000
00FFFF8000
003FFE0000
0000F00000
0000E00000
0001C00000
0003C00000
0003800000
0007800000
0007800000
0003C00000
0003FC0000
0003FC0000
0000FC0000
ENDCHAR
STARTCHAR 01ED
ENCODING 493
SWIDTH 600 0
DWIDTH 30 0
BBX 25 45 3 -11
BITMAP
07FFF000
07FFF000
07FFF000
07FFF000
00000000
00000000
00000000
01FF8000
07FFE000
0FFFF000
1FE7F800
3F00FC00
3E003E00
7C003E00
78001F00
F8001F00
F8000F00
F8000F00
F0000F00
F0000F80
F0000F80
F0000F80
F0000F00
F0000F00
F8000F00
F8001F00
78001F00
7C003E00
3C003E00
3F007C00
1FC1FC00
0FFFF800
07FFE000
01FF8000
001E0000
001C0000
00380000
00780000
00700000
00700000
00F00000
00780000
007F8000
003F8000
001F8000
ENDCHAR
STARTCHAR 01EE
ENCODING 494
SWIDTH 580 0
DWIDTH 29 0
BBX 24 48 2 -1
BITMAP
1E00F0
0F81E0
07C3C0
03E780
01FF00
00FF00
007E00
007C00
000000
000000
000000
7FFFFE
7FFFFE
7FFFFE
7FFFFE
00007C
0000F8
0001F0
0003E0
0007C0
000F80
001F00
003E00
007C00
00F800
01F000
03E000
07FF80
07FFE0
07FFF8
001FFC
0000FE
00003F
00001F
00001F
00000F
00000F
00000F
00000F
00001F
00001F
00003E
C000FE
FE07FC
FFFFF8
FFFFE0
3FFF80
006000
ENDCHAR
STARTCHAR 01EF
ENCODING 495
SWIDTH 480 0
DWIDTH 24 0
BBX 22 50 1 -12
BITMAP
3C01E0
1F03C0
0F8780
07DF00
03FE00
01FC00
00FC00
00F800
000000
000000
000000
FFFFF8
FFFFF8
FFFFF8
FFFFF8
0001F0
0003E0
0007C0
000F80
000F00
001E00
003C00
007C00
00F800
01F000
03E000
07C000
07FE00
07FF80
07FFC0
001FE0
0003F0
0000F8
000078
00007C
00007C
00003C
00003C
00003C
00003C
00007C
00007C
000078
0000F8
0001F0
E007F0
FFFFE0
FFFFC0
FFFF00
1FF800
ENDCHAR
STARTCHAR 01F0
ENCODING 496
SWIDTH 240 0
DWIDTH 12 0
BBX 18 50 -3 -12
BITMAP
7803C0
3C0F80
1F1F00
0FBE00
07FC00
03F800
03F000
01F000
000000
000000
000000
01F000
01F000
01F000
01F000
01F000
01F000
01F000
01F000
01F000
01F000
01F000
01F000
01F000
01F000
01F000
01F000
01F000
01F000
01F000
01F000
01F000
01F000
01F000
01F000
01F000
01F000
01F000
01F000
01F000
01F000
01F000
01F000
01F000
01E000
03E000
FFE000
FFC000
FF8000
FE0000
ENDCHAR
STARTCHAR 01F1
ENCODING 497
SWIDTH 1280 0
DWIDTH 64 0
BBX 58 36 5 0
BITMAP
FFFC00007FFFFF80
FFFFC0007FFFFF80
FFFFF8007FFFFF80
FFFFFC007FFFFF80
F003FE0000000F80
F0007F0000001F00
F0001F8000003E00
F0000FC000003E00
F00007C000007C00
F00003E00000F800
F00003E00000F800
F00001F00001F000
F00001F00003E000
F00001F00003E000
F00001F00007C000
F00000F0000F8000
F00000F0000F8000
F00000F0001F0000
F00000F0003E0000
F00000F0003E0000
F00000F0007C0000
F00001F000F80000
F00001F000F80000
F00001F001F00000
F00001F003E00000
F00003E003E00000
F00003E007C00000
F00007C00F800000
F0000FC00F800000
F0001F801F000000
F0007F003E000000
F001FE003E000000
FFFFFC007FFFFFC0
FFFFF8007FFFFFC0
FFFFE0007FFFFFC0
FFFE00007FFFFFC0
ENDCHAR
STARTCHAR 01F2
ENCODING 498
SWIDTH 1200 0
DWIDTH 60 0
BBX 53 36 5 0
BITMAP
FFFC0000000000
FFFFC000000000
FFFFF800000000
FFFFFC00000000
F003FE00000000
F0007F00000000
F0001F80000000
F0000FC0000000
F00007C0000000
F00003E03FFFF8
F00003E03FFFF8
F00001F03FFFF8
F00001F03FFFF8
F00001F00001F0
F00001F00003E0
F00000F00003E0
F00000F00007C0
F00000F0000F80
F00000F0000F00
F00000F0001F00
F00000F0003E00
F00001F0003C00
F00001F0007C00
F00001F000F800
F00001F001F000
F00003E001F000
F00003E003E000
F00007C007C000
F0000FC0078000
F0001F800F8000
F0007F001F0000
F001FE001E0000
FFFFFC003E0000
FFFFF8007FFFF8
FFFFE0007FFFF8
FFFE00007FFFF8
ENDCHAR
STARTCHAR 01F3
ENCODING 499
SWIDTH 1080 0
DWIDTH 54 0
BBX 49 39 3 -1
BITMAP
00001F00000000
00001F00000000
00001F00000000
00001F00000000
00001F00000000
00001F00000000
00001F00000000
00001F00000000
00001F00000000
00001F00000000
00001F00000000
01FE1F01FFFF80
07FF9F01FFFF80
1FFFDF01FFFF80
1FC7FF01FFFF80
3F00FF00001F00
7E007F00001F00
7C003F00003E00
78003F00007C00
F8001F00007800
F8001F0000F800
F8001F0001F000
F0001F0001E000
F0001F0003E000
F0001F0007C000
F0001F000F8000
F0001F000F0000
F0001F001F0000
F8001F003E0000
F8001F003C0000
F8003F007C0000
7C003F00F80000
7C007F00F00000
3E00FF01F00000
3F83FF03E00000
1FFFDF03FFFF80
0FFF8F03FFFF80
03FF0F03FFFF80
00200000000000
ENDCHAR
STARTCHAR 01F4
ENCODING 500
SWIDTH 720 0
DWIDTH 36 0
BBX 30 48 3 -1
BITMAP
00001F80
00003F00
00003E00
00007C00
0000F800
0000F000
0001E000
0001C000
00000000
00000000
00000000
0007FF80
003FFFF0
00FFFFF8
03FFFFF8
07F800F0
0FE00010
1F800000
1F000000
3F000000
3E000000
7C000000
7C000000
7C000000
F8000000
F8000000
F8000000
F8000000
F8007FFC
F8007FFC
F8007FFC
F8007FFC
F800007C
F800007C
7800007C
7C00007C
7C00007C
7E00007C
3E00007C
3F00007C
1F80007C
0FC0007C
0FF0007C
07FF8FFC
01FFFFFC
00FFFFFC
003FFFE0
0000E000
ENDCHAR
STARTCHAR 01F5
ENCODING 501
SWIDTH 600 0
DWIDTH 30 0
BBX 24 50 3 -12
BITMAP
0003E0
0007C0
000F80
000F80
001F00
003E00
003C00
007000
000000
000000
000000
03FE0F
07FF8F
0FFFCF
1FCFFF
3F00FF
7E007F
7C003F
78003F
F8001F
F8001F
F8001F
F0001F
F0001F
F0001F
F0001F
F0001F
F0001F
F8001F
F8001F
F8001F
7C003F
7C003F
3E007F
3F83FF
1FFFDF
0FFF9F
03FF1F
00201F
00001E
00001E
00001E
00003E
00003E
00007C
3800FC
3FFFF8
3FFFF0
3FFFE0
03FF00
ENDCHAR
STARTCHAR 01F6
ENCODING 502
SWIDTH 920 0
DWIDTH 46 0
BBX 37 36 5 0
BITMAP
F0001F0000
F0001F0000
F0001F0000
F0001F0000
F0001F0000
F0001F0000
F0001F0000
F0001F0000
F0001F0000
F0001F0078
F0001F0078
F0001F0078
F0001F0078
F0001F0078
F0001F0078
FFFFFF0078
FFFFFF0078
FFFFFF0078
FFFFFF0078
F0001F0078
F0001F0078
F0001F0078
F0001F0078
F0001F0078
F0001F0078
F0001F0078
F0001F0078
F0001F0078
F0001F0078
F0001F0078
F0001F00F8
F0000F81F8
F0000FF7F0
F00007FFF0
F00003FFE0
F00001FF80
ENDCHAR
STARTCHAR 01F7
ENCODING 503
SWIDTH 660 0
DWIDTH 33 0
BBX 25 48 5 -12
BITMAP
E03FE000
F0FFF800
F1FFFC00
F3FFFE00
F7807F00
FF001F00
FE001F80
FC000F80
F8000F80
F8000780
F8000780
F8000780
F0000780
F0000780
F0000780
F0000F80
F0000F80
F0000F80
F0000F00
F0001F00
F0001F00
F0003E00
F0007E00
F0007C00
F000F800
F001F800
F003F000
F007E000
F01FC000
F03F8000
F0FE0000
F3FC0000
FFF00000
FFE00000
FF800000
FE000000
F0000000
F0000000
F0000000
F0000000
F0000000
F0000000
F0000000
F0000000
F0000000
F0000000
F0000000
F0000000
ENDCHAR
STARTCHAR 01F8
ENCODING 504
SWIDTH 760 0
DWIDTH 38 0
BBX 28 47 5 0
BITMAP
00F80000
00FC0000
007C0000
003E0000
001F0000
000F0000
00078000
0003C000
00000000
00000000
00000000
F80000F0
FC0000F0
FC0000F0
FE0000F0
FF0000F0
FF0000F0
FF8000F0
F7C000F0
F7C000F0
F3E000F0
F3F000F0
F1F000F0
F0F800F0
F0FC00F0
F07C00F0
F03E00F0
F03F00F0
F01F00F0
F00F80F0
F00F80F0
F007C0F0
F003E0F0
F003E0F0
F001F0F0
F001F8F0
F000F8F0
F0007CF0
F0007EF0
F0003EF0
F0001FF0
F0001FF0
F0000FF0
F00007F0
F00007F0
F00003F0
F00001F0
ENDCHAR
STARTCHAR 01F9
ENCODING 505
SWIDTH 600 0
DWIDTH 30 0
BBX 23 38 4 0
BITMAP
07E000
03E000
01F000
00F000
007800
003C00
001E00
000E00
000000
000000
000000
F07FC0
F1FFF0
F3FFF8
F7E7FC
FF00FC
FE007C
FC003E
FC003E
F8003E
F8003E
F8003E
F8003E
F8003E
F8003E
F8003E
F8003E
F8003E
F8003E
F8003E
F8003E
F8003E
F8003E
F8003E
F8003E
F8003E
F8003E
F8003E
ENDCHAR
STARTCHAR 01FA
ENCODING 506
SWIDTH 640 0
DWIDTH 32 0
BBX 32 48 0 0
BITMAP
00003E00
00007C00
0000F800
0000F000
0001E000
0003C000
00038000
00000000
0007E000
000FF000
001E7800
001C3800
00381800
00381800
00183800
001C3800
000FF000
0007E000
0007F000
000FF000
000EF000
001E7800
001E7800
003C3C00
003C3C00
003C3C00
00781E00
00781E00
00F00F00
00F00F00
01F00F80
01E00780
01E00780
03C003C0
03FFFFC0
07FFFFE0
07FFFFE0
0FFFFFF0
0F0001F0
0F0000F0
1F0000F8
1E000078
3E00007C
3C00007C
7C00003E
7C00003E
7800001E
F800001F
ENDCHAR
STARTCHAR 01FB
ENCODING 507
SWIDTH 560 0
DWIDTH 28 0
BBX 22 49 2 -1
BITMAP
0007F0
0007E0
000F80
001F00
003C00
000000
000000
003C00
00FF00
00FF80
01C3C0
01C1C0
0181C0
01C1C0
01C380
00FF80
00FF00
003C00
000000
000000
000000
01FF80
0FFFE0
1FFFF0
0FC3F8
0E00F8
00007C
00007C
00003C
00003C
00003C
00003C
00FFFC
07FFFC
1FFFFC
3FC03C
7E003C
7C003C
78003C
F8007C
F8007C
F8007C
F800FC
7C01FC
7E07BC
3FFFBC
1FFE3C
0FFC1C
008000
ENDCHAR
STARTCHAR 01FC
ENCODING 508
SWIDTH 880 0
DWIDTH 44 0
BBX 41 47 0 0
BITMAP
0000003F0000
0000003E0000
0000007C0000
000000780000
000000F00000
000001E00000
000001C00000
000003800000
000000000000
000000000000
000000000000
00007FFFFF80
0000FFFFFF80
0000FFFFFF80
0001FFFFFF80
0001E3E00000
0003E3E00000
0003E3E00000
0007C3E00000
0007C3E00000
000783E00000
000F83E00000
000F03E00000
001F03E00000
001E03E00000
003E03E00000
003C03FFFF00
007C03FFFF00
007803FFFF00
00F803FFFF00
00F003E00000
01F003E00000
01FFFFE00000
03FFFFE00000
03FFFFE00000
07FFFFE00000
07C003E00000
0F8003E00000
0F8003E00000
1F0003E00000
1F0003E00000
1E0003E00000
3E0003E00000
3C0003FFFF80
7C0003FFFF80
780003FFFF80
F80003FFFF80
ENDCHAR
STARTCHAR 01FD
ENCODING 509
SWIDTH 860 0
DWIDTH 43 0
BBX 39 39 2 -1
BITMAP
000003E000
000007C000
00000FC000
00000F8000
00001F0000
00003E0000
00003C0000
0000700000
0000000000
0000000000
0000000000
03FF00FF00
0FFFC3FFC0
1FFFE7FFE0
1F87FFE3F0
0C01FF00F8
0000FE0078
00007E007C
00007C003C
00007C003C
00007C003C
00007C003E
00FFFFFFFE
07FFFFFFFE
1FFFFFFFFE
3FC07C0000
7E007C0000
7C007C0000
78007C0000
F8007C0000
F800FC0000
F800FE0000
F801FF0000
7C03DF8008
7E0FCFE0F8
3FFF87FFF8
1FFF03FFF8
0FFC00FFF0
0080000C00
ENDCHAR
STARTCHAR 01FE
ENCODING 510
SWIDTH 780 0
DWIDTH 39 0
BBX 33 48 3 -2
BITMAP
00003F0000
00003E0000
00007C0000
0000F80000
0000F00000
0001E00000
0003C00000
0003800000
0000000000
0000000000
0000001800
001FFC1E00
00FFFFBC00
01FFFFFC00
07FFFFF800
0FF007F000
0FC001F800
1F8003FC00
3F0003FE00
3E0007BE00
7C000F9F00
7C000F1F00
7C001E1F00
78003E0F00
F8007C0F80
F800780F80
F800F00F80
F801F00F80
F801E00F80
F803C00F80
F807C00F80
F80F800F80
F80F000F80
F81E000F80
783E000F00
7C3C001F00
7C78001F00
7CF8001F00
3EF0003E00
3FE0003E00
1FE0007C00
1FC000FC00
0FE003F800
0FFE3FF000
1FFFFFE000
1EFFFF8000
3C3FFE0000
1C00800000
ENDCHAR
STARTCHAR 01FF
ENCODING 511
SWIDTH 600 0
DWIDTH 30 0
BBX 25 40 3 -2
BITMAP
0003E000
0007E000
0007C000
000F8000
001F0000
001E0000
003C0000
00780000
00000000
00000000
00000C00
01FF9F00
07FFFE00
0FFFFC00
1FE7FC00
3F00FC00
3E00FE00
7C01FE00
7803FF00
F803DF00
F8078F00
F80F8F00
F00F0F00
F01E0F80
F03C0F80
F07C0F80
F0780F00
F0F00F00
F9F00F00
F9E01F00
7BC01F00
7F803E00
3F803E00
3F007C00
1FC1FC00
3FFFF800
3FFFE000
79FF8000
30180000
10000000
ENDCHAR
STARTCHAR 0200
ENCODING 512
SWIDTH 620 0
DWIDTH 31 0
BBX 32 47 0 0
BITMAP
07C3E000
03C3E000
03E1F000
01E0F000
00F07800
00783C00
00381C00
001C0E00
00000000
00000000
00000000
0003C000
0007E000
0007E000
0007E000
000FF000
000FF000
001EF000
001E7800
001E7800
003E7C00
003C3C00
003C3C00
00783E00
00781E00
00F81F00
00F00F00
00F00F00
01F00F80
01E00780
03E007C0
03C007C0
03FFFFC0
07FFFFE0
07FFFFE0
0FFFFFE0
0F8001F0
0F0000F0
1F0000F8
1E0000F8
1E000078
3E00007C
3C00003C
7C00003E
7C00003E
7800001E
F800001F
ENDCHAR
STARTCHAR 0201
ENCODING 513
SWIDTH 560 0
DWIDTH 28 0
BBX 22 39 2 -1
BITMAP
7C3E00
3E1E00
1E1F00
1F0F80
0F0780
0783C0
03C1C0
01C0E0
000000
000000
000000
01FF80
0FFFE0
1FFFF0
0FC3F8
0E00F8
00007C
00007C
00003C
00003C
00003C
00003C
00FFFC
07FFFC
1FFFFC
3FC03C
7E003C
7C003C
78003C
F8007C
F8007C
F8007C
F800FC
7C01FC
7E07BC
3FFFBC
1FFE3C
0FFC1C
008000
ENDCHAR
STARTCHAR 0202
ENCODING 514
SWIDTH 620 0
DWIDTH 31 0
BBX 32 46 0 0
BITMAP
0007E000
001FF800
003FFC00
007FFE00
00700E00
00E00600
00E00700
00000000
00000000
00000000
0003C000
0007E000
0007E000
0007E000
000FF000
000FF000
001EF000
001E7800
001E7800
003E7C00
003C3C00
003C3C00
00783E00
00781E00
00F81F00
00F00F00
00F00F00
01F00F80
01E00780
03E007C0
03C007C0
03FFFFC0
07FFFFE0
07FFFFE0
0FFFFFE0
0F8001F0
0F0000F0
1F0000F8
1E0000F8
1E000078
3E00007C
3C00003C
7C00003E
7C00003E
7800001E
F800001F
ENDCHAR
STARTCHAR 0203
ENCODING 515
SWIDTH 560 0
DWIDTH 28 0
BBX 22 38 2 -1
BITMAP
007F00
01FF80
03FFC0
07FFE0
0700E0
0E0070
0E0070
000000
000000
000000
01FF80
0FFFE0
1FFFF0
0FC3F8
0E00F8
00007C
00007C
00003C
00003C
00003C
00003C
00FFFC
07FFFC
1FFFFC
3FC03C
7E003C
7C003C
78003C
F8007C
F8007C
F8007C
F800FC
7C01FC
7E07BC
3FFFBC
1FFE3C
0FFC1C
008000
ENDCHAR
STARTCHAR 0204
ENCODING 516
SWIDTH 540 0
DWIDTH 27 0
BBX 21 47 4 0
BITMAP
F87C00
7C3E00
3C3E00
3E1F00
1E0F00
0F0780
0783C0
0381C0
000000
000000
000000
7FFFF8
7FFFF8
7FFFF8
7FFFF8
780000
780000
780000
780000
780000
780000
780000
780000
780000
780000
780000
7FFFF0
7FFFF0
7FFFF0
7FFFF0
780000
780000
780000
780000
780000
780000
780000
780000
780000
780000
780000
780000
780000
7FFFF8
7FFFF8
7FFFF8
7FFFF8
ENDCHAR
STARTCHAR 0205
ENCODING 517
SWIDTH 560 0
DWIDTH 28 0
BBX 23 39 3 -1
BITMAP
F87C00
7C3E00
3C1E00
1E1F00
1E0F00
0F0780
0783C0
0381C0
000000
000000
000000
01FF00
07FFC0
0FFFE0
1FC7F0
3E00F8
3C00F8
7C007C
78007C
F8003C
F8003C
F0003E
FFFFFE
FFFFFE
FFFFFE
F00000
F00000
F00000
F80000
F80000
780000
7C0000
7E0000
3F0008
1FE1F8
0FFFF8
07FFF8
01FFF0
000C00
ENDCHAR
STARTCHAR 0206
ENCODING 518
SWIDTH 540 0
DWIDTH 27 0
BBX 20 46 5 0
BITMAP
00F800
07FE00
0FFF00
1FFF80
1C03C0
1C01C0
3801C0
000000
000000
000000
FFFFF0
FFFFF0
FFFFF0
FFFFF0
F00000
F00000
F00000
F00000
F00000
F00000
F00000
F00000
F00000
F00000
F00000
FFFFE0
FFFFE0
FFFFE0
FFFFE0
F00000
F00000
F00000
F00000
F00000
F00000
F00000
F00000
F00000
F00000
F00000
F00000
F00000
FFFFF0
FFFFF0
FFFFF0
FFFFF0
ENDCHAR
STARTCHAR 0207
ENCODING 519
SWIDTH 560 0
DWIDTH 28 0
BBX 23 38 3 -1
BITMAP
00FE00
03FF80
07FFC0
0FFFC0
0E01E0
0E00E0
1C00E0
000000
000000
000000
01FF00
07FFC0
0FFFE0
1FC7F0
3E00F8
3C00F8
7C007C
78007C
F8003C
F8003C
F0003E
FFFFFE
FFFFFE
FFFFFE
F00000
F00000
F00000
F80000
F80000
780000
7C0000
7E0000
3F0008
1FE1F8
0FFFF8
07FFF8
01FFF0
000C00
ENDCHAR
STARTCHAR 0208
ENCODING 520
SWIDTH 320 0
DWIDTH 16 0
BBX 18 47 -3 0
BITMAP
F87C00
7C3E00
3E1E00
1E0F00
0F0F00
070780
0783C0
0181C0
000000
000000
000000
07FFC0
07FFC0
07FFC0
01FE00
007C00
007C00
007C00
007C00
007C00
007C00
007C00
007C00
007C00
007C00
007C00
007C00
007C00
007C00
007C00
007C00
007C00
007C00
007C00
007C00
007C00
007C00
007C00
007C00
007C00
007C00
007C00
007C00
007C00
07FFC0
07FFC0
07FFC0
ENDCHAR
STARTCHAR 0209
ENCODING 521
SWIDTH 240 0
DWIDTH 12 0
BBX 18 38 -5 0
BITMAP
F87C00
7C3E00
3E1E00
1E0F00
0F0F00
070780
0383C0
0181C0
000000
000000
000000
007C00
007C00
007C00
007C00
007C00
007C00
007C00
007C00
007C00
007C00
007C00
007C00
007C00
007C00
007C00
007C00
007C00
007C00
007C00
007C00
007C00
007C00
007C00
007C00
007C00
007C00
007C00
ENDCHAR
STARTCHAR 020A
ENCODING 522
SWIDTH 320 0
DWIDTH 16 0
BBX 15 46 1 0
BITMAP
07E0
1FF8
7FFC
7FFC
F00E
E00E
E00E
0000
0000
0000
7FFC
7FFC
7FFC
1FE0
07C0
07C0
07C0
07C0
07C0
07C0
07C0
07C0
07C0
07C0
07C0
07C0
07C0
07C0
07C0
07C0
07C0
07C0
07C0
07C0
07C0
07C0
07C0
07C0
07C0
07C0
07C0
07C0
07C0
7FFC
7FFC
7FFC
ENDCHAR
STARTCHAR 020B
ENCODING 523
SWIDTH 240 0
DWIDTH 12 0
BBX 15 37 -1 0
BITMAP
0FE0
3FF8
7FFC
7FFC
F00E
E00E
C00E
0000
0000
0000
07C0
07C0
07C0
07C0
07C0
07C0
07C0
07C0
07C0
07C0
07C0
07C0
07C0
07C0
07C0
07C0
07C0
07C0
07C0
07C0
07C0
07C0
07C0
07C0
07C0
07C0
07C0
ENDCHAR
STARTCHAR 020C
ENCODING 524
SWIDTH 780 0
DWIDTH 39 0
BBX 33 48 3 -1
BITMAP
07E3E00000
03E1F00000
01F0F00000
00F0780000
00787C0000
00383C0000
001C1E0000
000E0E0000
0000000000
0000000000
0000000000
001FFC0000
00FFFF8000
01FFFFC000
07FFFFF000
0FF007F800
0FC001F800
1F80007C00
3F00007E00
3E00003E00
7C00001F00
7C00001F00
7C00001F00
7800000F00
F800000F80
F800000F80
F800000F80
F800000F80
F800000F80
F800000F80
F800000F80
F800000F80
F800000F80
F800000F80
7800000F00
7C00001F00
7C00001F00
7C00001F00
3E00003E00
3E00003E00
1F00007C00
1F8000FC00
0FE003F800
07FE3FF000
03FFFFE000
00FFFF8000
003FFE0000
0000800000
ENDCHAR
STARTCHAR 020D
ENCODING 525
SWIDTH 600 0
DWIDTH 30 0
BBX 25 39 3 -1
BITMAP
7C3E0000
3E1E0000
1E1F0000
1F0F8000
0F078000
0783C000
03C1C000
01C0E000
00000000
00000000
00000000
01FF8000
07FFE000
0FFFF000
1FE7F800
3F00FC00
3E003E00
7C003E00
78001F00
F8001F00
F8000F00
F8000F00
F0000F00
F0000F80
F0000F80
F0000F80
F0000F00
F0000F00
F8000F00
F8001F00
78001F00
7C003E00
3C003E00
3F007C00
1FC1FC00
0FFFF800
07FFE000
01FF8000
00180000
ENDCHAR
STARTCHAR 020E
ENCODING 526
SWIDTH 780 0
DWIDTH 39 0
BBX 33 47 3 -1
BITMAP
0003F00000
000FFC0000
003FFE0000
003FFE0000
0078070000
0070070000
0070030000
0000000000
0000000000
0000000000
001FFC0000
00FFFF8000
01FFFFC000
07FFFFF000
0FF007F800
0FC001F800
1F80007C00
3F00007E00
3E00003E00
7C00001F00
7C00001F00
7C00001F00
7800000F00
F800000F80
F800000F80
F800000F80
F800000F80
F800000F80
F800000F80
F800000F80
F800000F80
F800000F80
F800000F80
7800000F00
7C00001F00
7C00001F00
7C00001F00
3E00003E00
3E00003E00
1F00007C00
1F8000FC00
0FE003F800
07FE3FF000
03FFFFE000
00FFFF8000
003FFE0000
0000800000
ENDCHAR
STARTCHAR 020F
ENCODING 527
SWIDTH 600 0
DWIDTH 30 0
BBX 25 38 3 -1
BITMAP
007F0000
01FF8000
03FFC000
07FFE000
0700E000
06007000
0E007000
00000000
00000000
00000000
01FF8000
07FFE000
0FFFF000
1FE7F800
3F00FC00
3E003E00
7C003E00
78001F00
F8001F00
F8000F00
F8000F00
F0000F00
F0000F80
F0000F80
F0000F80
F0000F00
F0000F00
F8000F00
F8001F00
78001F00
7C003E00
3C003E00
3F007C00
1FC1FC00
0FFFF800
07FFE000
01FF8000
00180000
ENDCHAR
STARTCHAR 0210
ENCODING 528
SWIDTH 620 0
DWIDTH 31 0
BBX 26 47 4 0
BITMAP
FC7C0000
7C3E0000
3E1E0000
1E0F0000
0F0F8000
07078000
0383C000
01C1C000
00000000
00000000
00000000
7FFC0000
7FFFC000
7FFFF000
7FFFF800
7807FC00
78007E00
78003E00
78003E00
78001F00
78001F00
78001F00
78001F00
78001F00
78001E00
78003E00
78007C00
7800FC00
7FFFF800
7FFFF000
7FFFC000
7FFF8000
78078000
7807C000
7803E000
7803E000
7801F000
7800F800
7800F800
78007C00
78007C00
78003E00
78003F00
78001F00
78000F80
78000F80
780007C0
ENDCHAR
STARTCHAR 0211
ENCODING 529
SWIDTH 400 0
DWIDTH 20 0
BBX 19 38 1 0
BITMAP
F87C00
7C7C00
7C3E00
3E1E00
1E0F00
0F0780
078380
0381C0
000000
000000
000000
1E0FE0
1E1FE0
1E3FE0
1E7FC0
1EF000
1FE000
1FC000
1F8000
1F0000
1F0000
1F0000
1F0000
1F0000
1F0000
1F0000
1F0000
1F0000
1F0000
1F0000
1F0000
1F0000
1F0000
1F0000
1F0000
1F0000
1F0000
1F0000
ENDCHAR
STARTCHAR 0212
ENCODING 530
SWIDTH 620 0
DWIDTH 31 0
BBX 25 46 5 0
BITMAP
00FC0000
03FF0000
0FFF8000
0FFF8000
1E01C000
1C01C000
1C00C000
00000000
00000000
00000000
FFF80000
FFFF8000
FFFFE000
FFFFF000
F00FF800
F000FC00
F0007C00
F0007C00
F0003E00
F0003E00
F0003E00
F0003E00
F0003E00
F0003C00
F0007C00
F000F800
F001F800
FFFFF000
FFFFE000
FFFF8000
FFFF0000
F00F0000
F00F8000
F007C000
F007C000
F003E000
F001F000
F001F000
F000F800
F000F800
F0007C00
F0007E00
F0003E00
F0001F00
F0001F00
F0000F80
ENDCHAR
STARTCHAR 0213
ENCODING 531
SWIDTH 400 0
DWIDTH 20 0
BBX 16 37 4 0
BITMAP
07E0
1FF8
3FFC
7FFE
700E
E007
E007
0000
0000
0000
F07F
F0FF
F1FF
F3FE
F780
FF00
FE00
FC00
F800
F800
F800
F800
F800
F800
F800
F800
F800
F800
F800
F800
F800
F800
F800
F800
F800
F800
F800
ENDCHAR
STARTCHAR 0214
ENCODING 532
SWIDTH 720 0
DWIDTH 36 0
BBX 28 48 4 -1
BITMAP
1F0F8000
0F87C000
0783C000
03C3E000
03C1E000
01E0F000
00F07800
00703800
00000000
00000000
00000000
F80000F0
F80000F0
F80000F0
F80000F0
F80000F0
F80000F0
F80000F0
F80000F0
F80000F0
F80000F0
F80000F0
F80000F0
F80000F0
F80000F0
F80000F0
F80000F0
F80000F0
F80000F0
F80000F0
F80000F0
F80000F0
F80000F0
F80000F0
F80000F0
780001F0
780001F0
780001F0
7C0001E0
7C0003E0
3E0003E0
3F0007C0
1F800FC0
0FF8FF80
07FFFF00
03FFFC00
00FFF000
00060000
ENDCHAR
STARTCHAR 0215
ENCODING 533
SWIDTH 600 0
DWIDTH 30 0
BBX 23 39 4 -1
BITMAP
F87C00
7C3E00
3E1E00
1E0F00
0F0F00
070780
0383C0
0181C0
000000
000000
000000
F0003E
F0003E
F0003E
F0003E
F0003E
F0003E
F0003E
F0003E
F0003E
F0003E
F0003E
F0003E
F0003E
F0003E
F0003E
F0003E
F0003E
F0003E
F0003E
F8007E
F8007E
F800FE
7C01FE
7F07FE
3FFF9E
1FFF1E
0FFE1E
004000
ENDCHAR
STARTCHAR 0216
ENCODING 534
SWIDTH 720 0
DWIDTH 36 0
BBX 28 47 4 -1
BITMAP
000F8000
007FF000
00FFF800
01FFF800
01E03C00
01C01C00
01801C00
00000000
00000000
00000000
F80000F0
F80000F0
F80000F0
F80000F0
F80000F0
F80000F0
F80000F0
F80000F0
F80000F0
F80000F0
F80000F0
F80000F0
F80000F0
F80000F0
F80000F0
F80000F0
F80000F0
F80000F0
F80000F0
F80000F0
F80000F0
F80000F0
F80000F0
F80000F0
780001F0
780001F0
780001F0
7C0001E0
7C0003E0
3E0003E0
3F0007C0
1F800FC0
0FF8FF80
07FFFF00
03FFFC00
00FFF000
00060000
ENDCHAR
STARTCHAR 0217
ENCODING 535
SWIDTH 600 0
DWIDTH 30 0
BBX 23 38 4 -1
BITMAP
00FE00
03FF80
07FFC0
07FFC0
0F00E0
0E00E0
0C00E0
000000
000000
000000
F0003E
F0003E
F0003E
F0003E
F0003E
F0003E
F0003E
F0003E
F0003E
F0003E
F0003E
F0003E
F0003E
F0003E
F0003E
F0003E
F0003E
F0003E
F0003E
F8007E
F8007E
F800FE
7C01FE
7F07FE
3FFF9E
1FFF1E
0FFE1E
004000
ENDCHAR
STARTCHAR 0218
ENCODING 536
SWIDTH 540 0
DWIDTH 27 0
BBX 22 47 3 -11
BITMAP
01FF80
0FFFF8
1FFFF8
3FFFF8
7E00F0
7C0010
F80000
F80000
F80000
F80000
F80000
F80000
7C0000
7E0000
3F8000
3FE000
1FF800
07FF00
01FF80
007FE0
000FF0
0003F8
0001F8
00007C
00007C
00007C
00003C
00003C
00007C
00007C
0000F8
C001F8
FF3FF0
FFFFE0
FFFFC0
7FFF00
00C000
000000
000000
007800
00F800
00F000
00F000
00E000
01E000
01C000
018000
ENDCHAR
STARTCHAR 0219
ENCODING 537
SWIDTH 460 0
DWIDTH 23 0
BBX 19 38 3 -11
BITMAP
0FFE00
3FFFC0
7FFFC0
FE0F80
F80180
F00000
F00000
F00000
F00000
FC0000
7F0000
3FC000
1FF800
07FE00
01FF00
003F80
000FC0
0007C0
0003E0
0003E0
0003E0
0003E0
8007C0
F00FC0
FFFF80
FFFF00
7FFC00
018000
000000
000000
00F000
00F000
01F000
01E000
01E000
01C000
038000
038000
ENDCHAR
STARTCHAR 021A
ENCODING 538
SWIDTH 540 0
DWIDTH 27 0
BBX 27 47 0 -11
BITMAP
FFFFFFE0
FFFFFFE0
FFFFFFE0
FFFFFFE0
000F0000
000F0000
000F0000
000F0000
000F0000
000F0000
000F0000
000F0000
000F0000
000F0000
000F0000
000F0000
000F0000
000F0000
000F0000
000F0000
000F0000
000F0000
000F0000
000F0000
000F0000
000F0000
000F0000
000F0000
000F0000
000F0000
000F0000
000F0000
000F0000
000F0000
000F0000
000F0000
00000000
00000000
00000000
00078000
00078000
000F0000
000F0000
000E0000
001E0000
001C0000
001C0000
ENDCHAR
STARTCHAR 021B
ENCODING 539
SWIDTH 360 0
DWIDTH 18 0
BBX 16 44 1 -11
BITMAP
0700
0700
0700
0F00
0F00
0F00
3FFF
FFFF
FFFF
FFFF
0F00
0F00
0F00
0F00
0F00
0F00
0F00
0F00
0F00
0F00
0F00
0F00
0F00
0F00
0F00
0F00
0F00
0F00
0F80
0FC1
07FF
03FF
01FF
0010
0000
0000
00F8
00F8
00F0
00F0
00E0
01E0
01C0
0380
ENDCHAR
STARTCHAR 021C
ENCODING 540
SWIDTH 560 0
DWIDTH 28 0
BBX 24 45 2 -9
BITMAP
03FF80
1FFFE0
7FFFF8
FFFFFC
7C00FC
70007E
00003E
00003E
00001E
00001E
00003E
00003E
00007E
0000FC
0001F8
0007F0
003FE0
03FFC0
07FFF0
03FBF8
0380FC
00007E
00003E
00001F
00001F
00001F
00001F
00001F
00001F
00001F
00001F
00003E
00007E
00007C
0001FC
0003F8
000FF0
003FE0
01FFC0
0FFF00
7FFC00
FFE000
FF8000
FC0000
C00000
ENDCHAR
STARTCHAR 021D
ENCODING 541
SWIDTH 480 0
DWIDTH 24 0
BBX 21 39 1 -12
BITMAP
07FF00
3FFF80
7FFFE0
3F0FE0
3001F0
0001F0
0000F0
0000F0
0000F0
0000F0
0001F0
0001F0
0003E0
000FC0
003F80
01FF00
07FFC0
07F7E0
0381F0
0000F0
0000F8
000078
000078
000078
000078
000078
0000F8
0000F8
0001F0
0003F0
0007E0
001FC0
007F80
03FF00
1FFC00
FFF000
FFC000
FE0000
E00000
ENDCHAR
STARTCHAR 021E
ENCODING 542
SWIDTH 740 0
DWIDTH 37 0
BBX 27 47 5 0
BITMAP
07803C00
03C07800
01F1F000
00FBE000
007FC000
003F8000
003F8000
001F0000
00000000
00000000
00000000
F00001E0
F00001E0
F00001E0
F00001E0
F00001E0
F00001E0
F00001E0
F00001E0
F00001E0
F00001E0
F00001E0
F00001E0
F00001E0
F00001E0
F00001E0
FFFFFFE0
FFFFFFE0
FFFFFFE0
FFFFFFE0
F00001E0
F00001E0
F00001E0
F00001E0
F00001E0
F00001E0
F00001E0
F00001E0
F00001E0
F00001E0
F00001E0
F00001E0
F00001E0
F00001E0
F00001E0
F00001E0
F00001E0
ENDCHAR
STARTCHAR 021F
ENCODING 543
SWIDTH 600 0
DWIDTH 30 0
BBX 29 50 -2 0
BITMAP
E0038000
F00F8000
7C1F0000
3E3E0000
1F7C0000
0FF80000
07F00000
03E00000
03E00000
00000000
00000000
00000000
03E00000
03E00000
03E00000
03E00000
03E00000
03E00000
03E00000
03E00000
03E00000
03E00000
03E00000
03E1FF00
03E7FFC0
03EFFFE0
03DF9FF0
03FC03F0
03F801F0
03F000F8
03F000F8
03E000F8
03E000F8
03E000F8
03E000F8
03E000F8
03E000F8
03E000F8
03E000F8
03E000F8
03E000F8
03E000F8
03E000F8
03E000F8
03E000F8
03E000F8
03E000F8
03E000F8
03E000F8
03E000F8
ENDCHAR
STARTCHAR 0220
ENCODING 544
SWIDTH 740 0
DWIDTH 37 0
BBX 28 48 5 -12
BITMAP
E01FF000
F0FFFC00
F1FFFF00
F3FFFF80
F7C01FC0
FF0007C0
FE0007E0
FC0003E0
FC0003E0
F80001E0
F80001E0
F80001E0
F00001E0
F00001F0
F00001F0
F00001F0
F00001F0
F00001F0
F00001F0
F00001F0
F00001F0
F00001F0
F00001F0
F00001F0
F00001F0
F00001F0
F00001F0
F00001F0
F00001F0
F00001F0
F00001F0
F00001F0
F00001F0
F00001F0
F00001F0
F00001F0
000001F0
000001F0
000001F0
000001F0
000001F0
000001F0
000001F0
000001F0
000001F0
000001F0
000001F0
000001F0
ENDCHAR
STARTCHAR 0221
ENCODING 545
SWIDTH 860 0
DWIDTH 43 0
BBX 40 43 3 -5
BITMAP
00001F0000
00001F0000
00001F0000
00001F0000
00001F0000
00001F0000
00001F0000
00001F0000
00001F0000
00001F0000
00001F0000
01FE1F0000
07FF9F0000
1FFFDF0000
1FC7FF0000
3F00FF0000
7E007F0000
7C003F0000
78003F0000
F8001F0000
F8001F0000
F8001F0000
F0001F0000
F0001F0000
F0001F0000
F0001F0000
F0001F00C0
F0001F07F8
F8001F1FFE
F8001F3FFE
F8003F7C1F
7C003FF81F
7C007FF01F
3E00F7E01E
3F83F7F9FE
1FFFE3FFFC
0FFFC3FFF8
03FF03FFE0
002003C000
000003C000
0000078000
0000078000
0000078000
ENDCHAR
STARTCHAR 0222
ENCODING 546
SWIDTH 660 0
DWIDTH 33 0
BBX 28 37 3 -1
BITMAP
3C0007C0
3C0007C0
3C0007C0
3C0007C0
3C0007C0
3C0007C0
3C0007C0
3E0007C0
3E000780
1E000F80
1F001F80
0F803F00
07FFFE00
03FFFC00
01FFF800
07FFFE00
1FE0FF00
3F001F80
7E0007C0
7C0003E0
F80003E0
F80003E0
F80001F0
F80001F0
F80001F0
F80001F0
F80001F0
F80003E0
780003E0
7C0007E0
7E0007C0
3F001FC0
1FF1FF80
0FFFFF00
07FFFC00
00FFF000
00040000
ENDCHAR
STARTCHAR 0223
ENCODING 547
SWIDTH 580 0
DWIDTH 29 0
BBX 25 39 2 -1
BITMAP
3E001F00
3E001F00
3E001F00
3E001F00
3E001F00
3E001F00
3E001F00
3E001F00
3E001F00
3E001E00
1E001E00
1F003E00
1F807C00
0FE3FC00
07FFF800
01FFE000
07FFF800
0FF3FC00
1F007E00
3E001F00
3C001F00
7C000F80
78000F80
78000780
78000780
F8000780
F8000780
78000780
78000780
78000F80
7C000F80
7C001F00
3E001F00
1F003E00
1FC0FE00
0FFFFC00
03FFF000
01FFC000
000C0000
ENDCHAR
STARTCHAR 0224
ENCODING 548
SWIDTH 560 0
DWIDTH 28 0
BBX 25 46 2 -10
BITMAP
FFFFFF00
FFFFFF00
FFFFFF00
FFFFFF00
00001F00
00003E00
00007C00
00007C00
0000F800
0001F000
0001F000
0003E000
0007C000
0007C000
000F8000
001F0000
001F0000
003E0000
007C0000
007C0000
00F80000
01F00000
01F00000
03E00000
07C00000
07C00000
0F800000
1F000000
1F000000
3E000000
7C000000
7C000000
FFFFFF80
FFFFFF80
FFFFFF80
FFFFFF80
00000780
00000780
00000780
00000780
00000780
00000F00
0000FF00
0000FF00
0000FE00
0000F800
ENDCHAR
STARTCHAR 0225
ENCODING 549
SWIDTH 460 0
DWIDTH 23 0
BBX 20 37 2 -10
BITMAP
7FFFE0
7FFFE0
7FFFE0
7FFFE0
0003E0
0007C0
000F80
000F00
001F00
003E00
007C00
007C00
00F800
01F000
01E000
03E000
07C000
078000
0F8000
1F0000
3E0000
3C0000
7C0000
F80000
FFFFF0
FFFFF0
FFFFF0
0000F0
0000F0
0000F0
0000F0
0001E0
0001E0
001FE0
001FE0
001FC0
001F00
ENDCHAR
STARTCHAR 0226
ENCODING 550
SWIDTH 620 0
DWIDTH 31 0
BBX 32 46 0 0
BITMAP
00018000
0003C000
0007C000
0007C000
0003C000
00018000
00000000
00000000
00000000
00000000
0003C000
0007E000
0007E000
0007E000
000FF000
000FF000
001EF000
001E7800
001E7800
003E7C00
003C3C00
003C3C00
00783E00
00781E00
00F81F00
00F00F00
00F00F00
01F00F80
01E00780
03E007C0
03C007C0
03FFFFC0
07FFFFE0
07FFFFE0
0FFFFFE0
0F8001F0
0F0000F0
1F0000F8
1E0000F8
1E000078
3E00007C
3C00003C
7C00003E
7C00003E
7800001E
F800001F
ENDCHAR
STARTCHAR 0227
ENCODING 551
SWIDTH 560 0
DWIDTH 28 0
BBX 22 38 2 -1
BITMAP
001800
003C00
003E00
003E00
003C00
001800
000000
000000
000000
000000
01FF80
0FFFE0
1FFFF0
0FC3F8
0E00F8
00007C
00007C
00003C
00003C
00003C
00003C
00FFFC
07FFFC
1FFFFC
3FC03C
7E003C
7C003C
78003C
F8007C
F8007C
F8007C
F800FC
7C01FC
7E07BC
3FFFBC
1FFE3C
0FFC1C
008000
ENDCHAR
STARTCHAR 0228
ENCODING 552
SWIDTH 540 0
DWIDTH 27 0
BBX 20 48 5 -12
BITMAP
FFFFF0
FFFFF0
FFFFF0
FFFFF0
F00000
F00000
F00000
F00000
F00000
F00000
F00000
F00000
F00000
F00000
F00000
FFFFE0
FFFFE0
FFFFE0
FFFFE0
F00000
F00000
F00000
F00000
F00000
F00000
F00000
F00000
F00000
F00000
F00000
F00000
F00000
FFFFF0
FFFFF0
FFFFF0
FFFFF0
007000
00E000
00E000
01F800
00FC00
001E00
001E00
001E00
001E00
07FC00
07F800
07E000
ENDCHAR
STARTCHAR 0229
ENCODING 553
SWIDTH 560 0
DWIDTH 28 0
BBX 23 39 3 -12
BITMAP
01FF00
07FFC0
0FFFE0
1FC7F0
3E00F8
3C00F8
7C007C
78007C
F8003C
F8003C
F0003E
FFFFFE
FFFFFE
FFFFFE
F00000
F00000
F00000
F80000
F80000
780000
7C0000
7E0000
3F0008
1FE1F8
0FFFF8
07FFF8
01FFF0
001C00
003800
003800
007E00
003F00
000780
000780
000780
000780
01FF00
01FE00
01F800
ENDCHAR
STARTCHAR 022A
ENCODING 554
SWIDTH 780 0
DWIDTH 39 0
BBX 33 52 3 -1
BITMAP
007FFF0000
007FFF0000
007FFF0000
007FFF0000
0000000000
0000000000
0000000000
00380E0000
003C1E0000
007C1F0000
003C1E0000
00380E0000
0000000000
0000000000
0000000000
001FFC0000
00FFFF8000
01FFFFC000
07FFFFF000
0FF007F800
0FC001F800
1F80007C00
3F00007E00
3E00003E00
7C00001F00
7C00001F00
7C00001F00
7800000F00
F800000F80
F800000F80
F800000F80
F800000F80
F800000F80
F800000F80
F800000F80
F800000F80
F800000F80
F800000F80
7800000F00
7C00001F00
7C00001F00
7C00001F00
3E00003E00
3E00003E00
1F00007C00
1F8000FC00
0FE003F800
07FE3FF000
03FFFFE000
00FFFF8000
003FFE0000
0000800000
ENDCHAR
STARTCHAR 022B
ENCODING 555
SWIDTH 600 0
DWIDTH 30 0
BBX 25 43 3 -1
BITMAP
07FFF000
07FFF000
07FFF000
07FFF000
00000000
00000000
00000000
0381C000
07C1E000
07C3E000
07C1E000
0381C000
00000000
00000000
00000000
01FF8000
07FFE000
0FFFF000
1FE7F800
3F00FC00
3E003E00
7C003E00
78001F00
F8001F00
F8000F00
F8000F00
F0000F00
F0000F80
F0000F80
F0000F80
F0000F00
F0000F00
F8000F00
F8001F00
78001F00
7C003E00
3C003E00
3F007C00
1FC1FC00
0FFFF800
07FFE000
01FF8000
00180000
ENDCHAR
STARTCHAR 022C
ENCODING 556
SWIDTH 780 0
DWIDTH 39 0
BBX 33 52 3 -1
BITMAP
007FFF0000
007FFF0000
007FFF0000
007FFF0000
0000000000
0000000000
001E038000
003F838000
007FFF0000
0073FF0000
00E0FE0000
00E03C0000
0000000000
0000000000
0000000000
001FFC0000
00FFFF8000
01FFFFC000
07FFFFF000
0FF007F800
0FC001F800
1F80007C00
3F00007E00
3E00003E00
7C00001F00
7C00001F00
7C00001F00
7800000F00
F800000F80
F800000F80
F800000F80
F800000F80
F800000F80
F800000F80
F800000F80
F800000F80
F800000F80
F800000F80
7800000F00
7C00001F00
7C00001F00
7C00001F00
3E00003E00
3E00003E00
1F00007C00
1F8000FC00
0FE003F800
07FE3FF000
03FFFFE000
00FFFF8000
003FFE0000
0000800000
ENDCHAR
STARTCHAR 022D
ENCODING 557
SWIDTH 600 0
DWIDTH 30 0
BBX 25 43 3 -1
BITMAP
07FFF000
07FFF000
07FFF000
07FFF000
00000000
00000000
01E03000
07F87000
07FFF000
0F3FF000
0E0FE000
0C038000
00000000
00000000
00000000
01FF8000
07FFE000
0FFFF000
1FE7F800
3F00FC00
3E003E00
7C003E00
78001F00
F8001F00
F8000F00
F8000F00
F0000F00
F0000F80
F0000F80
F0000F80
F0000F00
F0000F00
F8000F00
F8001F00
78001F00
7C003E00
3C003E00
3F007C00
1FC1FC00
0FFFF800
07FFE000
01FF8000
00180000
ENDCHAR
STARTCHAR 022E
ENCODING 558
SWIDTH 780 0
DWIDTH 39 0
BBX 33 47 3 -1
BITMAP
0001C00000
0003E00000
0003E00000
0003E00000
0003E00000
0001C00000
0000000000
0000000000
0000000000
0000000000
001FFC0000
00FFFF8000
01FFFFC000
07FFFFF000
0FF007F800
0FC001F800
1F80007C00
3F00007E00
3E00003E00
7C00001F00
7C00001F00
7C00001F00
7800000F00
F800000F80
F800000F80
F800000F80
F800000F80
F800000F80
F800000F80
F800000F80
F800000F80
F800000F80
F800000F80
7800000F00
7C00001F00
7C00001F00
7C00001F00
3E00003E00
3E00003E00
1F00007C00
1F8000FC00
0FE003F800
07FE3FF000
03FFFFE000
00FFFF8000
003FFE0000
0000800000
ENDCHAR
STARTCHAR 022F
ENCODING 559
SWIDTH 600 0
DWIDTH 30 0
BBX 25 38 3 -1
BITMAP
001C0000
003C0000
003E0000
003E0000
003C0000
00180000
00000000
00000000
00000000
00000000
01FF8000
07FFE000
0FFFF000
1FE7F800
3F00FC00
3E003E00
7C003E00
78001F00
F8001F00
F8000F00
F8000F00
F0000F00
F0000F80
F0000F80
F0000F80
F0000F00
F0000F00
F8000F00
F8001F00
78001F00
7C003E00
3C003E00
3F007C00
1FC1FC00
0FFFF800
07FFE000
01FF8000
00180000
ENDCHAR
STARTCHAR 0230
ENCODING 560
SWIDTH 780 0
DWIDTH 39 0
BBX 33 51 3 -1
BITMAP
007FFF0000
007FFF0000
007FFF0000
007FFF0000
0000000000
0000000000
0001C00000
0003E00000
0003E00000
0003E00000
0003E00000
0000800000
0000000000
0000000000
001FFC0000
00FFFF8000
01FFFFC000
07FFFFF000
0FF007F800
0FC001F800
1F80007C00
3F00007E00
3E00003E00
7C00001F00
7C00001F00
7C00001F00
7800000F00
F800000F80
F800000F80
F800000F80
F800000F80
F800000F80
F800000F80
F800000F80
F800000F80
F800000F80
F800000F80
7800000F00
7C00001F00
7C00001F00
7C00001F00
3E00003E00
3E00003E00
1F00007C00
1F8000FC00
0FE003F800
07FE3FF000
03FFFFE000
00FFFF8000
003FFE0000
0000800000
ENDCHAR
STARTCHAR 0231
ENCODING 561
SWIDTH 600 0
DWIDTH 30 0
BBX 25 43 3 -1
BITMAP
07FFF000
07FFF000
07FFF000
07FFF000
00000000
00000000
001C0000
003C0000
007E0000
003E0000
003C0000
00180000
00000000
00000000
00000000
01FF8000
07FFE000
0FFFF000
1FE7F800
3F00FC00
3E003E00
7C003E00
78001F00
F8001F00
F8000F00
F8000F00
F0000F00
F0000F80
F0000F80
F0000F80
F0000F00
F0000F00
F8000F00
F8001F00
78001F00
7C003E00
3C003E00
3F007C00
1FC1FC00
0FFFF800
07FFE000
01FF8000
00180000
ENDCHAR
STARTCHAR 0232
ENCODING 562
SWIDTH 560 0
DWIDTH 28 0
BBX 28 43 0 0
BITMAP
01FFFC00
01FFFC00
01FFFC00
01FFFC00
00000000
00000000
00000000
F80001F0
7C0001F0
7C0003E0
3E0003E0
3E0007C0
1F000780
1F000F80
0F800F00
0F801F00
07C01E00
03C03E00
03E03C00
01E07C00
01F0F800
00F0F800
00F9F000
0079E000
007FE000
003FC000
003FC000
001F8000
001F8000
000F0000
000F0000
000F0000
000F0000
000F0000
000F0000
000F0000
000F0000
000F0000
000F0000
000F0000
000F0000
000F0000
000F0000
ENDCHAR
STARTCHAR 0233
ENCODING 563
SWIDTH 500 0
DWIDTH 25 0
BBX 25 46 0 -12
BITMAP
07FFF000
07FFF000
07FFF000
07FFF000
00000000
00000000
00000000
F8000780
78000F80
7C000F80
7C000F00
3C001F00
3E001F00
1E003E00
1F003E00
1F003C00
0F007C00
0F807C00
07807800
0780F800
07C0F000
03C0F000
03E1F000
01E1E000
01E1E000
01F3E000
00F3C000
00F3C000
007F8000
007F8000
007F8000
003F0000
003F0000
001F0000
001E0000
003E0000
003C0000
003C0000
007C0000
00780000
00F80000
01F00000
7FE00000
7FE00000
7F800000
7F000000
ENDCHAR
ENDFONT
